<?xml version="1.0" encoding="UTF-8"?>
<svg id="gun_xA0_Image" xmlns="http://www.w3.org/2000/svg" version="1.1" xmlns:cc="http://web.resource.org/cc/" xmlns:dc="http://purl.org/dc/elements/1.1/" xmlns:inkscape="http://www.inkscape.org/namespaces/inkscape" xmlns:ns1="http://sozi.baierouge.fr" xmlns:rdf="http://www.w3.org/1999/02/22-rdf-syntax-ns#" xmlns:sodipodi="http://sodipodi.sourceforge.net/DTD/sodipodi-0.dtd" xmlns:svg="http://www.w3.org/2000/svg" viewBox="0 0 254.54 257.48">
  <!-- Generator: Adobe Illustrator 29.5.1, SVG Export Plug-In . SVG Version: 2.1.0 Build 141)  -->
  <defs>
    <style>
      .st0 {
        fill: #fff;
      }
    </style>
  </defs>
  <path class="st0" d="M35.4,10.68c-6.7.59-12.03.53-19.06,0,1.32-1.5,4.75-.8,7.15-2.38,2.46-1.62,2.82-4.5,5.79-4.43,2.74.07,5.09,2.62,6.12,6.81h0Z"/>
  <path class="st0" d="M223.65,5.57c-1.43,2.02-6.72.82-8.85.34,2.43-.74,5.59-.95,8.85-.34Z"/>
  <path class="st0" d="M254.29,5.78c-.22.28-.92.07-1.36.13v-.68h1.36c.1.28.08.45,0,.55Z"/>
  <path class="st0" d="M230.12,5.57c-.25,1.12-3.74.81-4.43.68-3.14-.62,3.03-.89,4.43-.68Z"/>
  <path class="st0" d="M173.61,6.59c-1.09,1.13-3.87.99-5.44.68,1.02-1.75,3.09-.35,5.44-.68Z"/>
  <path class="st0" d="M181.78,6.59c-.97,2.12-5.24.48-7.15.34,2-.33,5.24-1.02,7.15-.34Z"/>
  <path class="st0" d="M172.25,10.68h1.02c.23,1.93-1.62,1.78-2.04,3.06-1.01-1.04,1.11-1.82,1.02-3.06Z"/>
  <path class="st0" d="M229.44,11.7c.74-.06,1.08.28,1.02,1.02h-1.02v-1.02Z"/>
  <path class="st0" d="M166.8,12.72c.55-.1.59.32,1.02.34-.18.5-.5.86-.68,1.36-.74.06-.15-1.21-.34-1.7Z"/>
  <path class="st0" d="M190.97,13.4h1.7c.35,1.14-1.06.53-1.7.68v-.68Z"/>
  <path class="st0" d="M234.89,13.4c1.06-.16,1.22.85.68,1.36-.6-.08-.78-.58-.68-1.36Z"/>
  <path d="M183.48,17.14c-.56,2.51-1.78,4.35-4.42,4.77.77-2.3,1.9-4.23,4.42-4.77Z"/>
  <path d="M203.57,17.48c.12,1.25-1.24,1.03-2.04,1.36-.18-.27-.35-.55-.34-1.02.44-.47,1.48-.33,2.38-.34Z"/>
  <path d="M217.87,17.48c-.07,1.06-1.69.57-2.72.68-.21-1.34,1.87-.4,2.72-.68Z"/>
  <path class="st0" d="M244.08,18.16c.06,2.61-2.91,1.38-4.77,1.36.79-1.12,2.97-2.35,4.77-1.36h0Z"/>
  <path class="st0" d="M6.46,19.87c1.08-.06,1.14.9,2.38.68-.65.49-1.48.79-2.38,1.02-.03-.85-.63-1.05,0-1.7Z"/>
  <path class="st0" d="M19.06,20.89c-3.47-.1-6.69.83-9.87,0,1.16-1.43,4.6-.87,6.47-.68,1.06.11,3.25-.6,3.4.68h0Z"/>
  <path class="st0" d="M29.61,20.55c-1.88,1.04-3.72.09-6.47.34,1.3-.95,4.75-.87,6.47-.34h0Z"/>
  <path class="st0" d="M35.74,20.55c-1.12.5-3.1.67-4.08.34.35-1.27,3.16-.6,4.08-.34h0Z"/>
  <path class="st0" d="M62.63,20.55c-1.03,1.26-1.15-1.03,0,0Z"/>
  <path class="st0" d="M69.78,20.55c-.2,1.5-3.64,1.19-4.77.68.44-1.43,3.44-1.15,4.77-.68Z"/>
  <path class="st0" d="M80.68,20.21c1.28-.26,1.63.42,2.72.34-.17.47-3.07.83-2.72-.34Z"/>
  <path d="M214.46,23.27c-2.87-.57-10.4.67-11.57-2.73,1-.75,1.94.83,3.4.68,2.42-1.02,8.32-2.19,8.17,2.04Z"/>
  <path d="M149.78,21.57c-.13,1.9-3.74,1.03-6.13,1.02-1.72,0-3.31.76-4.09-.34,2.71-2.3,6.15-.47,10.21-.68Z"/>
  <path d="M54.46,21.57c-.03,1.04-2.23.8-2.72.34.44-.94,1.84-.68,2.72-.34Z"/>
  <path d="M105.19,21.57c-.71,1.07-3.01,1.31-4.43.68.73-.87,3.13-1.46,4.43-.68Z"/>
  <path d="M134.12,21.91c-1.5.77-4.14.36-5.11,2.38-1.62-2.09-4.46-.79-6.81-1.02-.55-.06-.85-.66-1.36-.68-2.15-.1-5.14,1.06-6.47-1.02,6.74-.36,13.93-.63,19.75.34Z"/>
  <path d="M41.87,21.91c1.82-.79,5.1-.12,7.49-.34-.79,2.74-5.84,2.17-7.49.34Z"/>
  <path d="M137.53,21.91c-.28.78-2.09.93-2.72.34.19-1.2,1.97-.55,2.72-.34Z"/>
  <path d="M23.83,23.95c.53,3.14-3.49,1.66-2.38,0,.64-.67,1.6-.17,2.38,0h0Z"/>
  <path d="M145.36,25.31c-2.15.56-4.52-.1-7.15.34-2.02.34-4.85,2.51-6.13,0,4.38-.55,9.78-3.75,13.28-.34Z"/>
  <path d="M19.4,24.63c-.27,1.43-1.94,2.12-3.4,1.36v-1.7c.83-.66,2.94-.42,3.4.34h0Z"/>
  <path d="M163.74,23.95c1.4.92-1.31,2.78-2.38,3.4-.05-1.97,1.22-2.64,2.38-3.4Z"/>
  <path d="M180.42,25.31c-.1,1.49-.6,2.58-2.38,2.38.33-1.26.79-2.39,2.38-2.38Z"/>
  <path d="M64.34,25.99c-.1,1.15-2.35,1.48-2.38,0,.64-.67,1.61-.17,2.38,0Z"/>
  <path d="M214.12,25.65c.15,1.92-2.29.62-3.74.68-2.34.09-5.28.83-6.13-.34,2.64-.76,6.67-.14,9.87-.34Z"/>
  <path d="M220.25,26.67c-1.42,1.08-2.24-.78-4.09-.34-.14-.25,4-1.41,4.09.34Z"/>
  <path d="M240.33,25.99c.34,1.02-.76.6-1.36.68.09-.6.59-.78,1.36-.68h0Z"/>
  <path d="M251.23,26.67c1.66-.25,1.07,3.02.68,3.74-1.48-.18-1.8-2.94-.68-3.74h0Z"/>
  <path d="M183.82,27.02c-.18,1.19-1.14,1.58-1.7,2.38-.95-.98.35-2.59,1.7-2.38Z"/>
  <path d="M120.85,31.44c-.49,1.46-2.28,0-3.4,0,.61-1.53,2.61-.92,3.4,0Z"/>
  <path d="M181.1,30.76c-.21,1.84-.95,3.14-2.72,3.4-.95-1.52,1.81-3.78,2.72-3.4Z"/>
  <path d="M117.1,31.44c-.57,1.02-.63,2.55-1.7,3.06-1.27.7-1.76-.5-2.72-1.02-2.9.4-4.2-.79-5.79-1.7,2.01-1.41,6.69-.84,10.21-.34Z"/>
  <path d="M121.19,32.12c1.55-.33,2.14,1.43,1.36,2.38-.96.28-.88-.48-1.7-.34-.25-1.04.59-1,.34-2.04Z"/>
  <path d="M183.14,34.85c1.34.68-.61,3.61-2.04,3.74-.42-2.35,1.47-2.38,2.04-3.74Z"/>
  <path class="st0" d="M136.17,39.95c-6.18,1.31-14.01-.42-20.43-.34,1.75-1.42,4.47.01,7.15-.34,2.91-.38,11.78-2.43,13.28.68Z"/>
  <path class="st0" d="M28.25,39.27c-.94,1.51-2.14.67-3.75.34-5.04.79-12.3,1.04-17.7.34v-1.02c5.74-.44,12.82-.57,17.36.34,1.55-.27,2.86-1.21,4.09,0h0Z"/>
  <path class="st0" d="M64.34,38.93c-.51,1.77-2.25.6-3.4.68-1.52.1-3.48.78-5.11.68-.77-.05-1.37-.67-2.04-.68-1.51-.02-3.36.68-5.11,0-.87.01-.42-.25-.34-.68,3.46-.48,11.48-.62,16,0Z"/>
  <path class="st0" d="M113.7,39.27c-.22,1.26-1.91,1.04-3.4,1.02-1.53.05-.87,2.31-2.38,2.38-1.18.05-.55-1.72-1.7-1.7-1.25-.25-1.89.84-2.72,0-.43.08-.45,1.02,0,1.02-.47.77-2.37.13-3.4.34.23-2.5-3.01-1.53-3.4-3.4,6.17.37,11.96-.82,17.02.34Z"/>
  <path class="st0" d="M138.55,38.59c.37.08.23.68.68.68.06.29-.13.32-.34.34h-.68c-.1-.55.32-.59.34-1.02Z"/>
  <path class="st0" d="M140.25,39.61c.58-.55,1.24-1.03,2.38-1.02,1-.09,1.05.77,2.04.68,1.5.35-2.41.61-3.06,1.02-.05-.63-1.15-.21-1.36-.68Z"/>
  <path class="st0" d="M35.4,38.93c.18,1.61-1.93.93-2.72.68.34-.79,1.56-.71,2.72-.68h0Z"/>
  <path class="st0" d="M40.85,38.93c.34,1.02-.76.6-1.36.68.08-.6.59-.78,1.36-.68Z"/>
  <path class="st0" d="M76.93,39.27c-2.58,2.77-6.43.62-10.89.34,2.91-1.39,7.87-.46,10.89-.34Z"/>
  <path class="st0" d="M82.04,38.93h1.36c.15.71-.23.9-.34,1.36-.9.1-1.12-.47-1.02-1.36Z"/>
  <path class="st0" d="M87.83,39.27c-.47.52-1.76.97-2.38.34.45-.89,1.51-.65,2.38-.34Z"/>
  <path class="st0" d="M96,39.27c-.3,1.26-2.88.6-3.74.34,1.14-.96,1.92-.18,3.74-.34Z"/>
  <path class="st0" d="M28.93,39.61c.04-.75,1.44-.15,2.04-.34,0,.93-1.6.81-2.04.34h0Z"/>
  <path class="st0" d="M80.34,39.27c-.29.51-1.1.49-1.7.68.05-.74.86-.73,1.7-.68Z"/>
  <path class="st0" d="M149.78,39.27h1.36c.24,1.34-1.43,1.12-1.36,0Z"/>
  <path class="st0" d="M132.08,42.67c-1.48-.22-3.85.44-4.77-.34.24-1.1,4.99-1.25,4.77.34Z"/>
  <path class="st0" d="M105.53,44.72c-.92,1.73-5.57,1.03-7.49.68.15-2.79,6.53-2.74,7.49-.68Z"/>
  <path class="st0" d="M151.49,43.7v1.36c-.78.22-2.05.68-2.72,0,.05-1.26,1.72-2.12,2.72-1.36Z"/>
  <path class="st0" d="M186.89,43.36c.97,3.2-1.11,6.31,0,9.87-2.53,1.98-9.17.72-12.26,0,.81-4.24,8.17-.2,10.55-2.38-1.39-2.48-7.66.15-9.19-1.36,1.65-1.83,6.36-.98,8.17-1.7-.16-1.85-1.88-.12-2.72-1.02,3.14.19,3.04-2.86,5.45-3.41Z"/>
  <path class="st0" d="M142.97,44.72c-.57,1.39-1.74.3-2.72.34-4.2.19-10.1,1.23-14.3.34-.04-.61.42-.72.34-1.36,5.76-.44,11.95.33,16.68.68Z"/>
  <path class="st0" d="M121.19,44.72c-3.54,1.78-9.02.16-13.28.68v-1.02c3.92.69,8.95-1.02,13.28.34Z"/>
  <path class="st0" d="M124.59,44.72c-.12,1.13-1.96.53-3.06.68.74-.75,1.99-1.19,3.06-.68Z"/>
  <path class="st0" d="M94.63,44.72c.96-.28.88.48,1.7.34-.22.29-1.59,1.07-1.7.34v-.68Z"/>
  <path class="st0" d="M220.59,47.78c-.11-.8-1.61-.2-1.36-1.36,1.17-.75,3.48-.22,4.77,0,.1.78-.98.38-1.02,1.02.64.67,2.52,1.31,3.4.68,1.36-.44-1.01-1.62,0-1.7,2.19-.41.61.98,1.36,1.7,2.58-.72,5.1-.08,6.13,1.7.06,4.22-4.04,5.19-8.51,6.47-.82.24-1.55.95-2.04,1.02-2.18.33-5.14.11-7.83,0-8.39-.34-18.47.91-23.83-1.02-.52-1.18-.3-3.1-.34-4.77,1.82-1.95,5.63.73,8.17-1.02-1.36-1.58-5.68-.06-7.15-.68.15-1.33.26-2.69.68-3.74,3.07-.6,7.62-.11,11.91,0,3.14-2.15,4.96,1.41,9.53.68.65,1.58,4.29,1.74,6.13,1.02h0ZM204.93,50.5c1.7-.08,4.11,1.08,5.11-.34-1.6-.51-4.07-1.18-5.11.34ZM220.59,50.84c.54-.95-1.47-.94-1.36-.34.46.11.65.49,1.36.34Z"/>
  <path class="st0" d="M154.55,46.42c.05-.13.72-.6,1.02-.34.67.59-1.51,1.64-1.02.34Z"/>
  <path class="st0" d="M157.27,46.08h.68v.68h-.68v-.68Z"/>
  <path class="st0" d="M172.59,46.08c1.08.97-.41,1.89-.34,3.06.07,1.23,1.03,2.19,1.02,3.4,0,2.16-2,4.52-.34,6.47-.89,1.27-.69,3.62-1.7,4.77-3.97-.45-1.1-7.75-2.72-10.56,1.58-1.62.4-4.38,1.36-6.13-.02-1.26,1.51-.98,2.72-1.02Z"/>
  <path d="M254.84,65.5c.04.11.08.22.13.32h.01c-.05-.1-.09-.21-.14-.32ZM254.38,62.76c0-.12,0-.23.01-.35-.01.05-.01.1-.01.15-.01.07-.01.13-.01.19,0,.56.06,1.12.16,1.65-.1-.52-.15-1.08-.15-1.64ZM253.15,67.05c.02-.06.05-.13.08-.19.06-.12.13-.23.21-.34.04-.05.08-.1.13-.15.04-.05.09-.09.14-.14.17-.14.36-.25.58-.32v-14.38c-.56,2.39-.27,5.63-2.04,6.81.94,1.72-.33,2.99-.68,4.42-.25,1.04.58,1,.33,2.05-1.53,1.34-1.36,5.91-.68,7.48,1.03.1,2.05.2,3.07.28v-2.64c-.24-.02-.46-.03-.67-.02-.08-.09-.15-.19-.22-.29-.03-.05-.06-.1-.09-.15-.04-.05-.07-.11-.09-.17-.05-.11-.09-.22-.13-.34-.01-.06-.03-.12-.05-.18-.07-.3-.09-.6-.07-.9,0-.06.01-.12.02-.18.03-.23.08-.45.16-.65Z"/>
  <path class="st0" d="M97.02,46.76c.38,1.54.48,3.38,2.38,3.4.56-.26.56-2.81,0-3.06,1.33-.97,3.79-.17,3.06,2.04-.76.37-1.71.56-2.38,1.02.22,1.15,1.16,1.57,2.38,1.7.52,2.89,3.66,3.15,5.45,4.77.34-1.48-2.71-2.51-2.38-5.1,1.79.43,2.07-.65,2.38-1.7,1.72.1,3.33.3,3.06,2.38-.5.64-2.23.04-2.72.68-.49,2.3,1.88,1.75,2.04,3.4-.89.36-2.07.43-2.38,1.36-1.85.15-2.8-.61-4.77-.34-.49-1.56-.77-3.31-2.72-3.4-1.47-.45-.42,1.62-1.7,1.36-.14-.66-1.32-.27-1.02-1.36h1.7c-.27-1.18.51-1.31.34-2.38-.31-1.24-1.01-.21-2.04-.34-.39-.4-.38-1.2-.34-2.04-3.82.22-3.07,4.75-2.38,7.83-4.53,1.8-3-5.97-2.04-8.17,1.8-.24,2.15-1.94,4.09-2.04Z"/>
  <path class="st0" d="M121.87,46.76c1.14.23,1.85.88,1.7,2.38.8,0,1-.59,2.04-.34.71-.31,1.04-1,1.02-2.04,3.74-.34,6.36.45,9.19,1.02.14,2.06-.95,2.91-3.06,2.72-1.08.97-.9,3.19-2.38,3.74-.45,1.92,1.35,1.6,1.36,3.06-1.43.72-4.15.17-6.13.34.14-1.73-1.12-2.06-2.04-2.73.33-1.04,2.03-.69,1.7-2.38-1.62-1.21-3.01.75-2.04,2.38-1.71.23-2.13-.82-2.38-2.04-.13-1.27,1.64-.63,1.7-1.7.43-1.68-.86-1.64-1.7-2.04-.88.26-1.18,1.09-1.02,2.38-1.06.03-1.63-.42-2.38-.68-.14-2.97,2.65-3.02,4.43-4.08ZM131.06,49.82c.71-.7,0-1.73-1.02-1.7-.07.97-.04,1.86,1.02,1.7ZM126.29,50.84c.42,1.4,1.95,1.68,3.06,2.38-.21-.81-.49-1.55-.34-2.72-.98.04-2.23-.19-2.72.34Z"/>
  <path class="st0" d="M108.93,47.44c-.56,1.15-1.46,1.94-3.06,2.04-.15-.65-.97-.62-.68-1.7.73-.63,2.49-.23,3.74-.34Z"/>
  <path class="st0" d="M116.42,47.78c-2.12.38-2.18,2.81-4.09,3.4-.76-.47-1-2.57-.34-3.4,2.4,1.08,2.51-.53,4.43,0Z"/>
  <path d="M243.4,47.78c-.44,1.36-2.88,1.18-3.75.34.17-1.14,3.06-.77,3.74-.34h0Z"/>
  <path d="M251.57,47.78c-.65,1.38-4.05,1.3-5.11.34.58-1.3,3.97-.63,5.11-.34h0Z"/>
  <path d="M130.04,48.12c1.02-.02,1.73,1,1.02,1.7-1.06.16-1.09-.73-1.02-1.7Z"/>
  <path class="st0" d="M167.14,48.8c-1.86,2.12-7.74.21-10.21,1.7,1.86,2.45,8.9-.27,10.89,2.04-.77,3.04-5,.73-7.49,1.7,1.36,2.63,7.31-1.25,7.15,3.06-1.77.73-4.15.85-6.47,1.02.95,1.55,4.03.96,5.79,1.7,2,5.08-1.44,12.53,1.36,17.36-2.48,4.69,1.41,13.69-2.04,18.38-3.8-.43-3.35-5.77-4.09-9.87-.16-.88-.82-1.55-1.02-2.38-.45-1.86-.32-4.14-.68-6.13-.32-1.77-1.1-3.49-1.36-5.11-.67-4.04-.18-5.58-2.04-8.17-.97-1.34-1.33-2.17-1.36-4.43,1.39-.83,1.91-.52,4.09-.68-.5-2.06-4.04-.25-5.1-1.02-.74-2.85-.03-7.03-.34-8.85-.06-.4.07-.6.34-.68,3.27-.12,8.77-.62,12.59.35ZM157.61,54.93c.7-.21,2.36.55,2.04-.68-.9,0-2-.19-2.04.68Z"/>
  <path class="st0" d="M141.61,50.5c-.82.85-.9.32-2.38.34-.52-2.54,2.47-2.43,2.38-.34Z"/>
  <path class="st0" d="M102.8,49.48c1.06-.03,1.63.42,2.38.68.03,1.28-1.33,1.16-2.38,1.36v-2.04Z"/>
  <path d="M210.04,50.16c-.99,1.42-3.41.26-5.11.34,1.03-1.52,3.51-.85,5.11-.34Z"/>
  <path d="M253.27,51.19c-.28,1.47-2.31,1.48-4.08,1.36-.55-.04-.77-.62-1.36-.68-1.98-.19-4.41.72-6.13-.34,2.93-2.93,8.94-1.22,11.58-.34h0Z"/>
  <path d="M219.23,50.5c-.11-.6,1.91-.6,1.36.34-.71.15-.9-.23-1.36-.34Z"/>
  <path d="M129.02,50.5c-.15,1.17.13,1.91.34,2.73-1.11-.7-2.64-.99-3.06-2.39.49-.53,1.74-.3,2.72-.34Z"/>
  <path d="M238.63,50.5c1.11-.09,1.64.4,1.7,1.36-1.11.09-1.63-.4-1.7-1.36h0Z"/>
  <path class="st0" d="M117.1,53.23c-1.38.13-2.37-.12-2.38-1.36.2-1.75,3.13-.8,2.38,1.36Z"/>
  <path class="st0" d="M138.21,51.53c.04.84.05,1.64-.34,2.04-1.42.05-2.1-.63-2.04-2.04.45-.49,1.93-.49,2.38,0Z"/>
  <path class="st0" d="M96,51.53h1.02c.29.4.45.91.34,1.7h-1.36v-1.7Z"/>
  <path class="st0" d="M134.8,53.91c.14.71-.23.9-.34,1.36-.32-.36-1.25-.11-1.02-1.02.3-.26.77-.37,1.36-.34Z"/>
  <path class="st0" d="M120.17,54.25c-.28,1.76.24,2.71,1.36,3.06-3.51,2.21-5.87-3.39-1.36-3.06Z"/>
  <path d="M159.65,54.25c.32,1.23-1.34.48-2.04.68.04-.87,1.14-.68,2.04-.68Z"/>
  <path class="st0" d="M184.85,55.61c1.21,2.64,1.83,6.37,1.36,9.87-.29,2.19-.8,5.7-.34,9.19.22,1.67.47,4.88.68,7.83.19,2.57,1.43,4.83.68,7.49.24,1.47,1.83,1.57,2.38,2.72-2.42,4.73-8.21,6.09-10.55,10.9.4,1.13,1.69-1.43,2.38,0,1.09.27.77,1.95,1.7,2.38,1.13-.11,2.09-.05,2.38.68v1.7c-3.04,1.06-8.28,1.63-10.21-.68v-4.08c-.24-1.37,1.44-.84,1.36-2.04.31-1.1-1.11-.48-1.36-1.02.57-.56.27-2,.34-3.06-.07-1.44,1.52-1.2,2.04-2.04-.71-.43-1.44-.83-2.04-1.36-.17-11.51-.47-26.49-.34-37.79.49-.19.83-.53,1.02-1.02,2.92.16,5.03.48,7.83,0,0,.33.42.26.68.34ZM180.76,97.48c2.29-.44,3.21-2.24,4.43-3.74-2.45-.88-3.46,2.06-4.43,3.74ZM177.02,100.21c1.81,1,3.11-1.1,3.4-2.72-1.42.62-2.83,1.25-3.4,2.72Z"/>
  <path class="st0" d="M237.27,55.61c-.56,1.49-3.18,2.72-4.77,2.04.96-1.16,3.64-2.15,4.77-2.04Z"/>
  <path class="st0" d="M123.57,56.29c.6.08.78.59.68,1.36h-1.7c.1-.69.68-.91,1.02-1.36Z"/>
  <path class="st0" d="M253.71,66.23c.17-.14.36-.25.58-.32v4.02c-.24-.02-.46-.03-.67-.02h-.01c-.66-.72-.82-1.94-.46-2.86.02-.06.05-.13.08-.19.06-.12.13-.23.21-.34.04-.05.08-.1.13-.15.04-.05.09-.09.14-.14Z"/>
  <path class="st0" d="M254.53,64.4c-.2-1.04-.22-2.22,0-3.27-.22,1.04-.21,2.22,0,3.27Z"/>
  <path class="st0" d="M254.98,65.82h-.01c-.05-.1-.09-.21-.13-.32.05.11.09.22.14.32Z"/>
  <path class="st0" d="M204.59,60.04c-2.2,1.18-4.69.03-7.83.34,1.71-.84,6.2-1.57,7.83-.34Z"/>
  <path class="st0" d="M218.21,60.04c-2.96.76-7.48.82-11.23.34-.06-.4.07-.6.34-.68,1.57-.76,4.44-.23,5.79.34,1.38-.75,3.8-.94,5.11,0Z"/>
  <path class="st0" d="M219.23,59.7h2.04c.32,1.23-1.34.48-2.04.68v-.68Z"/>
  <path d="M244.08,65.48c-1.38,1.29-3.67.58-5.79.68-4.35.2-9.5.69-12.26-.34,1.19-1.29,3.14-.58,4.77-.68,1.66-.1,3.46-.48,5.11-.34,1.9.17,5.35.44,8.17.68h0Z"/>
  <path class="st0" d="M172.25,67.19c-.49.5-2.23.5-2.72,0-.69-2.68,3.25-2.51,2.72,0Z"/>
  <path d="M249.19,66.16c-1.33.27-1.77.35-2.72-.34.61-.44,2.85-1.37,2.72.34h0Z"/>
  <path class="st0" d="M172.25,69.23c.18,1.4-1.84,1.73-2.72,1.02v-1.02c.5-.5,2.23-.5,2.72,0Z"/>
  <path class="st0" d="M170.55,75.01c.99-.5.99,1.52,0,1.02v-1.02Z"/>
  <path d="M254.29,78.2v1.69c-.71-.06-1.4-.19-2.04-.45.23-1.18,1.01-1.33,2.04-1.24Z"/>
  <path class="st0" d="M171.91,78.76c.33,1.37-2.03,1.37-1.7,0,1.05-.24.65-.24,1.7,0Z"/>
  <path d="M240.33,79.1c-1.19.66-5.63,1.42-6.81-.34,1.94-.82,5.02-.1,6.81.34Z"/>
  <path d="M251.57,79.1c-.22,1.51-3.49,1.35-3.4-.34,1.12-.56,2.59-.34,3.4.34h0Z"/>
  <path d="M243.06,78.76c1.07.07,2.5-.23,3.06.34-.51,1.16-2.92,1.3-3.06-.34h0Z"/>
  <path class="st0" d="M172.25,82.16c-.73.74-1.9.17-2.38-.34.02-1.03,2.78-1.06,2.38.34Z"/>
  <path d="M248.84,83.19c-.68.81-2.37.81-3.4.34.97-.78,2.11-.62,3.4-.34h0Z"/>
  <path class="st0" d="M192.68,83.19c.92.33,1.75.75,2.72,1.02,3.36-.87,7.11.54,10.21.68,4.61.21,9.59-.73,13.62-.34,1.12.11,1.64.14,2.38,1.02,2.47-1.54,6.92-.49,10.21,0-2.23,3.12-6.04,2.55-10.21,2.72-1.09.05-2.07.66-3.06.68-1.94.03-4.08-.74-6.13-.68-2.99.08-6.65.99-10.21.68-1.73-.15-5.39-1.25-8.51-.68-.91-1.13-1.07-3.02-1.02-5.11Z"/>
  <path class="st0" d="M172.59,86.25c-.94.83-4.23.25-3.06-1.02.93-.68,3.27-.5,3.06,1.02Z"/>
  <path class="st0" d="M172.59,88.63c.48,1.05.15,1.53-.34,2.38,2.19,2.32,1.04,5.2-.68,7.49-2.54-1.97-2.28-5.81-2.04-9.87.55-.51,2.51-.51,3.06,0Z"/>
  <path class="st0" d="M232.85,89.65c-.48.54-1.17.87-2.04,1.02-.46-1.53,1.37-1.65,2.04-1.02Z"/>
  <path class="st0" d="M209.36,91.01c-.74.97-2.03,1.38-3.4,1.7v-1.36c1.15-.1,1.95-.54,3.4-.34Z"/>
  <path class="st0" d="M228.76,92.38c-.24,1.22-1.6.48-2.04,0,.24-1.22,1.6-.48,2.04,0Z"/>
  <path d="M185.19,93.74c-1.22,1.51-2.14,3.31-4.43,3.74.96-1.68,1.98-4.62,4.43-3.74Z"/>
  <path class="st0" d="M196.08,98.16c-2.16.67-3,2.68-5.1,3.4-2.3-1.71,4.69-8.3,7.83-5.79.96-.19,2.7-1.36,3.75-.34.26,2.58-3.32,3.61-5.11,5.44-.96.99-1.48,1.89-2.04,3.06-1.51.53-2.95,1.13-3.4,2.72,1.91.88,3.2-1.79,4.09-3.06,1.71-.33,2.2-1.88,3.74-2.39.33-.69.69-1.35,1.02-2.04,1.05-.42,1.83-1.12,2.38-2.04,2.56.02,2.83-3.52,5.45-2.38.51,3.94-4.87,4.87-6.47,7.83,1.77,1.31,2.62-1.22,3.4-2.04,1.87-.17,2.12-1.96,3.75-2.38.79-1.14,1.54-2.32,3.06-2.72-.48,3.95,0,8.85-2.04,11.23.47.44.34,1.48.34,2.38-7.42,2.5-16.34.23-24.17,0,1-3.08,4.27-3.9,5.44-6.81,1.61-.77,3.12-1.64,3.74-3.4.06-.27.34-.34.34-.68h0ZM205.61,105.65c.61-1.67,2.85-1.69,3.06-3.74-2.34-.29-3.38,2.51-3.06,3.74ZM199.82,105.99c.36-.46,2.15-1.22,1.02-2.04-.36.46-2.15,1.22-1.02,2.04Z"/>
  <path class="st0" d="M192.34,95.1c-.49,2.17-2.67,4.29-5.11,3.4.63-2.03,2.82-4.14,5.11-3.4Z"/>
  <path class="st0" d="M167.14,97.48c.39,1.04-.02,2.78-1.7,2.72-.84-1.17-.22-3.24,1.7-2.72Z"/>
  <path d="M180.42,97.48c-.29,1.62-1.6,3.72-3.4,2.72.57-1.47,1.98-2.1,3.4-2.72Z"/>
  <path d="M253.02,101.23s.06-.09.09-.13c.14-.18.3-.34.5-.45.1-.07.2-.11.32-.14.05-.01.11-.03.17-.04.06,0,.13-.02.19-.02.03-.01.07-.01.11-.01.05,0,.09.01.14.02.08,0,.16,0,.24.02-.08-.02-.16-.03-.24-.03v-2.49c-.07.11-.16.21-.25.31-1.49,1.69-4.75,2.08-4.76,4.66-.01,1.23,1.42,1.92,2.04,3.4.9.25,1.82.38,2.72.38.08,0,.17,0,.25-.01v-2.4c-.09,0-.17,0-.25-.01-.27-.02-.5-.09-.7-.2-.1-.06-.19-.12-.27-.19-.08-.08-.16-.16-.22-.24-.15-.19-.26-.42-.32-.66-.02-.08-.04-.16-.05-.24h0c-.03-.21-.03-.41-.01-.61.03-.27.11-.53.22-.76.02-.06.05-.11.08-.16Z"/>
  <path class="st0" d="M185.53,100.21c.5.3,1.08.51,1.02,1.36-.53.41-1.33,1.09-2.04.34-.36-1.27.72-1.1,1.02-1.7Z"/>
  <path class="st0" d="M254.78,100.48c-.08-.01-.16-.02-.24-.02v3.84c-.09,0-.17,0-.25-.01-.27,0-.5-.08-.7-.2-.1-.06-.19-.12-.27-.19-.08-.08-.16-.16-.22-.24-.15-.19-.26-.42-.32-.66-.02-.08-.04-.16-.05-.24h0c-.03-.21-.03-.41-.01-.61.02-.27.1-.53.22-.76.02-.06.05-.11.08-.16.02-.05.06-.09.09-.13.13-.19.3-.34.5-.45.1-.07.2-.11.32-.14.05-.01.11-.03.17-.04.06,0,.13-.02.19-.02.03-.01.07-.01.11-.01.05,0,.09,0,.14.01.08,0,.16.01.24.03Z"/>
  <path class="st0" d="M167.48,101.57c.44,1.56,2.99,5.9-.34,6.13-1.05-1.17-.1-1.48,0-3.06-.45-.57-1.51-.53-2.04-1.02.25-1.22.67-2.27,2.38-2.04Z"/>
  <path d="M225.36,101.57c.98.64.79,2.98.34,4.09-1.16.56-2.93.4-3.75-.34.27-2.11,1.14-3.63,3.4-3.75Z"/>
  <path d="M208.68,101.91c-.22,2.05-2.46,2.08-3.06,3.75-.31-1.23.73-4.03,3.06-3.75Z"/>
  <path d="M200.85,103.95c1.13.83-.66,1.59-1.02,2.04-1.13-.83.66-1.58,1.02-2.04Z"/>
  <path class="st0" d="M173.27,107.01c-.02,1.57.15,3.33-.34,4.43-1.4.15-2.18-.32-3.06-.68-.08-1.44.52-2.2.68-3.4,1.23-.16,1.65-.87,2.72-.34Z"/>
  <path class="st0" d="M181.1,111.78c1.68-.32,2.36.36,2.04,2.04-1.48.12-1.78-.94-2.04-2.04Z"/>
  <path class="st0" d="M230.46,122.67c.88-1.17.82,1.75,0,0Z"/>
  <path class="st0" d="M207.65,173.06c.85.63,2.57.39,2.72,1.7-1.67.2-2.51-.44-2.72-1.7Z"/>
  <path class="st0" d="M213.1,176.46c2.49-.49,3.77.92,5.79,1.7,3.19,1.24,6.09,1.54,8.85,3.06-4.05,2.41-8.72-3.01-13.96-3.4,0-.68-.93-.43-.68-1.36Z"/>
  <path class="st0" d="M228.76,181.57c3.83-.31,6,1.03,8.51,2.04,1.56.19,3.72-1.23,4.08.68-4.05.28-10.76.33-12.6-2.72h0Z"/>
  <path class="st0" d="M243.4,184.63c1.12.01,2.41-.14,2.38,1.02-1.12-.01-2.41.14-2.38-1.02h0Z"/>
  <path class="st0" d="M254.54,186.19v.93c-.08.01-.17,0-.25,0-1.98-.05-3.99-.4-5.1-.79.03-.07.07-.13.12-.19.02-.03.04-.06.07-.09s.06-.05.09-.07c1.02-.83,3.75-.19,4.47.35h.01c.11-.02.22-.05.34-.08.08-.02.16-.04.25-.06Z"/>
  <path class="st0" d="M170.55,14.76c-.98,2.76-3.71,3.78-5.45,5.79,1.59-1.96,2.21-6.59,5.45-5.79Z"/>
  <path d="M254.29,137.58c-.55-1.39-1.16-2.72-1.7-4.01-3.41-1.57-5.47-5.35-8.85-7.15-.79-.42-1.79-.3-2.73-.68-.67-.28-1.35-1.1-2.04-1.36-1.29-.5-3.77-.07-4.43-2.05,1.04-1.28,3.22.1,5.45-.34.72-.42,1.33-.94,2.04-1.36,3.97.51,8.4-.06,12.26.54v-2.24c-3.92-.53-8.71.66-10.9-2.04,2.61.29,4.6-.88,5.79.68,1.41-.66,3.33-.41,5.11-.23v-6.26c-1.78-.07-3.69.54-5.43.36-.6-.07-1.12-.67-1.71-.69-3.63-.08-7.08.3-10.55,0-6.66-.57-14.34-1.71-21.79-1.02-.39-.62-.88-1.15-1.36-1.7.85-4.54.62-8.34,1.36-12.6,3.3-.91,9.99-.12,15.32-.34,4.61-.18,8.78.45,13.28.34,3.64-.09,7.24-.28,10.88-.41v-12.13c-.98.13-1.91.25-2.72.3.31.71,1.92.12,2.04,1.02-.85,1.9-1.89,6.37-4.08,4.76-1.11-1.35,1.28-1.48,1.36-2.72-.2-1.69-2.1-.58-3.41-.68-1.56-.13-4.63-1.09-6.8.34-1.07.55,1.35.42.68,1.7-1.04,1.86-2.99.83-4.43,1.02-1.58-.1-.51,2.45-2.04,2.38-.19-.49-.53-.83-1.02-1.02.59-1.1,2.14-1.26,2.04-3.06,1.99.24,2.39.16,3.75-.68-.25-1.46-2.46-.94-4.08-1.02-1.17-2.12-3.05-3.53-3.75-6.13-13.14-2.52-25.89-.97-38.82-2.38.42-3.26,2-7.65,1.02-10.21,11.24-.88,20.97.43,31.32-.68-3.66-1.24-8.01-.55-12.25-.69-3.79-.11-8.34-.62-12.6-.68-2.29-.03-4.85,1.29-6.47-.68.47-2.48,2.96-.99,4.43-1.02,2.07-.03,4.33-.68,6.47-.68,1.84,0,3.73,1.08,5.44,1.02,1.29-.04,2.53-.69,3.75-.68.7.01,1.32.61,2.04.68,2.27.24,5.27-.69,8.17-.68,1.81.01,3.76.72,5.45.68.98-.02,1.73-.56,2.72-.68,1.37-.17,2.62.4,4.09.34.85-.04,1.85-.69,2.72-.68,2.33.04,4.49,1.66,6.47,0,1.3.69,3.12.89,4.76.34-.57-3.13-4.99-.33-6.81-2.04-1,.36-2.25.46-3.06,1.02-4.36-1.79-10.96.38-16.68-1.02,4.61-3.18,12.61.73,16.68-1.36,2.98,1.11,6.77.59,9.87,0,.34-1.7,1.02-3.07,1.36-4.77-.54-1.33-3.09-1.16-4.42-.34-3.58-.62-6.53.64-10.55,0-.69-3.02-1.01-5.34-1.71-8.85,6.45-1.35,12.54.46,18.39-1.02-4.13-1.56-9.78-.25-14.98-.68-2.76-.24-8.16-.15-10.56-1.37-.6.2-2-.41-2.04.34-1.37-1.23-3.86-1.35-5.44-2.38-4.23.77-9.25-1.4-13.28.68-3.24-.73-8.85-1.56-11.92-.34-1.79-.93-2.76-2.67-2.72-5.44-.25-1.28,1.3-.75,1.36-1.71.19-4.27-1.75-6.41-5.44-6.81-.51-1.07-.31-2.56.34-3.4,2.62.06,7.82,1.27,9.87-1.02-.43-1.84-3.27-1.27-5.45-1.36-1.48-.9-2.39-2.38-2.72-4.43,6.51-1.38,18.61-1.34,25.87-1.36,4.11-.01,10.23-1.11,13.95,0,.84.25,2.56.99,2.4,2.38-.87.54-3.55.54-4.42,0-2.57,2.99-9.22,1.91-12.26,4.43.46,1.96,4.73,2.43,5.45.34,1.83.83,3.38-.78,5.1-1.02,1.41-.19,2.76.47,4.09.34,1.28-.12,2.2-1.61,3.4-.68,1.21-.27.4-2.55,2.04-2.38,1.28.76,1.53,1.36.34,2.38,3.31.63,6.41.92,9.88.34,1.04-.92-1.19-1.66,0-2.72,1.32-.08,1.76.73,2.72,1.02-.32,1.14-1.55.98-.34,2.04,2.17.18,1.21-1.47,1.7-2.38,1.6-.13,2.39-2.01,3.74-2.29v-5.86c-3.98-.86-8.47.23-12.93-.03-3.73-.21-7.91-1.76-11.57,0-2.15-.34-5.3-.92-8.51-.68-1.98.15-2.73.33-4.77,0-5.38-.87-9.95.43-15.66.34-1.43.15-1.07,2.11-2.38,2.38-1.44-.04-1.13-1.82-1.36-3.06-3.02.88-6.86.23-10.56,1.02.8,5.73-.25,13.11,1.02,19.75.62.86,3.16-.21,3.41,1.02-.32,2.37-2.16.72-3.75.68.01,1.43-.58,4.15,0,5.79-1.07,1.08-1.77,2.53-3.06,3.4-9.58-.4-20.39-.29-29.62,0-1.15-1.02-1.39-4.09-.34-5.45-2.16-2.78,1.24-8.84-1.02-10.55-2.52.66-1.04,4.24-1.7,6.13-1.53.16-1.52-1.21-2.72-1.37-2.21,1.11-5.22.38-7.83.69-.73.08-1.69.68-2.39.68-2.27,0-5.32-1.6-6.46,1.36.33,2.89,4.05.42,5.44,2.38,4.53-.21,9.94-.15,13.96,0,.4,4.25-7.78,2.05-10.55,2.04-5.08,0-13.55-.24-19.07,0-1.21.06-2.28.66-3.4.69-.76.01-1.21-.58-2.04-.69-1.86-.23-4.19,1.14-6.13-.34-3.06,1.59-6.45.66-9.53.69-1.25.01-2.21.48-3.41.34-.72-.09-1.39-.63-2.04-.69-4.82-.38-9.39.68-14.29.69-1.66.18-1.6-1.36-2.73-1.71-.4.96-1.58,1.14-2.38,1.71-.44-.48-1.61-.21-2.04-.69-2.89,1.62-6.2.08-9.54,0-9.43-.23-19.75,1.22-27.91-.34-1.14.87-3.9,1.21-3.4-1.36,1.69-.55,1.08,1.19,2.38,1.02,1.59.23,1.49-1.22,2.38-1.7,1.52.87,3.35-.08,5.11,0,.74.04,1.21.55,2.04.69,1.99.32,4.19-.39,6.47-.35,1.92.04,3.53.91,5.45.69.51-.07,1.4-.66,2.04-.69,2.48-.09,5.28.88,7.49-.34,1.53-.29,1.7.8,2.72,1.02,1.12-.46,2.28-.89,3.4-1.36,1.45.14,2.59.6,3.41,1.36,2.49-1.86,6.53-.45,10.55-.34,1.19-.17.83-1.9,1.7-2.38,2.33.01,3.07.28,4.77.34.51.74.38,2.12,1.36,2.38,2.23-1.05,4.79-1.79,6.13-3.74.68.14,2.52.84,3.06,0-.01-2.75-3.21-.57-4.77-1.36-.87.15-1.56.48-2.04,1.02-2.69-.88-7.5-2.26-10.21,0-2.3-1.08-6.93-1.69-11.23-1.36-.74.05-1.37.69-2.05.68-.64,0-1.4-.62-2.04-.68-1.75-.18-4.87.56-6.47,1.02-.96.27-1.97.16-2.38.34-.56.24-.3,1.68-1.36,1.02-1.6.12-.84-2.12-2.73-1.7-1.04.27-1.09.68-.68,1.7-1.22-.14-1.21-1.51-2.38-1.7-1.18-.27-1.31.51-2.38.34-7.06-2.49-15.79.22-23.15-1.02-2.17.31-4.29,1.15-6.81,1.02-.85-.05-1.54-.65-2.38-.68-1.26-.05-2.79.46-4.09.34-3.64-.36-9.73-2.05-9.19,4.08,6.48,1.68,16.96-.5,24.17,1.7-3.42,1.23-7.95.69-12.25.69H6.13c.45-2.74-1.18-6.33-.68-9.88.28-2.03,1.82-3.42,1.02-5.44,4.33-.19,7.57,1.31,11.23.34,1.05-.44,1.52.87,2.39,1.02.58.09,1.2.1,1.85.05h.01c.16,0,.31-.02.47-.04h.05c2.11-.24,4.42-.93,6.47-1.03,3.64-.18,7.47,1.33,10.55-.34,1.04-.9-1.38-1.15-.34-2.04,5.75.09,13.73-.17,21.11.34-.32,1.5-3.71-.08-4.09,1.36,2.55,1.34,7.02,1.14,9.53,0-.03.48-.05.96.34,1.02,2.33-.94,3.12-.94,5.45,0,1.85-1.12,3.75-.24,6.13,0,2.11.21,4.14-.71,6.12-.68,1.08.01,2.29.72,3.41.68,1.05-.04,1.99-.92,3.06-1.02.53-.05,1.33.64,2.04.68.84.05,1.72-.37,2.39-.34,1.66.07,3.63,1.18,5.1-.34-4.45-1.69-8.67.08-13.27-1.02.64-1.52,1.94-.3,3.06-.34,3.64-.15,8.25-.95,12.25-.68,1.55.1,3.15,1.09,4.43.34.96.53-.77,1.82.34,2.38,1.52.72,2.6-1.23,2.04-2.04,12.72-1.63,29.19.18,41.19-1.02-.04-.61.42-.72.34-1.36-.73-2.07-3.07-1-4.42-1.03-4.4-.06-11.08.68-16.68.69-6.85.01-14.26-.52-21.11-.34-.83.02-1.64.63-2.38.68-2.55.18-5.8-.96-8.85-.68-.86.07-1.53.7-2.39.68-2.21-.06-3.96-.53-6.81-.34-5.43.35-11.98-.88-17.02-.34-2.29.24-4.94.74-7.83.68-5.03-.1-10.3-.79-15.32-.68-4.42.09-8.76,1.57-12.93,0-9.2,2.01-18.12.04-27.92,1.02-.46-.8-.01-3.03.68-3.75,8.87-.39,18.5,1.27,25.2-.68,1,.43,1.45.86,2.38,1.02,1.71.3,3.31-.61,5.1-.68,2.17-.07,4.57.81,6.81.68,1.29-.07,2.52-.66,3.75-.68,1.94-.03,3.96.88,5.79-.34,2.63,1.13,6.83-.23,9.19,1.7,1.24,0,1.3-1.19,2.04-1.7,2.42.51,4.11-.91,6.47.34,1.99-1.38,4.39-.33,6.8-1.36,2.13.52,4.55,1.76,6.81,1.7,1.16-.03,2.22-.81,3.41-1.02.66-.11,1.42.4,2.38.34.66-.04,1.42-.7,2.04-.68.96.03,2.1.73,3.07.68.83-.04,1.55-.68,2.38-.68,4.24,0,8.17,1.33,12.25.68,2.16-.34,4.8-1.37,7.15.34,4.3-.96,8.64.19,13.96,0,3.1-.1,5.88.3,8.85.34,2.96.04,6.25-1.61,8.85,0-.46,3.1-.41,6.45,1.02,8.51,3.12-1.99.8-6.49,1.37-9.19.87-4.2,8.06-5.86,12.59-7.14.34,1.02.7,2.02,1.02,3.06,1.04,1,1.62-2.1,3.07-.68-.49,1.55-1.65,2.44-3.07,3.06v-2.04c-1.94,1-3.16,2.73-3.74,5.1.9.99,1.11-2.03,2.38-.68-1.17,3.48-4.39,4.91-5.1,8.85,1.16-.76,2.17-1.68,3.06-2.72,1.23-.18-.15,1.56,1.02,2.04,3.53-3.14,6.51-6.98,9.53-10.89.91-1.18,1.58-3.46,3.75-3.07,1.04,1.56-1.79,1.72-1.36,3.75-3,2.79-5.79,5.79-7.49,9.87,1.92-.29,3.63-2.83,5.1-4.77.77-1.01,1.62-2.1,2.39-3.06.8-1.01,1.62-1.79,2.38-2.72.85-1.05,1.08-3.44,3.06-3.07.73,2.17-1.67,3.54-2.72,5.11-1.11,1.65-1.94,3.57-3.06,5.1,2.07.64,2.38-3.22,4.42-3.74.78-2.86,2.98-4.29,4.77-6.13,1.03-.33,2.03-.69,3.06-1.02-1.27-1.67-5.22-.52-6.81-1.02.11-2.12,3.73-.79,6.13-1.02,1.5-.14,4.03-.63,5.45.34,1.05.25.65-.94,1.7-.68,1.55.48,2.96,1.12,5.1,1.02,1.15.24,1.12-.7,1.71-1.02,7.79,3.85,17.98.8,27.23,1.36,1.04.06,2.03.64,3.06.68,1.92.07,4.09-.98,5.79.34,1.16-.54,2.48-.92,3.75-1.36,1.5,1.13,3.21,1.12,5.1.34,1.88.9,4.29,1.34,6.81,1.28v-2.77c-.22.28-.92.07-1.36.13v-.68h1.36v-2.23c-1.91.21-3.79.54-5.42.19-1.19-.26-2.1-.94-3.06-1.7-2.34,1.42-6.42,1.83-10.22,1.7-3.18-.11-6.66-1.07-10.21-1.02-1.19.01-2.5.6-3.74.68-10.29.66-20.99-.38-30.3-.34-2.06.01-4.19.78-6.13.68-1.35-.07-2.44-.72-3.74-.68-1.14.03-2.33.64-3.41.68-1.16.05-2.54-.78-3.74-.68-2.02.16-3.53.83-5.45-.34-2.14,3.09-5.05,1.71-9.19,2.38-2.03.33-4.8,1.53-6.81,2.39-4.03,1.71-5.69,4.76-9.87,2.72-.86.5-1.83.64-2.73.68-10.42.53-23.92-.52-35.4,0-4.87.22-8.87-.56-12.59-.34-1.76.1-3.44.76-5.11.68-1.36-.06-2.54-.83-3.75-1.02-7.47,2.04-15.66.32-23.14.34-2.07,0-4.26.6-6.47.68-5.22.19-10.42-.67-14.98.34-1.72-2.11-1.72-5.27-3.4-7.15-1.68-1.86-5.72-3.17-9.19-2.38-3.06.69-3.94,5.42-7.83,6.13-1.5.27-3.16-.54-4.43-.34-3.83.59-5.61,5.4-10.21,3.74C1.88,13.22,1.43,16.86.02,19.53c2.4,7.94-1.54,20.77,4.77,25.87,6.82-1.16,13.86,1.03,21.1.69,5.27-.26,10.56-1.28,16-1.03,1.59.08,3.17.58,4.77.69,4.08.27,8.04-.89,11.92-.69,1.34.08,2.77.69,4.08.69.98,0,2.07-.62,3.06-.69,4.05-.27,7.95,0,10.56,1.03,1.19-1.19,4.39-.38,5.78-1.37,3.15,1.8,7.77-1.22,10.9.69-1.02,3.25-3.8,3.39-4.43,6.46-.71,3.49.54,7.91,3.06,9.19,3.56,1.81,12.94.2,18.73,0,9.01-.31,20.49.4,29.27,0,3.19-.14,5.91-.64,8.17.34,1.1,3.38,4.18,6.25,4.77,10.22.25,1.66-.23,3.43,0,5.1.13.96.79,2.09,1.01,3.05.75,3.22.45,6.24,1.02,8.85.85,3.92,1.52,7.43,2.38,10.56,1.11,4.07,2.01,6.76,3.4,9.53,2.9.62,3.29,3.29,5.45,4.77,1.88,1.28,4.33,1.08,6.81,1.7,2.74.68,6.43,2.1,8.51,3.4,10.75,6.69,7.32,21.95,8.85,37.79,2.61,1.24,2.73,4.67,4.09,6.81.66,1.04,1.93,1.92,2.72,3.06,2.62,3.77,4.37,5.34,7.83,8.17,1.81,1.48,3.6,3.38,5.45,4.42,1.46.83,3.56,1.25,5.44,2.05,3.99,1.68,8.04,3.51,12.94,4.08.83.65,2.01.94,2.72,1.7,7.43.22,14.92,3.2,22.47,3.41.22.01.44.01.67,0v-2.95c-1.98-.05-3.99-.4-5.1-.79h-.01c.03-.07.08-.14.13-.19.02-.03.04-.06.07-.09.02-.03.06-.05.09-.07,1.02-.83,3.75-.19,4.47.35h.01c.11-.02.22-.05.34-.08v-2.52c-2.2-.07-4.41-.22-6.47-.47-1.52-.18-2.94-1.11-4.43-1.36-1.07-.17-2.26.13-3.4,0-2.28-.24-4.91-1.03-7.15-1.7-6.29-1.86-13.35-4.9-18.72-6.47-1.9-1.39-3.41-2.71-5.45-4.08-2.26-1.52-4.28-3.61-6.13-7.15-1.85-3.55-2.14-5.93-2.72-10.55-.31-2.43-.95-5.96-.34-9.53.13-.79.7-1.58,1.02-2.73.25-.9.07-2.25.34-3.06.2-.6,1.08-1.02,1.36-1.7.35-.87.07-1.86.34-2.39.46-.91,1.47-1.83,2.04-2.72.75-1.18,1.19-2.5,1.7-3.06.51-.55,1.64-.75,2.39-1.36.8-.65,1.08-1.65,1.7-2.05,5.94-3.84,15.03-3.95,23.83-3.4.08,1.56-2.93.03-3.41,1.02-1.44,1.27-3.73,1-3.74,3.06-.01,2.79,6.69,3.75,8.85,4.77.8.38,1.93,1.33,3.06,2.04,2.14,1.35,5.85,3.4,7.15,5.11.74.96,1.01,2.56,1.7,3.74.88,1.49,2.19,2.36,2.39,4.09.15,1.36-.16,2.75,0,4.08.69,5.94.37,11.31-3.07,16-1.29,1.78-3.45,3.48-5.44,5.11-2.07,1.68-4.38,3.54-6.13,4.43-1.91.97-4.8.51-5.44,3.4.72,1.69,3.65,1.86,5.44,1.7,2.12-.19,5.41-1.79,7.49-3.06,2.57-1.58,5.83-4.55,8.85-7.83.8-.87,1.6-1.76,2.39-2.7v-3.49c-.52.67-1.09,1.35-1.7,2.1-1.91,2.35-3.46,3.56-5.79,5.79-2.43,2.33-3.93,4.8-8.17,5.45-1.08-.03.67-2.6,2.04-2.39,2.91-2.32,5.21-4.63,7.83-8.17,1.4-1.89,3.51-3.97,4.43-5.78.71-1.4.93-2.99,1.36-4.53.08-.27.16-.54.25-.8v-14.86c-.08-.22-.16-.44-.25-.65ZM239.39,19.42c.05-.07.11-.14.18-.21.05-.06.1-.11.15-.15.05-.06.1-.11.16-.15.06-.06.12-.11.18-.15.12-.11.25-.2.39-.28h.01c.07-.05.14-.09.22-.13.14-.09.29-.16.45-.22.08-.04.16-.07.24-.1.09-.03.17-.06.26-.08.08-.03.16-.05.24-.06.09-.02.19-.04.28-.05.07-.02.15-.02.23-.03.21-.02.42-.01.63.01.09.01.18.03.27.05.26.06.53.16.79.3.01.35-.04.63-.13.86-.04.1-.09.19-.15.27-.07.08-.14.16-.22.22s-.16.1-.25.14c-.46.2-1.08.19-1.74.12-.26-.03-.52-.06-.78-.1-.26-.03-.52-.07-.77-.1-.25-.03-.49-.05-.72-.05h-.01s.06-.08.09-.11ZM234.88,13.4h.01c.22-.03.4-.01.55.04.1.03.18.09.24.15s.11.14.14.22c.11.3.01.69-.26.95-.02,0-.03,0-.04-.01-.06-.01-.12-.02-.16-.05-.09-.03-.17-.08-.23-.14-.04-.03-.07-.06-.1-.11-.14-.2-.19-.49-.16-.86,0-.06,0-.12.01-.19ZM229.44,11.7c.74-.07,1.08.27,1.02,1.02h-1.02v-1.02ZM190.97,13.4h1.7c.02.06.03.12.05.17.01.1.01.18,0,.25-.02.07-.05.12-.09.16-.03.03-.06.05-.09.06-.03.02-.07.03-.11.04-.2.05-.48.03-.75,0-.21-.02-.41-.03-.58-.01-.05-.01-.09,0-.13.01v-.68ZM80.67,20.21h.01c1.28-.26,1.62.41,2.72.34-.01.03-.03.06-.06.08-.03.03-.07.06-.12.09-.15.08-.38.15-.64.2h-.03c-.12.03-.24.05-.38.06h-.04c-.21.01-.43.01-.63-.01-.11,0-.22-.03-.31-.05-.09-.03-.17-.06-.24-.1-.08-.04-.15-.09-.2-.15-.1-.11-.14-.26-.08-.46ZM65.34,20.73c.08-.07.16-.13.25-.18.08-.05.17-.09.26-.13.03-.01.05-.02.08-.03.07-.03.14-.05.2-.06.01-.01.02-.01.03-.01.03-.01.06-.02.09-.03.08-.02.16-.03.24-.05h.01c.09-.02.19-.03.29-.04.09-.01.19-.02.29-.02.34-.02.7-.01,1.04.03.17,0,.34.03.5.06.15.02.31.05.45.09.17.03.33.07.48.12.08.02.16.04.23.07-.01.05-.02.1-.03.15-.03.09-.07.18-.13.26-.03.04-.06.07-.1.11-.05.05-.11.1-.17.15-.06.04-.13.08-.2.12-.04.02-.08.03-.12.05-.03.02-.07.03-.12.05-.08.03-.16.05-.25.08-.18.04-.38.08-.59.1-.1.01-.2.02-.31.02-1.03.05-2.17-.15-2.74-.41h-.01c.06-.2.18-.37.33-.5ZM35.74,20.55c-1.12.5-3.1.66-4.08.34.35-1.27,3.16-.61,4.08-.34ZM29.6,20.55c-1.88,1.04-3.72.09-6.46.34,1.31-.95,4.74-.88,6.46-.34ZM166.8,13.48c.03-.29.07-.58,0-.76.55-.1.59.32,1.02.34-.09.25-.22.46-.34.68-.12.22-.25.43-.34.68h-.05c-.13,0-.21-.04-.26-.13-.12-.16-.08-.49-.03-.81ZM169.36,16.73c-.15.19-.33.37-.51.54-.15.14-.3.28-.46.42-.15.14-.31.27-.47.4-.97.79-2,1.51-2.82,2.46.09-.11.18-.23.26-.36.07-.1.13-.2.19-.31.15-.24.29-.5.42-.78.07-.13.13-.27.2-.41.09-.18.17-.36.26-.55.07-.16.15-.33.23-.49.04-.08.08-.16.12-.24.08-.16.16-.32.25-.48.08-.15.17-.31.26-.45.13-.22.27-.43.42-.62.1-.14.21-.26.32-.36l.18-.18c.07-.06.13-.11.2-.16.05-.04.09-.08.14-.1.06-.05.13-.09.19-.12.06-.03.12-.06.18-.08.05-.03.1-.05.15-.06.05-.02.11-.04.17-.05.04-.02.08-.03.12-.03.08-.02.15-.03.23-.04.29-.03.61-.01.95.08-.23.64-.56,1.19-.94,1.68-.08.1-.16.19-.24.29ZM230.12,5.57c-.25,1.12-3.74.81-4.42.68-3.14-.62,3.03-.89,4.42-.68ZM223.65,5.57c-1.43,2.02-6.72.82-8.85.34,2.44-.74,5.6-.95,8.85-.34ZM181.78,6.59c-.97,2.12-5.24.48-7.15.34,2-.33,5.24-1.02,7.15-.34ZM173.25,11.38c-.01.07-.03.13-.05.19h0s-.01.02-.01.03c-.04.1-.08.19-.13.27-.01,0-.01.01-.01.01-.08.14-.19.26-.31.37-.16.14-.34.26-.51.39-.06.04-.11.08-.17.12-.06.04-.12.08-.18.13-.11.09-.22.18-.31.28-.06.06-.11.12-.15.19-.04.05-.07.11-.1.17-.05.06-.08.13-.1.2-.05-.05-.09-.09-.12-.14-.07-.1-.11-.19-.13-.29-.19-.83,1.36-1.56,1.28-2.62h1.02c.03.27.02.5-.02.7ZM168.33,7.03c.06-.07.12-.14.18-.2.37-.35.83-.46,1.36-.46.07,0,.15,0,.24.01.08,0,.17.01.25.02.11,0,.23.02.35.04.04,0,.08,0,.12.01.02.01.03.01.05.01.23.03.48.07.73.1.19.02.39.05.58.06.19.02.38.03.57.03h.02c.27,0,.55-.02.83-.06-1.1,1.13-3.87.99-5.44.68h-.01c.05-.09.11-.17.17-.24ZM16.64,10.4c.19-.15.4-.27.64-.37.13-.05.26-.1.39-.14.14-.05.28-.08.43-.12.15-.03.3-.07.45-.09.31-.06.63-.11.96-.16.29-.05.58-.1.88-.15.21-.04.42-.08.63-.13.86-.18,1.71-.45,2.46-.95.46-.3.84-.64,1.18-1,.23-.24.44-.49.64-.73.3-.37.57-.74.86-1.08.1-.12.19-.23.29-.33.17-.19.34-.36.53-.51.06-.05.13-.1.19-.15.07-.05.15-.11.23-.15.1-.06.2-.12.31-.17.03-.01.05-.03.08-.04.06-.02.12-.05.19-.07.02,0,.03-.01.05-.01.08-.04.17-.06.26-.08.1-.03.2-.05.31-.06.02,0,.03,0,.05,0h.02c.14-.02.31-.03.47-.03h.14c.17,0,.34.02.5.04.13.02.27.04.4.08.03,0,.05.01.08.02h.03c.16.04.31.09.47.15.16.06.32.13.48.21.31.16.61.35.9.58.44.33.85.75,1.22,1.24.13.16.25.33.36.51.25.35.47.74.67,1.16.42.82.76,1.77,1.01,2.81h-.01c-6.69.6-12.02.53-19.04,0,.09-.1.18-.19.29-.27ZM15.66,20.21c1.06.1,3.25-.61,3.4.68-3.47-.11-6.69.82-9.87,0,1.16-1.43,4.59-.87,6.47-.68ZM6.46,19.87c1.07-.06,1.13.9,2.38.68-.65.48-1.48.79-2.38,1.02-.03-.85-.63-1.06,0-1.7ZM24.51,39.61c-5.04.78-12.3,1.04-17.7.34v-1.02c5.74-.44,12.81-.57,17.35.34h.01c1.54-.27,2.84-1.21,4.08,0-.93,1.51-2.14.67-3.74.34ZM30.89,39.59s-.06.09-.1.12c-.07.07-.16.12-.25.16-.05.02-.1.03-.16.05-.05.01-.1.02-.16.03-.04.01-.08.01-.11.01-.03,0-.07,0-.11,0-.06,0-.11,0-.17,0-.05,0-.1-.01-.15-.02-.08-.01-.16-.03-.24-.05-.02-.01-.04-.01-.06-.02-.06-.03-.12-.05-.16-.07-.07-.03-.14-.07-.19-.11-.04-.03-.07-.05-.09-.08.01-.12.05-.2.11-.26.03-.03.05-.05.09-.06.03-.02.07-.03.11-.04.05-.01.1-.02.15-.02.47-.04,1.18.17,1.57.04h.01c0,.13-.03.23-.09.32ZM32.68,39.61c.34-.79,1.56-.7,2.72-.68.18,1.61-1.93.93-2.72.68ZM40.67,39.59c-.06.02-.12.03-.2.03-.23.02-.52-.02-.77-.02-.07,0-.14,0-.21.01h-.01s.02-.07.03-.1c0-.01.01-.01.01-.02-.01-.03,0-.05.02-.08,0-.03.01-.05.04-.08,0-.01.01-.03.02-.04.02-.05.05-.09.09-.12.03-.03.05-.05.07-.06.03-.02.06-.04.08-.06.05-.03.11-.05.17-.07,0-.01.01-.01.03-.01.06-.02.13-.03.21-.04.07-.01.15-.02.24-.02.11,0,.23.01.36.02.14.42.04.6-.18.66ZM64.24,39.2c-.07.15-.15.28-.24.38-.04.04-.08.08-.12.1-.04.04-.08.06-.12.08-.04.03-.08.05-.12.06-.05.02-.09.04-.14.05-.05.02-.1.03-.16.03-.04,0-.08,0-.12,0-.04.01-.08.01-.11.01-.12,0-.25-.01-.37-.03-.13-.01-.26-.04-.4-.07-.1-.01-.2-.03-.3-.06-.39-.08-.77-.17-1.11-.15-.18.01-.36.03-.55.06-.19.02-.38.06-.57.09-.29.05-.59.11-.89.17-.31.06-.63.13-.94.18l-.15.03c-.34.05-.67.1-1,.12-.06.01-.11.01-.17.02-.15,0-.3.02-.46.02-.13,0-.25,0-.38-.01-.77-.04-1.37-.67-2.04-.68-1.51-.01-3.36.69-5.11,0-.29.01-.44-.02-.5-.08-.01-.01-.02-.02-.01-.03-.03-.03,0-.08.01-.14.01-.03.02-.06.04-.09.02-.05.05-.11.08-.18,0-.01,0-.02.01-.04.01-.04.02-.08.03-.12h.01c3.46-.48,11.48-.62,15.99,0-.03.09-.06.18-.08.26,0,0-.01,0-.01.01ZM66.04,39.61c2.9-1.39,7.87-.46,10.89-.34-2.58,2.78-6.43.62-10.89.34ZM80.2,39.44c-.1.1-.24.17-.39.23-.06.02-.14.04-.21.06-.04.01-.08.02-.12.03-.12.03-.24.05-.37.08-.08,0-.16.03-.24.05-.08.02-.16.04-.24.06.05-.74.86-.73,1.7-.68-.01.03-.03.06-.06.09-.02.03-.05.06-.07.08ZM83.06,40.29c-.9.1-1.12-.47-1.02-1.36h1.36c.14.71-.23.9-.34,1.36ZM85.44,39.61c.06-.12.13-.22.21-.29.06-.06.12-.11.19-.15.07-.04.14-.08.22-.11.07-.02.15-.04.23-.05.47-.07,1.03.08,1.53.26-.04.04-.08.08-.12.13-.54.45-1.69.79-2.26.21ZM138.36,39.02c.04-.06.09-.11.12-.18.02-.04.03-.07.04-.11.01-.05.02-.09.02-.14h.01s.08.03.11.05c.01.01.02.02.03.03s.03.02.03.03c.03.03.05.07.08.11.02.05.04.1.06.15.01.04.03.08.05.12.02.03.05.07.08.1.06.06.13.09.24.09.06.29-.14.32-.34.34h-.69s-.01-.1-.01-.15c0-.2.08-.32.17-.44ZM122.89,39.27c.11-.01.22-.03.34-.05.18-.02.38-.05.59-.09.17-.03.35-.06.54-.09.12-.02.25-.04.39-.06.24-.04.5-.09.77-.13.35-.06.71-.11,1.08-.17.39-.05.8-.11,1.21-.16.2-.03.4-.05.6-.07.21-.02.41-.05.61-.06.2-.03.41-.04.61-.06.29-.02.58-.04.86-.05.46-.02.91-.02,1.35-.01.14,0,.27,0,.4.01.23,0,.46.03.68.05.16.02.32.04.48.06.04.01.08.01.12.02.13.02.26.05.38.08.36.08.7.19,1,.33.07.03.14.06.21.1.07.03.13.07.19.11.02,0,.03.02.04.02.12.09.24.18.34.27.07.06.13.12.19.19.11.13.21.28.29.44-6.17,1.32-14.01-.42-20.42-.34,1.74-1.42,4.47.01,7.15-.34ZM132.08,42.67c-.56-.08-1.24-.04-1.92.01h-.02c-.4.03-.81.05-1.18.05-.09,0-.18,0-.26-.01-.11,0-.21,0-.31-.02-.06,0-.11,0-.16-.01-.08-.01-.15-.02-.22-.04-.02,0-.03-.01-.05-.01-.05-.02-.11-.03-.15-.05-.13-.04-.25-.09-.35-.15-.05-.03-.1-.07-.15-.11.24-1.1,5-1.24,4.77.34ZM123.9,45.38c-.07.02-.15.03-.23.03-.1.01-.2.02-.32.02-.22,0-.45-.02-.69-.03-.24-.01-.48-.03-.7-.03-.15,0-.3.01-.43.03.73-.75,1.98-1.19,3.06-.68-.01.06-.01.11-.03.15-.01.04-.02.07-.04.1-.04.1-.1.17-.18.23-.12.09-.26.15-.44.18ZM98.04,45.4c.15-2.79,6.52-2.73,7.49-.68-.92,1.72-5.57,1.03-7.49.68ZM102.81,49.48c1.05-.03,1.62.42,2.38.68,0,.09,0,.17-.02.25,0,.05-.01.1-.03.15-.02.08-.05.15-.09.22-.02.04-.04.07-.07.1-.04.05-.08.09-.13.13-.04.04-.09.07-.14.1-.05.03-.1.06-.16.08-.1.05-.22.09-.34.12-.32.07-.67.11-1.01.16-.07.01-.13.02-.2.03s-.13.02-.19.03v-2.05ZM105.19,47.78c.73-.63,2.49-.23,3.74-.34-.55,1.15-1.46,1.94-3.06,2.04-.15-.65-.97-.61-.68-1.7ZM107.91,45.4v-1.02c3.91.69,8.95-1.02,13.27.34-3.54,1.78-9.02.16-13.27.68ZM96.68,38.93c6.17.37,11.95-.82,17.01.34-.04.23-.12.41-.25.55-.07.07-.14.14-.23.19-.05.04-.11.07-.17.09-.05.03-.1.05-.15.06-.09.03-.19.06-.3.08-.65.13-1.51.07-2.3.05-.19.01-.35.05-.48.12-.13.07-.24.16-.33.27-.04.05-.08.11-.11.18-.04.06-.07.13-.1.19-.04.06-.07.13-.09.21-.11.26-.2.54-.33.79-.08.14-.17.27-.29.38-.1.09-.23.16-.39.2-.08.03-.17.04-.27.05-.16.01-.28-.02-.38-.08-.05-.02-.09-.05-.13-.09-.05-.03-.08-.07-.1-.11-.07-.09-.12-.2-.16-.31-.11-.28-.17-.61-.33-.84h0s-.07-.09-.11-.12c-.03-.03-.06-.05-.09-.07-.03-.02-.07-.03-.1-.04-.04-.01-.08-.02-.12-.03-.05-.01-.11-.02-.18-.02-1.24-.25-1.89.84-2.72,0-.05.01-.09.03-.13.07-.03.01-.04.03-.06.06-.02.02-.03.04-.05.06-.02.02-.03.05-.03.08-.01.03-.02.06-.03.09-.01.03-.02.06-.01.09-.02.06-.02.12,0,.18-.01.03,0,.06.01.09.01.03.02.06.03.08,0,.05.04.1.08.13.02.02.04.04.06.05.01.01.03.02.05.03.02.01.05.01.08.01-.02.04-.05.07-.08.11-.05.05-.11.1-.18.13,0,.01-.02.01-.03.02-.06.04-.14.06-.22.08-.06.02-.12.03-.19.03-.01.01-.03.01-.05.01-.05.01-.11.01-.17.01-.2.01-.4,0-.62-.01-.14-.01-.3-.02-.45-.03-.15-.02-.3-.03-.45-.04h-.11c-.1-.01-.2-.02-.29-.02-.04,0-.07,0-.1,0-.17,0-.32.01-.46.04.01-.09.01-.17.01-.25,0-.11-.01-.21-.02-.3,0-.01-.01-.02-.01-.03,0-.03-.01-.06-.02-.09,0-.07-.03-.13-.06-.19-.01-.04-.03-.07-.04-.1-.01-.02-.02-.04-.03-.06-.04-.08-.08-.14-.13-.2-.05-.07-.11-.13-.17-.18-.07-.07-.15-.13-.23-.18-.17-.1-.36-.19-.55-.27-.15-.06-.3-.11-.45-.16-.15-.06-.3-.11-.45-.17-.1-.04-.2-.08-.29-.13-.09-.04-.18-.08-.26-.14-.09-.05-.17-.11-.24-.17-.08-.06-.15-.13-.2-.21-.07-.08-.12-.16-.16-.26-.05-.09-.09-.2-.11-.31h.01ZM96.33,45.06s-.04.05-.07.08c-.09.08-.23.18-.39.27-.06.03-.12.07-.18.1h-.01c-.08.04-.17.07-.25.1-.05.02-.1.04-.15.05-.1.03-.19.04-.28.04-.05,0-.09,0-.13-.02-.04,0-.08-.02-.11-.05-.04-.02-.07-.05-.09-.09-.02-.04-.03-.09-.04-.14v-.68c.25-.08.43-.08.57-.04.05.01.1.02.14.05.03,0,.05.02.07.03h.01s.06.04.09.06c.09.06.17.12.27.17.13.07.3.11.55.07ZM92.25,39.61c1.14-.96,1.92-.18,3.74-.34-.03.14-.09.26-.18.36-.17.19-.43.3-.75.35-.06.01-.13.02-.2.02-.14.01-.29.01-.45.01-.46-.02-.96-.1-1.38-.2-.32-.07-.59-.14-.78-.2ZM97.36,53.23h-1.36v-1.7h1.02c.28.39.45.91.34,1.7ZM110.98,52.21s-.07.08-.11.11h-.01s-.08.06-.13.08c-.03.02-.07.03-.1.04-.07.03-.16.05-.25.06-.09.02-.19.02-.29.03-.06,0-.13,0-.19,0-.19.01-.39.01-.58.02-.07,0-.13,0-.19.01-.05,0-.09,0-.13.01-.05,0-.1.01-.15.02-.13.02-.24.05-.35.1-.1.04-.18.1-.25.19-.02.11-.03.21-.05.3-.02.24-.02.44.02.62.02.11.05.2.09.29.04.08.09.16.15.24,0,0,.02.03.03.05.05.06.1.11.16.16.1.09.22.18.34.26.13.09.27.17.41.26.08.05.17.11.25.17.07.06.15.11.21.18.06.05.12.11.17.18t.02.02s.06.09.08.14c.02.02.03.05.04.09.03.05.05.11.07.17.02.08.04.17.05.27-.88.37-2.07.43-2.38,1.36-1.86.16-2.8-.6-4.77-.34-.49-1.55-.77-3.31-2.72-3.4-1.47-.45-.42,1.62-1.7,1.36-.03-.16-.13-.26-.26-.33-.04-.03-.09-.05-.13-.07-.19-.08-.39-.14-.53-.27s-.2-.33-.1-.69h1.7c-.27-1.18.51-1.31.34-2.38-.31-1.24-1-.21-2.04-.34-.06-.05-.1-.12-.14-.19-.04-.06-.08-.14-.1-.22-.02-.06-.04-.13-.06-.19-.01-.08-.03-.16-.04-.25-.03-.27-.03-.57-.02-.88,0-.11.02-.21.02-.32h-.01c-.11.01-.21.02-.31.03-.09.01-.18.03-.27.05-.02,0-.04,0-.05.01-.08.01-.16.03-.24.06-.07.02-.14.04-.2.07-.06.02-.12.04-.18.07-.1.04-.2.09-.29.15-.01,0-.03.01-.04.02l-.03.03s-.1.07-.14.1c-.06.05-.12.1-.18.15s-.11.1-.16.16c-.04.05-.09.1-.13.16-.01.02-.03.04-.04.05-.08.12-.16.24-.22.37-.04.1-.09.19-.13.29-.11.3-.19.63-.25.97-.12.8-.08,1.71.03,2.61.02.17.05.34.07.51.06.34.12.68.18,1.01s.13.65.2.96c-4.53,1.8-3-5.97-2.04-8.17,1.8-.24,2.15-1.94,4.09-2.04.38,1.54.48,3.38,2.38,3.4.04-.02.07-.04.1-.07.06-.07.11-.16.16-.28.02-.06.04-.12.06-.19.02-.07.03-.15.04-.23.01-.07.02-.15.03-.24.01-.08.02-.16.02-.25.02-.18.02-.35,0-.53-.01-.26-.04-.51-.09-.72-.02-.07-.04-.13-.06-.19-.05-.12-.1-.22-.16-.29-.03-.03-.06-.05-.1-.07.19-.14.4-.24.62-.31.22-.07.45-.1.68-.1.12,0,.24.01.36.03.04,0,.07.01.1.02.11.02.22.05.32.09.12.04.24.1.35.17.11.07.21.15.3.24.04.03.09.08.12.12.07.09.14.19.19.3.19.38.23.88.03,1.48h0c-.22.11-.45.2-.68.28-.18.07-.36.13-.54.2-.21.07-.41.15-.61.24-.19.09-.38.18-.55.3.06.29.15.53.29.73.06.09.13.18.21.25.02.03.05.05.08.07.07.07.15.13.24.18.1.07.2.12.32.18.2.08.41.14.63.19h.01c.09.02.17.04.26.05.11.02.22.04.34.05h0c.03.18.07.35.12.51.04.13.09.26.15.38.04.08.08.16.12.23.04.08.08.15.13.22.04.07.09.13.14.19.01.02.02.03.03.05.01.01.02.02.03.03.07.09.15.19.24.27.01.02.02.03.04.05l.03.03.02.02c.05.06.12.12.18.16.09.09.19.17.3.25.1.08.21.16.32.23.12.08.26.16.39.24.45.27.92.5,1.39.75.17.09.34.18.51.27.2.11.39.22.57.34.1.06.2.13.29.2.16.11.3.22.44.35.06-.24.02-.48-.07-.7-.07-.16-.17-.31-.28-.47-.11-.15-.25-.31-.39-.47-.14-.16-.3-.33-.45-.5-.22-.26-.45-.53-.65-.82t0-.01c-.12-.2-.24-.41-.34-.63h0c-.07-.17-.12-.35-.16-.52-.02-.09-.03-.17-.05-.26.01-.02,0-.05,0-.09-.01-.14-.01-.29,0-.44,0-.06,0-.12.01-.19,1.79.43,2.07-.66,2.38-1.71.2.01.4.02.59.04.19.02.38.04.56.07.05,0,.11.01.17.02.08.02.15.03.23.05.06.02.11.03.17.05.05.01.11.03.16.05.14.04.26.1.37.16.08.04.15.08.21.13.08.06.16.13.23.2.1.1.19.23.25.38.15.31.2.72.13,1.24ZM112.34,51.18c-.06-.03-.11-.08-.16-.13s-.09-.1-.13-.16c-.05-.07-.1-.15-.14-.24-.05-.09-.09-.2-.13-.31-.03-.13-.07-.26-.1-.4,0-.02-.01-.03-.01-.05s-.01-.05-.01-.07c-.02-.1-.03-.21-.04-.31-.01-.23-.01-.47.01-.7.01-.1.03-.2.05-.3.02-.09.05-.18.08-.27.03-.08.06-.16.1-.24.01-.02.02-.03.03-.05.03-.06.07-.12.11-.17,2.39,1.08,2.5-.52,4.42,0-2.11.38-2.18,2.81-4.08,3.4ZM117.1,53.23c-1.38.13-2.37-.13-2.38-1.36.2-1.75,3.13-.8,2.38,1.36ZM118.3,57.17s-.09-.09-.13-.15c0,0-.01,0-.01-.01-.09-.1-.16-.21-.22-.32,0,0-.01,0-.01-.01-.06-.11-.12-.23-.15-.35-.02-.06-.04-.12-.05-.18-.1-.38-.06-.77.15-1.09.01-.04.04-.07.07-.1.03-.05.07-.1.11-.14s.08-.08.12-.11c.04-.04.08-.07.13-.11h.01s.1-.07.16-.09c.05-.03.1-.05.16-.08.09-.04.2-.07.31-.09.12-.04.25-.06.39-.07.13-.02.28-.03.43-.03h.02c.12,0,.24,0,.37.01-.02.16-.04.31-.05.45-.03.28-.03.54,0,.78,0,.04,0,.09.01.13v.02s.01.04.01.06c.02.09.03.17.06.25.02.11.06.21.1.31.01.02.01.03.02.04.04.08.08.16.12.23.04.06.08.11.12.16.04.05.08.09.12.13.15.15.33.28.53.37.1.05.21.09.32.13-1.35.85-2.53.55-3.22-.14ZM122.54,57.65c.01-.09.03-.17.07-.24.02-.07.05-.14.09-.2.07-.12.17-.23.27-.33.1-.1.21-.19.31-.28l.15-.15s.09-.11.13-.16h.01s.1.02.15.04c.03,0,.05.02.07.03.01,0,.02,0,.03.01.07.03.13.07.18.12.24.22.31.63.24,1.16h-1.7ZM134.78,54.51s-.02.09-.04.13c-.02.05-.04.09-.06.13h0c-.06.12-.13.23-.18.36-.02.05-.03.09-.04.14-.04-.04-.08-.07-.13-.1-.03-.02-.08-.04-.12-.05-.03-.02-.07-.03-.1-.04-.04-.01-.07-.02-.11-.03-.24-.06-.48-.13-.57-.34-.04-.11-.04-.26.01-.46.3-.26.77-.37,1.36-.34.05.26.03.45-.02.6ZM135.67,49.19s-.05.11-.07.16c-.02.06-.05.11-.08.16-.06.1-.12.19-.19.28-.04.05-.09.1-.15.15-.05.05-.1.09-.16.14-.12.09-.26.16-.41.22-.07.03-.15.06-.23.09-.14.04-.29.08-.45.09-.02.01-.04.02-.06.01-.15.03-.32.04-.49.04-.11,0-.23,0-.35-.01-.09,0-.18,0-.27-.01-.07.06-.13.12-.19.19-.11.13-.2.28-.28.43,0,.01,0,.02-.02.03-.08.15-.15.3-.21.46-.07.17-.13.35-.2.52-.01.04-.02.08-.04.11-.03.1-.06.19-.1.28-.07.19-.14.37-.22.55-.08.17-.16.33-.26.48-.02.02-.03.05-.05.07l-.06.06s-.07.08-.11.12c-.08.09-.18.18-.29.25-.04.03-.08.06-.13.09-.07.04-.14.07-.22.1-.05.22-.07.41-.07.57,0,.08.01.15.02.22.01.05.02.1.03.14.01.05.02.1.04.15.07.18.18.33.31.46.09.1.19.18.29.26.05.04.1.09.15.13.03.02.05.04.07.06.03.02.05.04.06.06.12.12.24.25.32.42.02.04.04.08.06.12.02.04.03.09.04.14.02.1.04.21.04.33h0s-.08.05-.12.06c-.04.02-.08.03-.12.05-.16.06-.34.11-.52.15-1.38.29-3.33,0-4.93.06-.15.01-.3.02-.44.03h0c.01-.1.01-.19.01-.27,0-.07,0-.13-.01-.2,0-.06-.01-.12-.02-.18-.02-.12-.05-.23-.08-.33-.02-.05-.04-.1-.06-.15,0-.01-.01-.02-.01-.03-.04-.07-.08-.14-.12-.21-.07-.11-.16-.22-.25-.31-.03-.02-.05-.05-.07-.07-.02-.02-.05-.05-.08-.07-.1-.08-.2-.17-.31-.24-.08-.06-.16-.11-.24-.16-.07-.04-.15-.09-.22-.13-.2-.13-.4-.25-.58-.38.03-.08.06-.15.1-.21.04-.08.1-.15.17-.22.08-.08.17-.14.27-.2.09-.06.19-.12.29-.17.05-.02.1-.05.15-.08.1-.06.2-.11.29-.18.06-.04.12-.09.17-.14.05-.05.09-.1.13-.16.02-.03.04-.07.06-.11.03-.05.05-.11.06-.17.01-.02.02-.03.01-.04.03-.09.04-.19.04-.3,0-.12-.01-.25-.04-.4-1.62-1.21-3.01.75-2.04,2.38-1.71.23-2.13-.82-2.38-2.04,0-.13,0-.23.01-.33.01-.04.02-.07.04-.1,0-.02.02-.04.03-.06.01-.02.02-.04.03-.07,0,0,0-.01,0-.01.04-.05.08-.09.13-.12t.02-.01s.1-.07.16-.1c.26-.12.59-.17.85-.3.09-.05.17-.1.24-.17.03-.04.06-.08.09-.12.05-.08.08-.19.09-.31.01-.02.01-.04.01-.06.1-.43.09-.75,0-.98-.02-.05-.04-.09-.06-.13,0-.01-.01-.02-.01-.03-.04-.05-.08-.1-.12-.14-.03-.04-.07-.07-.1-.1-.04-.03-.08-.06-.12-.09-.04-.02-.09-.05-.13-.07-.13-.07-.28-.12-.43-.18-.25-.08-.51-.16-.74-.27-.88.26-1.19,1.09-1.02,2.39-1.06.03-1.63-.42-2.39-.69-.14-2.97,2.65-3.02,4.43-4.08.14.03.27.06.39.11.09.03.18.06.26.1.13.05.24.12.35.19.07.04.13.1.19.16l.06.06c.36.38.53.94.45,1.76.8.01,1-.58,2.04-.34.71-.3,1.04-1,1.02-2.04.62-.05,1.22-.08,1.79-.08.31,0,.61.01.91.03.09,0,.18,0,.26,0,.57.03,1.12.09,1.65.16.42.06.83.13,1.23.2.48.09.95.19,1.41.29.12.02.23.05.34.07.53.11,1.06.23,1.6.34.04.56-.01,1.03-.15,1.41ZM137.87,53.57c-1.42.05-2.1-.63-2.04-2.04.45-.49,1.93-.49,2.38,0,.04.83.05,1.64-.34,2.04ZM139.23,50.84c-.52-2.53,2.47-2.43,2.38-.34-.82.86-.9.33-2.38.34ZM142.79,45.06s-.07.08-.11.12c-.07.08-.14.13-.21.16,0,0,0,0,0,0-.07.02-.14.05-.22.06-.15.02-.3.01-.45-.02-.1-.01-.2-.04-.3-.07-.04-.01-.09-.02-.13-.04-.07-.01-.13-.03-.2-.05-.13-.05-.27-.08-.4-.11-.17-.04-.34-.07-.51-.06-4.21.19-10.1,1.23-14.3.34-.04-.61.42-.72.34-1.36,5.76-.44,11.96.33,16.68.68-.05.14-.12.25-.18.34ZM144.75,39.59s-.11.03-.18.05c-.07.01-.15.03-.23.05-.54.11-1.33.23-1.93.36-.06.01-.12.02-.18.04-.28.06-.5.13-.62.2-.05-.63-1.15-.21-1.36-.68.58-.55,1.24-1.03,2.38-1.02,1-.09,1.05.77,2.04.68.18.04.28.08.32.12.03.03.03.06-.01.09-.05.03-.12.07-.23.11ZM151.14,39.27c.24,1.34-1.43,1.12-1.36,0h1.36ZM148.76,45.06c.05-1.26,1.72-2.12,2.72-1.36v1.36c-.78.22-2.05.67-2.72,0ZM243.4,184.63c.31,0,.64-.01.94.01.11,0,.22,0,.32.02.04,0,.08,0,.11.01.07.01.13.02.19.03.09.02.17.04.25.07,0,0,0,.01.02.01.08.03.15.07.21.11h.01c.07.06.13.12.17.18.1.14.16.33.15.58-.34,0-.69,0-1.01-.01-.16,0-.3-.02-.44-.04-.04,0-.09,0-.13-.03-.09-.01-.17-.04-.25-.07s-.16-.07-.22-.12h0c-.07-.05-.12-.1-.16-.17-.11-.14-.17-.33-.16-.58h.01ZM237.27,183.61c.92.11,2.04-.33,2.88-.33.09,0,.18,0,.27.02.08.01.16.03.24.06.07.02.13.05.19.09.08.04.15.1.21.17.03.04.06.08.09.13.03.05.06.1.08.15.03.06.05.12.07.18.02.07.04.14.05.21-4.05.28-10.76.33-12.59-2.72,3.83-.31,6,1.03,8.51,2.04ZM213.09,176.46h0c2.48-.49,3.76.92,5.78,1.7,3.19,1.24,6.09,1.54,8.85,3.06-.09.06-.18.11-.28.15-.18.1-.37.18-.56.24-.23.08-.47.14-.71.17-.36.06-.72.07-1.08.05-.08-.01-.17-.02-.26-.03-.45-.05-.91-.16-1.38-.3-.22-.07-.45-.15-.68-.24-.11-.04-.23-.09-.35-.14-.23-.09-.46-.19-.7-.3-.35-.16-.71-.33-1.08-.51-.12-.06-.24-.12-.36-.18-.36-.17-.73-.36-1.1-.54-.25-.12-.5-.23-.75-.35-.12-.06-.24-.11-.37-.17-.25-.11-.5-.22-.76-.33-.26-.1-.51-.2-.77-.29-.39-.14-.78-.26-1.17-.36-.52-.13-1.05-.23-1.59-.27h-.01c0-.15-.05-.25-.11-.33-.13-.16-.35-.24-.49-.41-.11-.12-.16-.3-.08-.62ZM207.94,173.23c.44.21.99.29,1.46.46,0,0,.02.01.03.01.04.02.08.04.12.06.09.04.18.08.26.13.07.04.13.08.19.13.09.08.16.16.22.27.02.03.04.07.05.1.03.04.04.09.06.14.02.07.03.15.04.23-.2.02-.38.03-.56.03-.16,0-.3,0-.44-.03-.13-.01-.25-.04-.36-.07-.07-.02-.13-.04-.19-.07-.01,0-.03-.01-.04-.01-.06-.02-.12-.04-.17-.07-.01,0-.03,0-.04-.02-.09-.05-.17-.11-.25-.18-.09-.07-.17-.15-.24-.24-.14-.18-.26-.4-.34-.65-.04-.12-.07-.25-.09-.39.09.07.18.12.29.17ZM228.65,92.69c-.04.09-.1.16-.16.21-.04.03-.08.06-.13.08-.05.03-.12.05-.18.06-.04.01-.08.01-.12.01-.06,0-.13-.01-.19-.02-.05-.01-.1-.02-.14-.03-.06-.01-.11-.03-.16-.06-.09-.03-.18-.07-.27-.12-.06-.03-.12-.06-.17-.1-.12-.07-.22-.15-.31-.23-.04-.04-.08-.07-.11-.11,0-.06.03-.12.06-.17.01-.06.03-.11.06-.15.02-.05.04-.08.07-.11.03-.05.06-.08.09-.09.12-.1.27-.15.43-.15.06,0,.13,0,.19.02.05.01.09.02.14.03.05.02.11.03.16.06.12.04.22.1.32.15.16.09.3.2.41.3.04.04.08.07.11.11-.01.06-.03.12-.04.17-.02.05-.04.1-.06.14ZM232.04,89.31c.07.01.14.02.21.04.07.02.13.04.2.06.06.03.12.06.18.09.08.04.15.09.21.15-.06.07-.12.13-.19.2-.11.1-.23.19-.36.27-.02.02-.04.04-.07.05-.12.08-.25.14-.39.2-.12.06-.26.11-.4.15-.06.02-.11.04-.17.05t-.02.01c-.14.03-.29.06-.44.09h-.01c-.08-.27-.09-.5-.04-.68.01-.07.04-.13.07-.19.03-.06.07-.11.11-.16.05-.06.12-.12.18-.15.03-.03.06-.05.1-.06.03-.02.07-.03.11-.05.22-.08.47-.1.72-.07ZM195.39,84.21c3.36-.87,7.11.53,10.21.68,4.62.21,9.59-.74,13.62-.34.31.03.58.06.81.09.09.02.17.03.25.05.1.02.19.05.28.08.06.02.12.05.18.08.06.02.11.05.17.09.06.03.13.08.19.13.08.06.15.13.23.2.09.09.18.19.27.3h.01c2.47-1.55,6.91-.49,10.2,0-.21.29-.42.55-.66.78h-.01c-.15.16-.31.3-.47.43-.17.12-.35.24-.53.35s-.36.21-.54.29c-.28.13-.57.24-.88.33-.13.04-.27.08-.41.11-.15.04-.3.07-.46.1-.13.02-.26.05-.4.07-.18.03-.36.05-.55.07-.27.03-.54.05-.81.07-.06,0-.12.01-.18.01-.34.02-.68.03-1.03.04-.32.01-.64.01-.97.02-.25,0-.5,0-.75.01-.23,0-.46.01-.69.01-.29.01-.58.02-.87.03-1.08.05-2.06.66-3.06.68-1.94.04-4.08-.74-6.13-.68-2.98.09-6.65.99-10.21.68-.34-.03-.77-.1-1.24-.18-.36-.07-.75-.14-1.17-.21-.14-.03-.28-.05-.42-.07-.29-.05-.58-.1-.89-.14-.15-.03-.3-.05-.45-.07h-.01c-.31-.04-.62-.08-.93-.1h-.06c-.2-.02-.4-.04-.6-.05h-.06c-.42-.02-.83-.03-1.25-.01-.03,0-.06,0-.09.01-.14,0-.29,0-.43.03h-.07c-.08.01-.16.02-.23.03-.03,0-.05,0-.08,0-.18.01-.35.04-.52.07h-.01c-.91-1.13-1.07-3.02-1.02-5.1h.01c.91.33,1.73.75,2.71,1.02ZM210.72,109.05h0c-.32.12-.65.22-.98.3-.33.09-.66.18-1,.25-.33.08-.67.15-1.01.2-.34.07-.68.12-1.02.16-.34.05-.69.09-1.03.12-.6.06-1.2.09-1.8.12-.2,0-.4.01-.6.01-.28,0-.57,0-.86,0h-.12c-.36,0-.72,0-1.08-.02-.42-.01-.84-.03-1.26-.05-.3-.01-.6-.03-.89-.05-.2,0-.4-.03-.59-.04-.78-.05-1.56-.12-2.33-.2-.43-.04-.85-.08-1.27-.12-.85-.09-1.69-.18-2.53-.26-.61-.06-1.22-.12-1.82-.17-.03,0-.06-.01-.09-.01-.66-.05-1.31-.1-1.96-.15-.65-.04-1.29-.07-1.93-.09h0c.05-.15.1-.28.15-.41,0-.01.01-.02.02-.03.03-.09.07-.17.11-.25.05-.11.1-.21.16-.31.03-.06.06-.1.09-.15.03-.05.06-.1.09-.15.11-.17.23-.34.36-.49.07-.1.15-.2.24-.29.08-.1.17-.19.25-.28.13-.13.25-.26.38-.38.16-.16.33-.31.5-.46.38-.34.76-.66,1.12-1,.14-.12.27-.24.4-.37.17-.17.33-.34.49-.52.07-.08.14-.16.2-.24.07-.09.13-.17.2-.26.12-.17.24-.34.35-.53.01-.02.02-.04.04-.07.03-.06.07-.13.1-.19.07-.14.14-.28.2-.43,1.61-.77,3.12-1.64,3.74-3.41.02-.07.05-.12.08-.17.06-.07.12-.14.17-.21.03-.04.05-.08.06-.12.02-.03.03-.07.02-.11.01-.01.01-.02.01-.03v-.02h0c-.54.16-1,.4-1.41.7-.16.11-.31.23-.45.35-.09.07-.17.14-.25.21-.16.13-.31.27-.46.41-.31.28-.62.56-.96.83-.15.11-.3.22-.46.33-.02.01-.04.02-.05.03-.17.11-.35.21-.53.3-.09.04-.17.08-.26.12-.09.04-.17.08-.27.11-2.31-1.71,4.69-8.3,7.83-5.79.95-.19,2.69-1.36,3.74-.34.01.09.01.18.01.26,0,.15-.01.29-.04.43-.01.11-.04.21-.08.32h-.01c-.01.07-.03.12-.05.17-.03.09-.08.18-.13.26-.01.02-.02.04-.03.06-.06.1-.13.21-.2.31l-.02.02c-.08.11-.17.22-.27.32h-.01c-.3.34-.67.64-1.07.93-.13.1-.27.2-.41.29-.28.19-.56.38-.85.57-.21.14-.42.28-.63.43-.21.14-.41.29-.6.44-.13.1-.26.21-.38.31-.12.11-.23.22-.34.33-.96.99-1.48,1.89-2.04,3.06-.38.13-.75.27-1.1.43l-.39.18c-.13.07-.25.14-.37.21-.24.14-.46.31-.66.49-.07.06-.13.12-.19.19-.08.08-.15.17-.22.26-.07.09-.13.19-.19.29-.05.08-.1.18-.14.27-.01.02-.02.04-.03.06-.04.11-.08.22-.11.34h0c.07.04.13.06.19.08.13.04.26.07.38.09,1.6.19,2.72-2.08,3.51-3.23,1.72-.33,2.21-1.88,3.75-2.38.32-.69.69-1.35,1.02-2.04.1-.04.2-.08.29-.14.04-.01.09-.03.13-.06.09-.04.17-.09.25-.14.14-.08.27-.16.4-.26.13-.1.26-.2.38-.31.08-.07.16-.15.24-.23.08-.08.16-.17.23-.26.09-.1.17-.21.24-.32.08-.11.15-.22.22-.33,2.56.02,2.84-3.52,5.45-2.38.51,3.94-4.87,4.87-6.47,7.83,1.77,1.31,2.62-1.22,3.4-2.04.47-.05.83-.19,1.15-.39.15-.1.3-.21.43-.33.07-.06.14-.12.2-.19l.19-.19c.08-.08.16-.16.24-.24.14-.15.28-.29.43-.43.1-.09.21-.17.32-.25.15-.11.32-.2.5-.27.09-.03.19-.06.29-.09h0c.3-.43.59-.87.91-1.26.11-.14.23-.27.35-.38.12-.13.24-.24.37-.35.27-.22.56-.41.89-.55.17-.08.35-.14.54-.19-.48,3.95,0,8.85-2.04,11.23.47.45.34,1.48.34,2.38ZM185.08,102.23s-.08-.02-.13-.03c-.05-.02-.09-.03-.13-.06-.05-.02-.1-.05-.14-.08-.05-.04-.11-.09-.17-.15h-.01c-.09-.32-.09-.55-.02-.72.01-.05.03-.09.06-.13.01-.01.01-.02.02-.03t.01-.02c.03-.06.08-.11.14-.16.05-.05.11-.09.17-.12.12-.08.25-.14.36-.22.06-.04.11-.08.16-.13.02-.02.04-.05.06-.08,0-.01.02-.02.03-.04s.02-.04.03-.05h.01c.12.07.24.13.36.21.09.05.18.11.26.17l.06.06s.05.05.07.07c.03.02.05.05.07.08.03.04.06.08.08.13s.04.1.06.15c.01.02.02.05.03.08.01.03.01.06.01.1,0,.09.02.2,0,.31-.09.08-.18.15-.28.22-.05.03-.11.08-.17.12-.07.05-.14.09-.21.13-.07.04-.14.07-.21.1-.19.08-.39.12-.59.09ZM209.05,91.35c-.22.21-.47.39-.74.54-.27.16-.56.29-.87.4-.24.09-.48.16-.73.23s-.5.14-.76.2h-.01v-1.36h.01c1.15-.1,1.95-.55,3.4-.35-.09.12-.19.23-.3.34ZM196.76,60.38c1.72-.85,6.19-1.57,7.82-.34-2.2,1.18-4.68.02-7.82.34ZM206.97,60.38h0c-.03-.24,0-.4.09-.51.06-.09.15-.14.26-.17,1.56-.76,4.44-.23,5.78.34,1.39-.75,3.8-.95,5.11,0-2.96.76-7.47.82-11.23.34ZM221.25,60.2s-.03.05-.05.07c-.03.03-.06.05-.1.07-.05.03-.11.05-.17.06-.46.09-1.26-.15-1.7-.02h-.01v-.68h2.04c.04.17.05.3.03.4,0,.04-.02.07-.04.1ZM237.27,55.61c-.06.15-.14.3-.23.44-.1.14-.21.28-.34.41-.1.1-.2.2-.31.29-.03.03-.07.06-.11.09-.1.08-.2.15-.3.22-.1.06-.21.13-.32.19-.27.15-.55.27-.84.36-.14.05-.29.09-.43.13-.15.03-.3.06-.44.07-.15.02-.29.03-.43.03-.36,0-.71-.06-1.02-.19.97-1.15,3.64-2.15,4.77-2.04ZM191.31,51.53c1.82-1.96,5.63.72,8.17-1.03-.58-.68-1.7-.79-2.91-.74-.31.01-.62.04-.93.06-.16.01-.32.03-.48.04-.31.03-.61.06-.9.08-.54.04-1.03.05-1.44,0-.09-.02-.18-.03-.26-.05-.08-.02-.15-.04-.22-.07h-.01c.02-.16.04-.33.06-.5.02-.16.04-.33.05-.49.04-.33.08-.66.13-.98.1-.64.23-1.25.45-1.77,3.07-.6,7.61-.12,11.91,0,3.14-2.15,4.96,1.41,9.53.68.66,1.58,4.3,1.73,6.13,1.02-.11-.8-1.61-.2-1.36-1.36,1.17-.75,3.48-.22,4.76,0,.01.11.01.19-.01.26-.02.04-.04.08-.07.11-.02.02-.04.04-.07.06-.11.08-.28.12-.43.17-.04.01-.07.02-.1.03-.06.03-.11.05-.16.08-.03.01-.05.03-.07.05-.03.03-.06.07-.07.12-.01.01-.01.03-.02.04-.01.03-.02.06-.02.1.46.48,1.55.95,2.46.94.18,0,.35-.02.51-.06s.31-.1.44-.2c1.36-.43-1.02-1.62,0-1.7,2.18-.41.6.98,1.36,1.7.89-.25,1.78-.34,2.6-.27.08.01.16.02.23.03h.02c.16.02.33.04.48.08.21.04.41.09.6.16.16.05.31.11.46.18.07.03.14.06.2.1.09.04.18.09.27.15.07.04.14.08.2.13.13.09.25.18.36.28.14.12.27.26.39.4.07.09.14.18.2.28,0,.01.01.03.02.04.02.02.03.05.05.07.01.02.02.05.04.07.01.95-.18,1.73-.54,2.39-.05.09-.11.18-.16.26-.17.26-.37.5-.59.73-.14.14-.29.27-.45.4-.01.01-.02.02-.03.03-.08.06-.16.13-.25.18-.09.07-.18.13-.27.19-.12.08-.24.15-.37.22-.07.04-.15.08-.22.12-.1.06-.21.11-.32.16-.15.08-.31.15-.47.22-.17.08-.35.15-.53.23-.58.22-1.21.43-1.87.63-.26.09-.53.17-.8.24-.15.04-.3.09-.45.13-.25.07-.51.15-.77.22-.14.04-.28.08-.42.12-.82.24-1.55.95-2.04,1.02-2.18.33-5.14.11-7.83,0-8.39-.33-18.47.91-23.83-1.02-.52-1.18-.3-3.1-.34-4.76ZM189.85,95.34c.08-.04.17-.08.26-.12.07-.03.13-.06.2-.08.22-.07.45-.13.68-.16.05-.01.09-.02.14-.01.05,0,.09,0,.14,0,.03-.01.06-.01.09-.01h.08c.11,0,.23.01.34.03.02,0,.04.01.06.01.03,0,.07.01.1.02.02,0,.04,0,.06.01.07.01.14.02.21.05.02,0,.05.01.07.02.02,0,.03,0,.05,0-.08.34-.2.68-.35,1.01-.08.17-.17.33-.26.48-.1.15-.2.31-.31.45-.08.1-.16.19-.24.29-.08.09-.16.17-.25.26-.96.93-2.28,1.42-3.69.91h-.01c.03-.11.07-.22.12-.33.04-.11.09-.21.15-.32.04-.11.1-.21.16-.32.11-.21.25-.42.4-.62.06-.09.13-.18.21-.27.08-.11.17-.21.27-.31.19-.2.4-.39.63-.56.11-.08.22-.16.34-.23.11-.08.23-.14.35-.2ZM157.27,46.08h.68v.68h-.68v-.68ZM154.55,46.42c.05-.13.72-.6,1.02-.34.67.59-1.51,1.64-1.02.34ZM164.91,95.41c-.1-.04-.19-.1-.28-.16-.17-.11-.32-.24-.45-.39-.11-.11-.21-.23-.3-.36-.09-.12-.16-.24-.24-.37-.1-.18-.2-.37-.29-.58-.08-.2-.16-.41-.23-.64-.04-.11-.07-.23-.1-.34-.04-.15-.08-.3-.11-.45-.05-.21-.09-.42-.13-.63-.03-.17-.05-.33-.08-.5-.03-.17-.06-.35-.08-.52-.07-.44-.12-.89-.17-1.35-.03-.27-.06-.54-.09-.81-.04-.39-.09-.78-.14-1.17-.02-.15-.04-.3-.06-.45-.03-.26-.08-.52-.12-.78-.14-.76-.67-1.38-.93-2.09-.04-.09-.07-.19-.1-.29-.45-1.86-.32-4.14-.68-6.13-.08-.44-.19-.88-.31-1.32-.12-.43-.26-.87-.39-1.3-.13-.42-.26-.84-.38-1.25-.01-.05-.03-.11-.04-.16-.08-.32-.16-.64-.21-.95-.02-.04-.02-.08-.03-.12-.04-.26-.08-.51-.11-.74-.03-.2-.06-.4-.08-.58-.05-.41-.09-.79-.13-1.15-.03-.24-.05-.47-.07-.69h0c-.02-.23-.05-.44-.07-.65-.03-.2-.05-.4-.08-.59-.02-.2-.06-.39-.09-.57-.04-.19-.08-.37-.12-.55-.08-.28-.17-.57-.28-.85-.06-.15-.12-.3-.19-.44-.14-.29-.3-.58-.5-.89-.1-.15-.2-.31-.32-.47h0c-.49-.68-.82-1.22-1.03-1.88-.22-.65-.32-1.43-.33-2.55.17-.1.33-.19.48-.26.11-.05.21-.09.31-.13.11-.04.22-.08.33-.11.12-.03.25-.05.37-.07.15-.02.31-.04.48-.04.52-.02,1.16,0,2.11-.07h0s-.02-.08-.03-.12c-.01-.04-.02-.07-.04-.1-.03-.07-.06-.13-.09-.18-.03-.06-.07-.11-.11-.16-.04-.05-.09-.09-.14-.13-.12-.1-.27-.17-.43-.23h-.01c-.17-.05-.35-.08-.54-.1-.96-.06-2.19.25-3.02.19-.08,0-.14-.01-.21-.02-.05-.01-.09-.02-.14-.03-.06-.01-.11-.03-.16-.05-.07-.02-.13-.05-.18-.09h0c-.74-2.87-.03-7.03-.34-8.86-.03-.23-.01-.39.08-.5.03-.05.06-.08.11-.11.04-.03.09-.05.15-.07.22-.01.45-.02.69-.03.94-.05,2.03-.11,3.18-.15.87-.03,1.77-.06,2.69-.06.52,0,1.06.01,1.58.03.79.03,1.56.09,2.31.17h.01c.19.02.37.05.55.08.09.01.18.02.27.04.09.02.18.04.27.05.18.03.35.06.52.1.1.02.2.04.3.06t.02.01c.06.01.13.03.19.05-.2.24-.46.42-.75.56,0,0,0,.01-.01.01-.15.07-.3.13-.47.18-.16.06-.34.11-.53.14-.18.04-.36.07-.55.1-.21.03-.42.04-.63.05-.18.02-.36.02-.54.03-.61.02-1.25.01-1.89,0-.56-.01-1.13-.01-1.68,0-.21,0-.42.01-.62.02-.13,0-.27.02-.4.03-.17.01-.33.03-.49.05-.12.02-.23.04-.34.06-.12.03-.23.05-.33.08-.11.03-.21.06-.32.09-.1.03-.2.07-.29.11-.12.06-.24.12-.35.19h-.01c.09.12.19.22.3.31.11.09.23.17.36.25.12.07.26.14.41.19.15.06.3.11.47.15,1.1.27,2.53.22,3.95.17.83-.03,1.67-.06,2.43-.03.23.01.46.03.68.05h.02s.03,0,.04.01c.11.01.21.02.3.04.1,0,.19.03.28.05.08.02.15.03.22.05.02,0,.04.01.06.01.11.04.2.07.3.1.15.05.29.11.42.18.25.14.47.3.65.51-.03.13-.07.24-.11.35-.09.21-.19.39-.32.55-.06.07-.13.15-.2.21-.15.13-.33.23-.52.31-.05.02-.1.04-.16.05-.06.03-.12.04-.18.06h-.01c-.14.04-.27.06-.41.07-.07,0-.14.02-.22.02-1.25.1-2.82-.25-4.17-.17-.04,0-.09.01-.13.02-.17.01-.33.04-.48.07-.1.02-.2.04-.29.07-.1.02-.19.06-.28.09.51.99,1.68,1.06,2.92.99.13-.01.26-.02.39-.03h.02c.08-.01.17-.01.25-.02,1.85-.14,3.64-.26,3.56,2.12h0c-.22.1-.45.18-.68.25-.96.3-2.05.46-3.18.57-.57.06-1.15.1-1.73.14-.29.03-.57.05-.86.07h-.01c.94,1.55,4.03.96,5.78,1.7.58,1.48.7,3.17.65,4.94-.01.24-.02.49-.03.73-.01.24-.03.49-.04.73-.02.25-.04.49-.06.74-.03.36-.06.72-.09,1.08-.05.61-.1,1.22-.14,1.82-.02.3-.04.59-.05.89-.07,1.36-.04,2.69.21,3.92.09.45.2.88.36,1.3.07.21.16.41.24.61t.01.01c.09.2.19.4.3.59-.09.16-.16.33-.23.5-.07.18-.13.35-.19.54-.06.18-.11.36-.15.56-.05.19-.09.38-.12.58-.04.2-.07.4-.09.61-.03.24-.05.48-.07.73,0,.15-.01.3-.02.45-.02.54,0,1.09.01,1.66.02.62.05,1.25.09,1.88.02.31.04.63.07.95.04.64.09,1.28.12,1.92.02.32.03.65.04.96.02.67.02,1.33-.01,1.98-.02.34-.05.68-.08,1.02-.04.33-.09.66-.15.98-.03.17-.07.33-.1.49-.04.15-.08.3-.13.45-.01.06-.03.12-.05.18,0,.02,0,.03-.02.05-.06.19-.14.39-.21.57-.05.12-.1.23-.16.35-.11.22-.23.44-.37.66-.07.1-.14.21-.22.31h0c-.24-.02-.46-.06-.66-.13-.12-.04-.24-.08-.35-.14-.07-.02-.14-.05-.2-.1ZM165.29,98.15c.04-.09.1-.17.17-.25.34-.41.9-.63,1.68-.42.04.12.08.25.1.38.02.14.03.29.03.43,0,.06,0,.11-.01.17-.01.08-.01.15-.02.23-.02.08-.03.15-.05.22-.02.08-.04.15-.07.23-.01.02-.02.04-.03.07h0c-.04.09-.08.16-.13.24-.03.04-.07.09-.1.14-.07.1-.15.18-.24.25-.14.12-.3.21-.48.27-.12.04-.25.07-.4.09-.1.01-.2.01-.3.01h-.01c-.43-.61-.47-1.46-.14-2.06ZM168.83,105.98c0,.1-.01.21-.02.3-.01.07-.02.14-.03.21-.02.07-.04.15-.06.22-.02.07-.06.15-.09.21-.05.08-.11.16-.17.24-.03.04-.06.07-.1.1-.04.04-.08.07-.12.1h-.01c-.09.06-.19.12-.29.16-.11.05-.23.09-.36.12h-.01c-.13.03-.27.05-.43.06h-.01c-.18-.2-.3-.38-.37-.54-.02-.04-.04-.08-.04-.12-.02-.04-.03-.07-.04-.11s-.01-.08-.01-.12c-.02-.11-.01-.22.01-.33.03-.18.09-.36.17-.56.02-.07.05-.14.07-.21.02-.07.04-.15.07-.23.04-.16.08-.34.11-.53.01-.1.02-.21.03-.32-.06-.07-.12-.13-.19-.18-.05-.04-.1-.07-.15-.09-.05-.03-.11-.06-.16-.09-.01-.01-.02-.01-.03-.02-.06-.03-.13-.05-.2-.07-.17-.06-.36-.12-.54-.18-.03-.01-.05-.02-.08-.03-.13-.05-.25-.09-.36-.15-.04-.02-.08-.04-.11-.06-.08-.04-.15-.09-.21-.15h0c0-.07.03-.14.05-.21.01-.07.03-.14.05-.2.03-.14.07-.26.12-.38.02-.06.04-.12.07-.18.05-.12.1-.23.17-.33.06-.11.14-.2.22-.29.05-.06.11-.11.17-.15.03-.03.06-.05.1-.07.1-.07.21-.13.34-.16.07-.03.15-.05.24-.07h.04c.06-.01.12-.02.18-.02.06-.01.12-.01.19-.01.13,0,.28.01.44.03.03.12.08.25.14.4,0,.01.01.01.01.01.05.15.12.31.19.48.07.18.14.36.22.55.07.19.15.39.23.59.03.1.07.2.11.3.07.21.14.42.2.62.06.21.11.42.16.62.03.17.06.35.08.52.01.1.02.19.02.28v.04ZM168.51,53.23c1.57-1.62.4-4.38,1.36-6.13-.02-1.27,1.51-.98,2.72-1.02,1.08.97-.41,1.89-.34,3.06.07,1.23,1.03,2.2,1.02,3.41-.01,2.16-2,4.52-.34,6.47-.11.16-.21.33-.29.52-.04.1-.08.2-.11.3-.04.12-.08.24-.12.37-.08.29-.15.6-.22.9-.02.1-.04.2-.06.3-.04.19-.08.37-.12.56-.04.15-.07.3-.12.45-.01.02-.01.05-.02.07-.04.16-.1.32-.16.46-.02.06-.05.13-.08.19-.03.08-.07.16-.12.23,0,.02-.01.04-.03.06,0,0,0,.01-.01.01-.03.06-.07.12-.11.17-.04.06-.08.11-.13.17-3.97-.45-1.1-7.75-2.72-10.55ZM171,82.47c-.06,0-.12-.03-.17-.05-.11-.03-.21-.07-.31-.12-.07-.03-.13-.07-.19-.11-.06-.03-.12-.07-.18-.12-.06-.03-.11-.08-.16-.12-.05-.04-.09-.09-.13-.13,0-.12.04-.23.11-.32.04-.06.08-.1.13-.13.05-.04.1-.07.16-.1.05-.03.11-.06.18-.08.05-.02.11-.04.18-.05.06-.02.13-.03.19-.04.09,0,.19-.02.28-.02.05,0,.11,0,.17.01.06,0,.11,0,.16.02.06.01.11.02.16.04.06,0,.1.03.15.04.13.05.24.11.33.2.04.03.07.07.09.1.03.04.05.08.07.12.03.06.05.12.05.18.02.11.01.23-.03.37-.25.26-.56.36-.87.36-.07,0-.14-.01-.21-.02-.06-.01-.11-.02-.16-.03ZM171.32,65.34c.09.03.18.07.26.12.08.04.16.1.23.16.37.33.58.85.43,1.57-.34.35-1.26.45-1.96.32-.1-.02-.19-.04-.28-.07-.07-.02-.12-.04-.18-.06h-.01s-.03-.02-.05-.03c-.1-.04-.17-.09-.23-.16h-.01c-.2-.78-.02-1.31.34-1.62.25-.22.59-.33.93-.33.18,0,.37.04.53.1ZM169.52,69.23h.01c.06-.07.13-.12.23-.16.02-.01.03-.01.05-.02h.01s.06-.03.09-.04c.03-.01.05-.02.09-.03.09-.03.18-.05.28-.07.7-.13,1.62-.03,1.96.32.02.13.01.25-.01.36v.04s-.03.11-.05.16c-.01.02-.01.03-.02.04-.02.05-.04.1-.07.15-.01.01-.02.03-.04.04-.02.04-.05.08-.09.12-.04.04-.08.08-.12.11-.04.03-.08.06-.13.09-.09.05-.19.1-.3.14-.02.01-.04.02-.06.02-.08.03-.16.05-.24.06-.07.01-.13.02-.2.03-.49.06-1.03-.06-1.38-.34h-.01v-1.02ZM170.7,74.96c.18-.05.31-.01.41.09.03.03.06.06.08.1.01,0,.03.03.03.05.01.02.02.04.02.06.01.04.02.08.03.13.01.02.01.03.01.05v.02s0,.04,0,.06c0,.05,0,.1-.02.14-.01.05-.02.09-.03.13-.04.09-.08.16-.14.22-.03.03-.07.06-.11.08-.03,0-.05.02-.07.02-.02.01-.05.01-.08.01-.09,0-.18-.02-.29-.08h-.01v-1.02h.01s.1-.05.15-.06ZM171.9,78.76c.04.14.04.27.02.39-.01.04-.02.08-.03.12-.02.05-.04.1-.07.14-.01.03-.03.05-.05.08-.07.09-.16.15-.27.2-.03.02-.07.03-.11.05-.04.01-.09.02-.13.03-.06.01-.13.02-.2.02-.08,0-.16,0-.23-.03-.09-.01-.17-.04-.25-.08-.04-.02-.08-.05-.12-.08-.05-.03-.09-.07-.12-.11-.15-.17-.21-.42-.14-.73h.01c1.04-.24.64-.24,1.69,0ZM169.28,85.75c0-.08.02-.16.06-.25.02-.04.04-.08.08-.13.02-.05.06-.09.1-.14h.01c.08-.06.18-.11.28-.16.19-.09.4-.15.63-.18.03,0,.06-.01.09-.01.26-.03.53-.03.78.01.09.01.18.03.26.04.01.01.02.01.03.01s.02.01.03.01c.02.01.04.02.06.02.11.04.21.08.31.14.04.02.08.04.12.07.01,0,.01.01.02.01.05.04.1.08.14.12.03.03.06.06.08.1.05.04.08.09.1.14.03.05.06.1.07.16.02.04.03.06.04.1h0s.01.04,0,.05c.03.12.03.25.01.39-.06.05-.12.09-.19.13s-.15.08-.23.11h0c-.11.04-.23.07-.35.1-.05,0-.1,0-.14.02-.05.01-.1.01-.15.01-.16.01-.33.02-.49.01-.06,0-.12,0-.18-.01-.1,0-.19-.02-.29-.03-.01-.01-.02-.01-.03-.01-.12-.02-.24-.05-.34-.08-.08-.02-.15-.04-.22-.07-.21-.08-.39-.19-.51-.31-.03-.02-.06-.05-.07-.08-.02-.03-.04-.06-.06-.09-.03-.06-.04-.13-.04-.2ZM169.62,95.08s-.02-.07-.02-.11c-.06-.29-.1-.58-.13-.89-.02-.18-.04-.36-.05-.55-.01-.12-.02-.25-.02-.38-.07-1.41.02-2.94.12-4.52h.01c.11-.1.26-.17.44-.23.12-.04.26-.08.4-.1.32-.05.67-.07,1.01-.04.01,0,.03,0,.04.01.06,0,.11,0,.17.01.08,0,.16.02.24.04h.01c.11.02.21.05.31.08.12.04.23.08.31.14.05.03.09.06.12.09.04.09.08.18.11.26.05.13.08.25.1.37.02.1.03.2.03.29,0,.06,0,.12-.01.18-.02.12-.05.24-.09.36-.02.05-.03.09-.05.13-.01.04-.03.08-.06.13-.04.09-.09.18-.14.27-.07.13-.15.26-.23.4,2.19,2.32,1.04,5.19-.68,7.47h0c-.11-.07-.21-.16-.31-.26h-.01c-.1-.09-.2-.19-.28-.29-.1-.1-.18-.2-.25-.31-.1-.11-.17-.22-.23-.33-.09-.11-.16-.23-.21-.35-.07-.12-.13-.24-.18-.36-.06-.12-.11-.25-.15-.38-.05-.13-.1-.26-.13-.4-.08-.23-.14-.48-.19-.73ZM171.33,111.33c-.08-.03-.16-.05-.23-.07-.08-.02-.16-.05-.23-.08-.15-.05-.29-.11-.43-.17-.19-.08-.38-.17-.57-.25h-.01c-.08-1.44.52-2.2.68-3.4h.01c1.22-.16,1.64-.88,2.71-.35-.02,1.58.15,3.33-.34,4.43-.63.06-1.14,0-1.59-.11ZM174.99,53.31c-.12-.04-.25-.06-.36-.09.08-.41.22-.74.41-1.01.05-.06.09-.12.16-.18.04-.06.1-.12.17-.17.06-.05.12-.1.19-.14.06-.06.13-.1.2-.12.07-.05.14-.08.22-.11.07-.04.15-.07.23-.09.09-.03.18-.06.28-.08.07-.02.15-.03.23-.04.09-.02.18-.03.27-.04.27-.04.57-.05.88-.05.33,0,.67.01,1.02.04.04,0,.07.01.11.01h.09c.37.03.74.07,1.12.11.25.03.5.06.74.08.39.04.78.08,1.16.09.41.02.81.03,1.18,0h.03c.16-.01.31-.03.45-.06.11-.02.21-.04.31-.07.03,0,.07-.01.1-.02.2-.05.38-.13.54-.21.17-.09.32-.2.46-.32-.02-.03-.03-.06-.06-.09-.02-.05-.05-.09-.09-.13h-.01s-.03-.05-.06-.08c-.07-.08-.15-.16-.23-.22-.09-.07-.18-.13-.28-.18-.06-.04-.13-.07-.2-.1-.06-.03-.14-.06-.21-.08-.13-.05-.27-.08-.41-.11-.14-.03-.29-.06-.45-.08-.48-.05-1-.06-1.55-.04-.16.01-.32.02-.48.03-.19.01-.38.02-.57.04-.46.04-.93.08-1.38.12-.62.04-1.21.07-1.73.04-.07,0-.15,0-.22-.01s-.13-.02-.2-.03c-.18-.03-.34-.06-.49-.11-.22-.08-.41-.19-.56-.33,1.66-1.82,6.35-.98,8.16-1.7-.03-.36-.12-.58-.25-.72-.06-.06-.14-.11-.22-.14-.6-.21-1.65.48-2.25-.16.25.01.47.01.68-.01l.21-.03c.09,0,.18-.03.26-.06.14-.04.28-.08.4-.13.12-.06.23-.12.34-.18.07-.04.14-.08.21-.14.1-.07.19-.15.28-.22.09-.08.18-.17.26-.25.38-.39.69-.84,1.05-1.24.12-.14.24-.27.37-.39.09-.08.19-.17.29-.24.1-.08.2-.15.32-.21.11-.07.24-.13.37-.18.13-.05.26-.1.41-.13h0c.97,3.21-1.11,6.31,0,9.87-.07.05-.13.09-.2.14-.01.01-.03.02-.04.03-.02.01-.05.03-.08.05-.1.06-.2.12-.31.17-.12.06-.24.11-.36.16-.12.05-.26.1-.39.14h-.01c-.36.11-.74.19-1.15.25-.4.06-.83.1-1.28.12-.22,0-.45,0-.67,0-.35,0-.7,0-1.05-.03-.21-.01-.41-.03-.62-.04-.33-.02-.66-.05-.99-.09-.22-.03-.43-.05-.64-.08-.22-.03-.44-.06-.66-.09-.44-.07-.86-.14-1.27-.21-.24-.04-.48-.09-.71-.13-.08-.01-.15-.03-.22-.04-.15-.03-.3-.06-.44-.09-.22-.05-.42-.1-.62-.14-.06-.02-.13-.03-.19-.04ZM176.7,101.17s-.03-.1-.07-.13c0,0-.01-.02-.02-.03-.02-.02-.05-.04-.08-.06-.03-.02-.06-.03-.09-.04-.06-.03-.13-.04-.2-.05-.04-.01-.09-.02-.14-.02-.07-.01-.15-.02-.23-.03h-.05s-.02,0-.03-.01c-.05,0-.11-.01-.16-.03-.07-.02-.13-.05-.19-.08-.05-.04-.1-.09-.13-.14h0c.57-.57.27-2,.34-3.07-.01-.21,0-.38.07-.52.04-.12.1-.22.18-.31.02-.05.07-.09.12-.13.08-.08.18-.15.3-.21.05-.03.1-.06.16-.08.11-.06.23-.11.34-.16.06-.03.12-.06.18-.08.11-.06.21-.12.31-.18h.01s.08-.05.11-.08c.03-.03.07-.06.1-.09.03-.03.06-.06.08-.09.03-.03.05-.07.08-.11-.71-.43-1.43-.83-2.04-1.36-.17-11.51-.47-26.49-.34-37.79.25-.09.45-.23.62-.4.02-.02.05-.04.07-.07.06-.06.11-.14.16-.21.07-.1.12-.22.17-.34,2.92.16,5.03.48,7.83,0,0,.09.03.15.08.18.02.03.06.04.1.06,0,0,0,.01.02.01.02.01.03.01.05.01.03,0,.07.02.11.02.04.01.07.01.11.02.04,0,.07.01.11.02.04,0,.07,0,.1.02,0,.02.03.05.04.08.01.01.01.02.02.03,0,.02,0,.03.02.05.03.07.06.15.09.23.06.13.11.26.16.4.11.28.21.56.3.85.07.22.14.44.2.67.06.17.1.36.14.54.01.03.02.07.03.1,0,.04,0,.07.02.1.06.22.1.44.14.66.09.42.16.85.2,1.29.01.08.02.17.04.25.02.21.04.43.06.65v.04c.1,1.3.07,2.63-.1,3.93-.08.58-.17,1.25-.25,2-.03.25-.06.5-.08.77-.02.17-.04.35-.05.54-.01.07-.02.13-.02.2-.04.37-.06.75-.08,1.13,0,.1,0,.19,0,.29-.01.17-.02.33-.02.5-.01.17-.01.33-.01.51v.1c0,.3,0,.6.01.9.02.74.07,1.49.17,2.25.02.19.05.41.08.64,0,.02,0,.04.01.06.03.33.07.69.11,1.09.01.14.02.28.04.42.02.29.05.6.08.91.03.41.06.85.1,1.29.04.42.07.84.11,1.26.01.09.01.18.02.27.02.31.04.63.07.95.02.32.04.63.06.94.04.63.15,1.24.29,1.84.02.07.03.14.05.21.03.15.07.31.1.46.08.36.16.72.23,1.08.05.23.09.47.13.71.04.26.07.52.09.78.02.21.03.42.03.63,0,.15,0,.3-.01.45-.01.11-.02.22-.03.32-.03.22-.06.44-.11.67-.03.11-.06.23-.09.34.04.27.14.5.26.69,0,.01.01.01.01.01.08.13.18.24.29.35.08.08.16.15.24.22.03.02.07.05.1.08.07.05.15.1.22.15.11.07.22.15.32.23.15.1.3.22.43.34.07.06.14.12.2.19.06.06.12.13.17.21.04.05.08.11.1.17.02.03.04.05.05.08-.11.21-.23.42-.35.62,0,.01-.01.01-.01.02-.09.14-.17.28-.27.41-.11.17-.23.33-.35.49-.12.15-.25.31-.38.46-.51.6-1.09,1.15-1.69,1.66-.48.42-.98.81-1.49,1.19-.25.19-.51.38-.76.58-.26.18-.51.37-.76.58-.26.18-.5.38-.75.58-.25.19-.5.4-.74.61-.24.21-.47.42-.7.64-.11.11-.22.21-.33.33-.1.11-.2.21-.3.32-.13.13-.24.26-.34.39-.1.12-.2.24-.3.37-.18.24-.36.49-.52.75-.1.15-.19.3-.28.46-.09.14-.17.29-.24.44.04.12.09.19.15.23.02.02.05.04.08.04.06.02.12.02.19.01.06-.01.12-.04.18-.07.03-.02.07-.04.1-.06.05-.03.09-.06.14-.09.06-.04.13-.09.19-.13.07-.05.14-.1.2-.14.07-.05.14-.09.21-.12.34-.18.69-.21.95.33.14.03.25.09.35.16.06.04.11.09.16.16.03.03.06.07.08.11.04.05.07.1.1.16.09.16.16.35.22.54.04.12.08.23.12.34,0,.02.01.03.01.04.04.1.08.2.13.29.05.1.1.19.17.28.04.06.1.12.16.17s.12.1.2.13c.38-.04.73-.05,1.05-.03.08,0,.16,0,.23.02.03,0,.06,0,.08.01.07.01.14.02.2.04.09.02.17.05.25.08.08.03.14.07.21.11,0,.01.01.01.01.01.01.01.02.01.03.02.03.03.07.05.09.08.03.02.05.04.06.07.04.04.07.08.1.12.03.04.05.1.07.15v1.7c-3.04,1.06-8.27,1.63-10.21-.68v-4.08c-.02-.09-.02-.18-.02-.25,0-.12.02-.23.06-.32.03-.09.09-.16.16-.23.09-.1.21-.18.34-.24h.01c.13-.07.26-.13.37-.2h.01c.06-.04.12-.08.17-.12.09-.09.17-.19.22-.32,0-.01.01-.01.01-.02v-.02s.02-.07.02-.11c.01-.06.02-.13.01-.21.05-.17.05-.3.03-.4ZM182.67,113.82c-.07-.01-.13-.02-.19-.04-.06-.01-.12-.03-.18-.05-.06-.01-.12-.04-.17-.07h-.01s-.1-.06-.14-.09c-.1-.07-.18-.14-.25-.23-.05-.04-.08-.09-.11-.14-.04-.06-.08-.12-.11-.19-.03-.05-.06-.1-.07-.15-.06-.1-.1-.2-.13-.32-.03-.06-.04-.12-.06-.18-.07-.19-.11-.38-.16-.58h0c.83-.16,1.42-.07,1.76.27.06.06.11.12.15.19,0,.01.01.01.01.01.03.05.06.11.08.18.02.06.04.13.06.2.02.03.02.07.03.11.01.03.01.07.01.11.02.27,0,.6-.07.97-.17.02-.32.01-.46,0ZM233.17,116.55c-2.86-.63-5.2.68-7.83,1.02-6,.78-10.13.18-14.63,2.72-.71.4-1.38.99-2.05,1.37-2.56,1.43-3.59,2.6-5.44,5.1-1.39,1.87-1.78,2.7-3.07,5.11-.36.68-1.07,1.42-1.36,2.04-2.28,4.91-2.73,12.27-2.38,17.02.09,1.23,1.05,2.65,1.36,4.43.52,2.97.85,6.95,2.38,9.53,1.43,2.39,4.49,3.4,5.45,6.81-4.1-1.98-4.84-4.92-7.49-8.86-.75-1.12-2.16-1.95-2.72-3.06-.94-1.84-1.71-6.72-2.04-10.55-.17-1.93-.22-4.22,0-5.79.76-5.66,1.48-16.68-1.03-21.79-1.55-3.15-4.21-5-7.48-7.15,4.04-1.32,9.55-.75,12.93-.34,3.51.43,7.48.03,11.24.34,3.45.3,7.92.45,12.25.34,4.99-.12,10.76.84,15.65,1.37h.01c2.06-.22,3.49-1.25,4.42.68-1.24,2.58-6.39.68-8.17-.34ZM253.95,20.89c.09.04.21.07.34.07v-1.84c-.36.34-.59.81-.34,1.77Z"/>
  <path d="M254.29,5.78v-.55c.1.28.08.45,0,.55Z"/>
  <path d="M254.53,64.4c-.2-1.04-.22-2.22,0-3.27-.22,1.04-.21,2.22,0,3.27Z"/>
  <path d="M254.98,65.82h-.01c-.05-.1-.09-.21-.13-.32.05.11.09.22.14.32Z"/>
  <path d="M254.54,16.54v2.38c-.09.06-.17.13-.25.2v-2.56c.08-.01.16-.02.25-.02Z"/>
  <path d="M254.54,138.23v14.86c-.09.26-.17.53-.25.8v-16.31c.09.21.17.43.25.65Z"/>
  <path d="M254.54,186.19v.93c-.08.01-.17,0-.25,0v-.87c.08-.02.16-.04.25-.06Z"/>
  <path d="M254.78,100.48c-.08-.01-.16-.02-.24-.02v6.24c-.08.01-.17.01-.25.01v-8.44c.09-.1.18-.2.25-.31v2.49c.08,0,.16.01.24.03Z"/>
  <path d="M254.98,65.82h-.01c-.05-.1-.09-.21-.13-.32.05.11.09.22.14.32Z"/>
  <path d="M254.78,100.48c-.08-.01-.16-.02-.24-.02h0c.08-.01.16,0,.24.02Z"/>
</svg>