<?xml version="1.0" encoding="UTF-8"?>
<svg id="gun_xA0_Image" xmlns="http://www.w3.org/2000/svg" version="1.1" xmlns:cc="http://web.resource.org/cc/" xmlns:dc="http://purl.org/dc/elements/1.1/" xmlns:inkscape="http://www.inkscape.org/namespaces/inkscape" xmlns:ns1="http://sozi.baierouge.fr" xmlns:rdf="http://www.w3.org/1999/02/22-rdf-syntax-ns#" xmlns:sodipodi="http://sodipodi.sourceforge.net/DTD/sodipodi-0.dtd" xmlns:svg="http://www.w3.org/2000/svg" viewBox="0 0 254.54 257.48">
  <!-- Generator: Adobe Illustrator 29.5.1, SVG Export Plug-In . SVG Version: 2.1.0 Build 141)  -->
  <defs>
    <style>
      .st0 {
        fill: #fff;
      }
    </style>
  </defs>
  <path class="st0" d="M219.61,10.68c1.03-4.18,3.38-6.74,6.12-6.81,2.97-.08,3.32,2.8,5.79,4.43,2.4,1.58,5.83.88,7.15,2.38-7.03.53-12.36.59-19.06,0h0Z"/>
  <path class="st0" d="M40.2,5.91c-2.13.48-7.42,1.68-8.85-.34,3.26-.61,6.42-.4,8.85.34Z"/>
  <path class="st0" d="M.71,5.78c.22.28.92.07,1.36.13v-.68s-1.36,0-1.36,0c-.1.28-.08.45,0,.55Z"/>
  <path class="st0" d="M29.3,6.25c-.68.13-4.17.44-4.43-.68,1.39-.21,7.56.06,4.43.68Z"/>
  <path class="st0" d="M86.83,7.27c-1.57.31-4.35.44-5.44-.68,2.35.34,4.42-1.07,5.44.68Z"/>
  <path class="st0" d="M80.37,6.93c-1.91.14-6.18,1.78-7.15-.34,1.91-.68,5.15,0,7.15.34Z"/>
  <path class="st0" d="M83.77,13.74c-.42-1.28-2.27-1.13-2.04-3.06h1.02c-.09,1.24,2.04,2.03,1.02,3.06Z"/>
  <path class="st0" d="M25.56,12.72h-1.02c-.06-.74.28-1.08,1.02-1.02v1.02Z"/>
  <path class="st0" d="M87.86,14.42c-.18-.5-.5-.86-.68-1.36.43-.02.47-.44,1.02-.34-.19.49.4,1.76-.34,1.7Z"/>
  <path class="st0" d="M64.03,14.08c-.64-.15-2.05.46-1.7-.68h1.7v.68Z"/>
  <path class="st0" d="M19.43,14.76c-.54-.51-.38-1.52.68-1.36.1.78-.08,1.28-.68,1.36Z"/>
  <path d="M75.94,21.91c-2.64-.42-3.87-2.26-4.42-4.77,2.53.53,3.66,2.47,4.42,4.77Z"/>
  <path d="M53.81,17.82c.01.47-.16.75-.34,1.02-.8-.33-2.16-.11-2.04-1.36.9,0,1.94-.13,2.38.34Z"/>
  <path d="M39.86,18.16c-1.03-.11-2.65.38-2.72-.68.85.28,2.93-.66,2.72.68Z"/>
  <path class="st0" d="M10.92,18.16c1.8-.99,3.98.24,4.77,1.36-1.86.01-4.82,1.25-4.77-1.36h0Z"/>
  <path class="st0" d="M248.54,21.57c-.9-.23-1.73-.54-2.38-1.02,1.25.22,1.31-.74,2.38-.68.63.65.03.85,0,1.7Z"/>
  <path class="st0" d="M235.94,20.89c.15-1.28,2.34-.58,3.4-.68,1.87-.18,5.31-.75,6.47.68-3.18.83-6.4-.1-9.87,0h0Z"/>
  <path class="st0" d="M225.39,20.55c1.72-.53,5.17-.61,6.47.34-2.75-.25-4.59.7-6.47-.34h0Z"/>
  <path class="st0" d="M219.26,20.55c.92-.26,3.73-.93,4.08.34-.98.33-2.96.16-4.08-.34h0Z"/>
  <path class="st0" d="M192.37,20.55c1.15-1.03,1.03,1.26,0,0Z"/>
  <path class="st0" d="M189.98,21.23c-1.12.51-4.56.82-4.77-.68,1.32-.47,4.32-.75,4.77.68Z"/>
  <path class="st0" d="M171.6,20.55c1.1.08,1.44-.6,2.72-.34.35,1.17-2.56.81-2.72.34Z"/>
  <path d="M48.71,21.23c1.47.15,2.41-1.43,3.4-.68-1.17,3.39-8.71,2.16-11.57,2.73-.15-4.24,5.75-3.06,8.17-2.04Z"/>
  <path d="M115.43,22.25c-.78,1.1-2.36.33-4.09.34-2.38,0-5.99.87-6.13-1.02,4.06.21,7.51-1.62,10.21.68Z"/>
  <path d="M203.26,21.91c-.5.46-2.7.7-2.72-.34.88-.34,2.28-.6,2.72.34Z"/>
  <path d="M154.24,22.25c-1.42.63-3.71.39-4.43-.68,1.3-.78,3.7-.19,4.43.68Z"/>
  <path d="M140.62,21.57c-1.33,2.09-4.32.92-6.47,1.02-.52.03-.81.63-1.36.68-2.35.23-5.19-1.06-6.81,1.02-.97-2.03-3.61-1.61-5.11-2.38,5.81-.98,13-.7,19.75-.34Z"/>
  <path d="M205.64,21.57c2.38.22,5.67-.45,7.49.34-1.64,1.83-6.7,2.4-7.49-.34Z"/>
  <path d="M120.2,22.25c-.63.59-2.44.44-2.72-.34.75-.21,2.54-.86,2.72.34Z"/>
  <path d="M231.17,23.95c.78-.17,1.74-.67,2.38,0,1.11,1.66-2.91,3.14-2.38,0h0Z"/>
  <path d="M122.92,25.65c-1.27,2.51-4.11.34-6.13,0-2.63-.44-5,.22-7.15-.34,3.49-3.41,8.9-.21,13.28.34Z"/>
  <path d="M235.6,24.63c.46-.76,2.57-1,3.4-.34v1.7c-1.47.76-3.14.07-3.4-1.36h0Z"/>
  <path d="M93.64,27.36c-1.08-.62-3.78-2.49-2.38-3.4,1.16.77,2.43,1.43,2.38,3.4Z"/>
  <path d="M76.96,27.7c-1.79.2-2.28-.9-2.38-2.38,1.59,0,2.06,1.12,2.38,2.38Z"/>
  <path d="M193.05,25.99c-.03,1.48-2.28,1.15-2.38,0,.78-.17,1.74-.67,2.38,0Z"/>
  <path d="M50.75,25.99c-.85,1.17-3.78.43-6.13.34-1.45-.06-3.9,1.23-3.74-.68,3.2.2,7.23-.42,9.87.34Z"/>
  <path d="M38.84,26.33c-1.85-.44-2.67,1.42-4.09.34.08-1.75,4.23-.59,4.09-.34Z"/>
  <path d="M14.67,25.99c.77-.1,1.27.08,1.36.68-.6-.08-1.71.34-1.36-.68h0Z"/>
  <path d="M3.77,26.67c1.12.81.8,3.56-.68,3.74-.39-.72-.97-3.99.68-3.74h0Z"/>
  <path d="M72.88,29.4c-.56-.8-1.52-1.2-1.7-2.38,1.35-.21,2.65,1.41,1.7,2.38Z"/>
  <path d="M137.56,31.44c-1.12,0-2.91,1.46-3.4,0,.8-.92,2.8-1.53,3.4,0Z"/>
  <path d="M76.62,34.16c-1.78-.26-2.52-1.57-2.72-3.4.91-.37,3.68,1.88,2.72,3.4Z"/>
  <path d="M148.11,31.78c-1.59.91-2.89,2.1-5.79,1.7-.96.52-1.45,1.72-2.72,1.02-1.07-.51-1.13-2.04-1.7-3.06,3.52-.5,8.2-1.07,10.21.34Z"/>
  <path d="M134.15,34.16c-.82-.14-.74.62-1.7.34-.78-.95-.19-2.71,1.36-2.38-.25,1.04.59,1,.34,2.04Z"/>
  <path d="M73.9,38.59c-1.44-.13-3.38-3.07-2.04-3.74.57,1.36,2.46,1.4,2.04,3.74Z"/>
  <path class="st0" d="M132.11,39.27c2.68.35,5.4-1.08,7.15.34-6.41-.08-14.25,1.65-20.43.34,1.5-3.11,10.37-1.06,13.28-.68Z"/>
  <path class="st0" d="M226.75,39.27c1.23-1.21,2.54-.27,4.09,0,4.54-.91,11.62-.78,17.36-.34v1.02c-5.41.7-12.66.44-17.7-.34-1.6.33-2.81,1.17-3.75-.34h0Z"/>
  <path class="st0" d="M206.66,38.93c.08.43.53.7-.34.68-1.75.68-3.59-.02-5.11,0-.67,0-1.27.63-2.04.68-1.63.1-3.58-.58-5.11-.68-1.15-.08-2.9,1.09-3.4-.68,4.52-.62,12.54-.48,16,0Z"/>
  <path class="st0" d="M158.32,38.93c-.4,1.87-3.63.91-3.4,3.4-1.03-.21-2.93.43-3.4-.34.45,0,.43-.94,0-1.02-.83.84-1.48-.25-2.72,0-1.16-.02-.52,1.75-1.7,1.7-1.52-.08-.85-2.33-2.38-2.38-1.49.02-3.19.24-3.4-1.02,5.06-1.16,10.85.03,17.02-.34Z"/>
  <path class="st0" d="M116.79,39.61h-.68c-.21-.02-.4-.05-.34-.34.45,0,.31-.6.68-.68.02.43.44.47.34,1.02Z"/>
  <path class="st0" d="M113.39,40.29c-.66-.41-4.57-.67-3.06-1.02,1,.09,1.05-.77,2.04-.68,1.14,0,1.8.47,2.38,1.02-.21.47-1.31.05-1.36.68Z"/>
  <path class="st0" d="M219.6,38.93c1.16-.02,2.38-.11,2.72.68-.79.25-2.91.93-2.72-.68h0Z"/>
  <path class="st0" d="M215.51,39.61c-.6-.08-1.71.34-1.36-.68.78-.1,1.28.08,1.36.68Z"/>
  <path class="st0" d="M188.96,39.61c-4.47.28-8.31,2.43-10.89-.34,3.02-.12,7.99-1.05,10.89.34Z"/>
  <path class="st0" d="M171.94,40.29c-.11-.46-.49-.65-.34-1.36h1.36c.1.89-.13,1.46-1.02,1.36Z"/>
  <path class="st0" d="M169.56,39.61c-.62.63-1.91.18-2.38-.34.87-.31,1.93-.55,2.38.34Z"/>
  <path class="st0" d="M162.75,39.61c-.86.26-3.45.92-3.74-.34,1.83.16,2.6-.62,3.74.34Z"/>
  <path class="st0" d="M226.07,39.61c-.44.47-2.04.59-2.04-.34.6.19,2-.41,2.04.34h0Z"/>
  <path class="st0" d="M176.37,39.95c-.6-.19-1.41-.17-1.7-.68.84-.05,1.65-.06,1.7.68Z"/>
  <path class="st0" d="M103.86,39.27h1.36c.07,1.12-1.6,1.34-1.36,0Z"/>
  <path class="st0" d="M127.69,42.33c-.92.78-3.29.12-4.77.34-.23-1.59,4.53-1.44,4.77-.34Z"/>
  <path class="st0" d="M156.96,45.4c-1.92.35-6.57,1.05-7.49-.68.96-2.05,7.34-2.11,7.49.68Z"/>
  <path class="st0" d="M106.24,45.06c-.67.68-1.94.22-2.72,0v-1.36c1.01-.76,2.67.1,2.72,1.36Z"/>
  <path class="st0" d="M73.56,46.76c-.85.9-2.57-.83-2.72,1.02,1.81.72,6.52-.12,8.17,1.7-1.53,1.51-7.8-1.12-9.19,1.36,2.38,2.19,9.74-1.85,10.55,2.38-3.08.72-9.72,1.98-12.26,0,1.11-3.56-.97-6.67,0-9.87,2.41.54,2.31,3.59,5.45,3.41Z"/>
  <path class="st0" d="M128.71,44.04c-.08.64.38.75.34,1.36-4.2.89-10.09-.15-14.3-.34-.99-.04-2.16,1.05-2.72-.34,4.73-.34,10.92-1.12,16.68-.68Z"/>
  <path class="st0" d="M147.09,44.38v1.02c-4.25-.52-9.73,1.1-13.28-.68,4.33-1.36,9.36.36,13.28-.34Z"/>
  <path class="st0" d="M133.47,45.4c-1.1-.15-2.94.45-3.06-.68,1.08-.51,2.33-.07,3.06.68Z"/>
  <path class="st0" d="M160.37,45.4c-.11.72-1.48-.06-1.7-.34.82.14.74-.62,1.7-.34v.68Z"/>
  <path class="st0" d="M34.41,47.78c1.83.71,5.47.55,6.13-1.02,4.57.73,6.39-2.83,9.53-.68,4.3-.11,8.85-.6,11.91,0,.42,1.05.53,2.42.68,3.74-1.47.62-5.79-.9-7.15.68,2.54,1.75,6.35-.93,8.17,1.02-.04,1.66.18,3.59-.34,4.77-5.36,1.93-15.44.68-23.83,1.02-2.69.11-5.65.33-7.83,0-.49-.07-1.22-.78-2.04-1.02-4.47-1.28-8.57-2.25-8.51-6.47,1.02-1.78,3.54-2.42,6.13-1.7.75-.72-.83-2.11,1.36-1.7,1.01.08-1.36,1.26,0,1.7.88.63,2.76,0,3.4-.68-.04-.64-1.12-.24-1.02-1.02,1.28-.22,3.6-.75,4.77,0,.25,1.16-1.25.56-1.36,1.36h0ZM44.96,50.16c.99,1.42,3.41.26,5.11.34-1.03-1.52-3.51-.85-5.11-.34ZM35.77,50.5c.11-.6-1.91-.61-1.36.34.71.15.9-.23,1.36-.34Z"/>
  <path class="st0" d="M99.43,46.08c.3-.26.97.21,1.02.34.49,1.3-1.69.25-1.02-.34Z"/>
  <path class="st0" d="M97.73,46.76h-.68v-.68h.68v.68Z"/>
  <path class="st0" d="M85.13,47.1c.96,1.75-.21,4.51,1.36,6.13-1.63,2.8,1.25,10.1-2.72,10.56-1.01-1.15-.81-3.5-1.7-4.77,1.66-1.95-.33-4.31-.34-6.47,0-1.21.95-2.17,1.02-3.4.07-1.17-1.42-2.09-.34-3.06,1.21.04,2.74-.25,2.72,1.02Z"/>
  <path d="M.02,65.82h.01c.05-.1.09-.21.13-.32-.05.11-.09.22-.14.32ZM.47,64.4c.1-.53.16-1.09.16-1.65,0-.06,0-.12-.01-.19,0-.05,0-.1-.01-.15.01.12.01.23.01.35,0,.56-.05,1.12-.15,1.64ZM2.01,67.7c.01.06.02.12.02.18.02.3,0,.6-.07.9-.02.06-.04.12-.05.18-.04.12-.08.23-.13.34-.02.06-.05.12-.09.17-.03.05-.06.1-.09.15-.07.1-.14.2-.22.29-.21,0-.43,0-.67.02v2.64c1.02-.08,2.04-.18,3.07-.28.68-1.57.85-6.14-.68-7.48-.25-1.05.58-1.01.33-2.05-.35-1.43-1.62-2.7-.68-4.42-1.77-1.18-1.48-4.42-2.04-6.81v14.38c.22.07.41.18.58.32.05.05.1.09.14.14.05.05.09.1.13.15.08.11.15.22.21.34.03.06.06.13.08.19.08.2.13.42.16.65Z"/>
  <path class="st0" d="M162.07,48.8c.96,2.2,2.49,9.97-2.04,8.17.69-3.08,1.44-7.61-2.38-7.83.04.84.05,1.64-.34,2.04-1.04.13-1.73-.89-2.04.34-.17,1.07.61,1.2.34,2.38h1.7c.3,1.09-.88.71-1.02,1.36-1.28.26-.23-1.81-1.7-1.36-1.95.09-2.23,1.85-2.72,3.4-1.97-.27-2.91.49-4.77.34-.31-.94-1.5-1-2.38-1.36.16-1.65,2.53-1.1,2.04-3.4-.49-.64-2.23-.04-2.72-.68-.27-2.09,1.34-2.29,3.06-2.38.31,1.05.59,2.13,2.38,1.7.32,2.59-2.72,3.62-2.38,5.1,1.79-1.62,4.93-1.88,5.45-4.77,1.23-.13,2.17-.56,2.38-1.7-.68-.46-1.62-.65-2.38-1.02-.73-2.21,1.73-3.02,3.06-2.04-.56.26-.56,2.81,0,3.06,1.9-.03,2-1.86,2.38-3.4,1.94.1,2.28,1.8,4.09,2.04Z"/>
  <path class="st0" d="M137.56,50.84c-.76.27-1.33.72-2.38.68.16-1.3-.14-2.13-1.02-2.38-.84.4-2.14.36-1.7,2.04.06,1.07,1.83.44,1.7,1.7-.25,1.23-.67,2.27-2.38,2.04.97-1.63-.42-3.59-2.04-2.38-.33,1.69,1.38,1.35,1.7,2.38-.92.67-2.18,1-2.04,2.73-1.98-.17-4.69.38-6.13-.34.01-1.46,1.81-1.14,1.36-3.06-1.48-.56-1.31-2.78-2.38-3.74-2.11.18-3.2-.66-3.06-2.72,2.83-.57,5.45-1.36,9.19-1.02-.02,1.04.31,1.73,1.02,2.04,1.04-.25,1.24.35,2.04.34-.15-1.51.57-2.15,1.7-2.38,1.78,1.06,4.56,1.11,4.43,4.08ZM124.96,48.12c-1.02-.03-1.73,1-1.02,1.7,1.06.16,1.09-.73,1.02-1.7ZM125.98,50.5c.15,1.17-.13,1.91-.34,2.72,1.11-.7,2.64-.99,3.06-2.38-.49-.53-1.74-.3-2.72-.34Z"/>
  <path class="st0" d="M149.81,47.78c.29,1.09-.54,1.05-.68,1.7-1.6-.1-2.51-.9-3.06-2.04,1.25.11,3.01-.29,3.74.34Z"/>
  <path class="st0" d="M143.01,47.78c.66.83.42,2.94-.34,3.4-1.9-.59-1.97-3.02-4.09-3.4,1.92-.53,2.03,1.08,4.43,0Z"/>
  <path d="M11.61,47.78c.68-.43,3.57-.8,3.74.34-.87.84-3.3,1.02-3.75-.34h0Z"/>
  <path d="M3.43,47.78c1.14-.29,4.53-.96,5.11.34-1.05.96-4.45,1.04-5.11-.34h0Z"/>
  <path d="M123.94,49.82c-.71-.7,0-1.73,1.02-1.7.07.97.04,1.86-1.02,1.7Z"/>
  <path class="st0" d="M100.45,48.46c.27.08.4.28.34.68-.31,1.82.4,6-.34,8.85-1.06.77-4.61-1.03-5.1,1.02,2.17.16,2.7-.15,4.09.68-.03,2.25-.4,3.09-1.36,4.43-1.86,2.59-1.38,4.13-2.04,8.17-.26,1.62-1.04,3.33-1.36,5.11-.36,1.98-.23,4.27-.68,6.13-.2.83-.87,1.51-1.02,2.38-.73,4.11-.28,9.45-4.09,9.87-3.45-4.69.44-13.69-2.04-18.38,2.8-4.83-.64-12.29,1.36-17.36,1.75-.74,4.84-.15,5.79-1.7-2.32-.17-4.7-.29-6.47-1.02-.16-4.31,5.79-.43,7.15-3.06-2.49-.97-6.72,1.34-7.49-1.7,2-2.31,9.03.41,10.89-2.04-2.48-1.49-8.36.41-10.21-1.7,3.83-.96,9.32-.46,12.59-.35ZM95.35,54.25c-.32,1.23,1.34.48,2.04.68-.04-.87-1.14-.68-2.04-.68Z"/>
  <path class="st0" d="M115.77,50.84c-1.48-.02-1.57.51-2.38-.34-.09-2.09,2.9-2.2,2.38.34Z"/>
  <path class="st0" d="M152.2,51.53c-1.05-.2-2.41-.09-2.38-1.36.76-.26,1.33-.72,2.38-.68v2.04Z"/>
  <path d="M50.07,50.5c-1.7-.08-4.11,1.08-5.11-.34,1.6-.51,4.07-1.18,5.11.34Z"/>
  <path d="M1.72,51.19c2.64-.88,8.65-2.59,11.58.34-1.71,1.06-4.14.15-6.13.34-.59.06-.81.64-1.36.68-1.78.12-3.8.1-4.08-1.36h0Z"/>
  <path d="M34.41,50.84c-.54-.94,1.47-.94,1.36-.34-.46.11-.65.49-1.36.34Z"/>
  <path d="M128.71,50.85c-.42,1.4-1.95,1.68-3.06,2.39.21-.82.49-1.56.34-2.73.98.04,2.23-.19,2.72.34Z"/>
  <path d="M16.37,50.5c-.07.96-.59,1.45-1.7,1.36.06-.96.59-1.45,1.7-1.36h0Z"/>
  <path class="st0" d="M140.28,51.87c-.01,1.24-1,1.5-2.38,1.36-.75-2.16,2.18-3.11,2.38-1.36Z"/>
  <path class="st0" d="M119.17,51.53c.05,1.41-.63,2.1-2.04,2.04-.39-.4-.39-1.2-.34-2.04.45-.49,1.93-.49,2.38,0Z"/>
  <path class="st0" d="M159,53.23h-1.36c-.11-.79.05-1.31.34-1.7h1.02v1.7Z"/>
  <path class="st0" d="M121.56,54.25c.23.91-.7.66-1.02,1.02-.11-.46-.49-.65-.34-1.36.59-.02,1.06.08,1.36.34Z"/>
  <path class="st0" d="M133.47,57.31c1.12-.35,1.64-1.3,1.36-3.06,4.51-.32,2.15,5.27-1.36,3.06Z"/>
  <path d="M97.39,54.93c-.7-.21-2.36.55-2.04-.68.9,0,2-.19,2.04.68Z"/>
  <path class="st0" d="M70.83,55.27c2.8.48,4.92.16,7.83,0,.19.49.53.83,1.02,1.02.13,11.3-.17,26.28-.34,37.79-.61.53-1.33.93-2.04,1.36.52.84,2.11.61,2.04,2.04.07,1.06-.23,2.5.34,3.06-.25.54-1.67-.08-1.36,1.02-.07,1.21,1.6.67,1.36,2.04v4.08c-1.94,2.31-7.17,1.74-10.21.68v-1.7c.29-.73,1.25-.79,2.38-.68.93-.43.61-2.11,1.7-2.38.7-1.43,1.98,1.13,2.38,0-2.35-4.81-8.14-6.17-10.55-10.9.55-1.16,2.15-1.26,2.38-2.72-.74-2.66.49-4.92.68-7.49.22-2.95.46-6.16.68-7.83.46-3.49-.05-7-.34-9.19-.47-3.5.15-7.23,1.36-9.87.26-.08.67-.01.68-.34ZM69.81,93.74c1.22,1.51,2.14,3.31,4.43,3.74-.96-1.68-1.98-4.63-4.43-3.74ZM74.58,97.48c.29,1.62,1.6,3.72,3.4,2.72-.57-1.47-1.98-2.1-3.4-2.72Z"/>
  <path class="st0" d="M22.5,57.65c-1.59.67-4.2-.56-4.77-2.04,1.13-.11,3.8.89,4.77,2.04Z"/>
  <path class="st0" d="M132.45,57.65h-1.7c-.09-.78.08-1.28.68-1.36.34.45.92.67,1.02,1.36Z"/>
  <path class="st0" d="M1.29,66.23c-.17-.14-.36-.25-.58-.32v4.02c.24-.02.46-.03.67-.02h.01c.66-.72.82-1.94.46-2.86-.02-.06-.05-.13-.08-.19-.06-.12-.13-.23-.21-.34-.04-.05-.08-.1-.13-.15-.04-.05-.09-.09-.14-.14Z"/>
  <path class="st0" d="M.47,64.4c.2-1.04.22-2.22,0-3.27.22,1.04.21,2.22,0,3.27Z"/>
  <path class="st0" d="M.02,65.82h.01c.05-.1.09-.21.13-.32-.05.11-.09.22-.14.32Z"/>
  <path class="st0" d="M58.24,60.38c-3.14-.31-5.63.84-7.83-.34,1.63-1.23,6.12-.5,7.83.34Z"/>
  <path class="st0" d="M41.9,60.04c1.34-.57,4.22-1.1,5.79-.34.27.08.4.28.34.68-3.76.48-8.28.42-11.23-.34,1.31-.95,3.72-.75,5.11,0Z"/>
  <path class="st0" d="M35.77,60.38c-.7-.21-2.36.55-2.04-.68h2.04v.68Z"/>
  <path d="M10.92,65.48c2.82-.24,6.27-.52,8.17-.68,1.65-.14,3.45.24,5.11.34,1.63.1,3.58-.61,4.77.68-2.76,1.03-7.9.54-12.26.34-2.11-.1-4.41.61-5.79-.68h0Z"/>
  <path class="st0" d="M85.47,67.19c-.5.5-2.23.5-2.72,0-.53-2.51,3.42-2.68,2.72,0Z"/>
  <path d="M5.81,66.16c-.13-1.72,2.11-.78,2.72-.34-.96.69-1.4.61-2.72.34h0Z"/>
  <path class="st0" d="M85.47,69.23v1.02c-.88.71-2.9.38-2.72-1.02.49-.5,2.23-.5,2.72,0Z"/>
  <path class="st0" d="M84.45,76.04c-.99.5-.99-1.52,0-1.02v1.02Z"/>
  <path d="M.71,78.2v1.69c.71-.06,1.4-.19,2.04-.45-.23-1.18-1.01-1.33-2.04-1.24Z"/>
  <path class="st0" d="M84.79,78.76c.33,1.37-2.03,1.37-1.7,0,1.05-.24.65-.24,1.7,0Z"/>
  <path d="M21.48,78.76c-1.18,1.76-5.62,1-6.81.34,1.79-.44,4.86-1.16,6.81-.34Z"/>
  <path d="M3.43,79.1c.81-.68,2.28-.9,3.4-.34.09,1.69-3.18,1.85-3.4.34h0Z"/>
  <path d="M11.94,78.76c-.14,1.64-2.55,1.5-3.06.34.56-.57,2-.27,3.06-.34h0Z"/>
  <path class="st0" d="M85.13,81.82c-.48.51-1.65,1.07-2.38.34-.4-1.4,2.37-1.37,2.38-.34Z"/>
  <path d="M6.16,83.19c1.29-.28,2.43-.44,3.4.34-1.03.46-2.73.47-3.4-.34h0Z"/>
  <path class="st0" d="M61.3,88.29c-3.12-.57-6.78.53-8.51.68-3.56.3-7.23-.6-10.21-.68-2.05-.06-4.19.72-6.13.68-1-.02-1.98-.63-3.06-.68-4.17-.18-7.98.4-10.21-2.72,3.3-.49,7.74-1.54,10.21,0,.75-.89,1.26-.91,2.38-1.02,4.03-.39,9,.55,13.62.34,3.11-.14,6.85-1.55,10.21-.68.98-.27,1.81-.69,2.72-1.02.05,2.09-.11,3.97-1.02,5.11Z"/>
  <path class="st0" d="M85.47,85.23c1.16,1.27-2.12,1.86-3.06,1.02-.21-1.52,2.14-1.7,3.06-1.02Z"/>
  <path class="st0" d="M85.47,88.63c.24,4.06.49,7.9-2.04,9.87-1.72-2.29-2.87-5.17-.68-7.49-.49-.85-.82-1.34-.34-2.38.55-.51,2.51-.51,3.06,0Z"/>
  <path class="st0" d="M24.2,90.67c-.87-.15-1.56-.48-2.04-1.02.67-.63,2.51-.51,2.04,1.02Z"/>
  <path class="st0" d="M49.05,91.36v1.36c-1.38-.33-2.67-.74-3.4-1.7,1.45-.2,2.25.24,3.4.34Z"/>
  <path class="st0" d="M28.28,92.38c-.44.48-1.8,1.22-2.04,0,.44-.48,1.8-1.22,2.04,0Z"/>
  <path d="M74.24,97.48c-2.29-.44-3.21-2.24-4.43-3.74,2.45-.88,3.46,2.06,4.43,3.74Z"/>
  <path class="st0" d="M58.92,98.16c0,.34.28.41.34.68.62,1.76,2.13,2.64,3.74,3.4,1.18,2.91,4.44,3.72,5.44,6.81-7.83.23-16.75,2.5-24.17,0,0-.9-.13-1.94.34-2.38-2.04-2.38-1.56-7.29-2.04-11.23,1.53.4,2.27,1.59,3.06,2.72,1.62.42,1.87,2.21,3.75,2.38.78.82,1.63,3.35,3.4,2.04-1.6-2.96-6.98-3.89-6.47-7.83,2.61-1.14,2.88,2.4,5.45,2.38.56.92,1.33,1.62,2.38,2.04.33.69.7,1.35,1.02,2.04,1.54.51,2.03,2.06,3.74,2.39.88,1.27,2.17,3.94,4.09,3.06-.45-1.59-1.9-2.19-3.4-2.72-.56-1.17-1.08-2.07-2.04-3.06-1.78-1.84-5.36-2.87-5.11-5.44,1.05-1.02,2.79.15,3.75.34,3.14-2.51,10.13,4.08,7.83,5.79-2.11-.73-2.94-2.73-5.1-3.4h0ZM46.32,101.91c.22,2.05,2.46,2.08,3.06,3.74.31-1.23-.73-4.03-3.06-3.74ZM54.15,103.95c-1.13.83.66,1.58,1.02,2.04,1.13-.83-.66-1.58-1.02-2.04Z"/>
  <path class="st0" d="M67.77,98.5c-2.43.89-4.61-1.23-5.11-3.4,2.28-.73,4.47,1.38,5.11,3.4Z"/>
  <path class="st0" d="M89.56,100.21c-1.68.06-2.09-1.68-1.7-2.72,1.92-.52,2.54,1.55,1.7,2.72Z"/>
  <path d="M77.98,100.21c-1.81,1-3.11-1.11-3.4-2.72,1.42.62,2.83,1.25,3.4,2.72Z"/>
  <path d="M2.06,101.39c.11.23.19.49.22.76.02.2.02.4-.01.6h0c-.01.09-.03.17-.05.25-.06.24-.17.47-.32.66-.06.08-.14.16-.22.24-.08.07-.17.13-.27.19-.2.11-.43.18-.7.2-.08.01-.16.01-.25.01v2.4c.08.01.17.01.25.01.9,0,1.82-.13,2.72-.38.62-1.48,2.05-2.17,2.04-3.4,0-2.58-3.27-2.97-4.76-4.66-.09-.1-.18-.2-.25-.31v2.49c-.08,0-.16.01-.24.03.08-.01.16-.02.24-.02.05-.01.09-.02.14-.02.04,0,.08,0,.11.01.06,0,.13.01.19.02.06.01.12.03.17.04.12.03.22.07.32.14.2.11.36.27.5.45.03.04.07.08.09.13.03.05.06.1.08.16Z"/>
  <path class="st0" d="M70.49,101.91c-.72.75-1.51.07-2.04-.34-.06-.85.52-1.07,1.02-1.36.31.6,1.38.43,1.02,1.7Z"/>
  <path class="st0" d="M.22,100.48c.08-.01.16-.02.24-.02v3.84c.09,0,.17,0,.25-.01.27,0,.5-.08.7-.2.1-.06.19-.12.27-.19.08-.08.16-.16.22-.24.15-.19.26-.42.32-.66.02-.08.04-.16.05-.24h0c.03-.21.03-.41.01-.61-.02-.27-.1-.53-.22-.76-.02-.06-.05-.11-.08-.16-.02-.05-.06-.09-.09-.13-.13-.19-.3-.34-.5-.45-.1-.07-.2-.11-.32-.14-.05-.01-.11-.03-.17-.04-.06,0-.13-.02-.19-.02-.03-.01-.07-.01-.11-.01-.05,0-.09,0-.14.01-.08,0-.16.01-.24.03Z"/>
  <path class="st0" d="M89.9,103.61c-.53.49-1.59.46-2.04,1.02.1,1.58,1.05,1.89,0,3.06-3.33-.23-.78-4.57-.34-6.13,1.71-.23,2.13.82,2.38,2.04Z"/>
  <path d="M33.05,105.31c-.81.74-2.58.9-3.75.34-.45-1.11-.64-3.44.34-4.09,2.27.12,3.13,1.63,3.4,3.75Z"/>
  <path d="M49.39,105.65c-.61-1.67-2.85-1.69-3.06-3.75,2.34-.29,3.38,2.52,3.06,3.75Z"/>
  <path d="M55.18,105.99c-.36-.46-2.15-1.22-1.02-2.04.36.46,2.15,1.22,1.02,2.04Z"/>
  <path class="st0" d="M84.45,107.36c.16,1.2.76,1.96.68,3.4-.88.37-1.67.83-3.06.68-.49-1.1-.32-2.86-.34-4.43,1.08-.53,1.49.19,2.72.34Z"/>
  <path class="st0" d="M71.86,113.82c-.32-1.68.36-2.36,2.04-2.04-.26,1.1-.56,2.16-2.04,2.04Z"/>
  <path class="st0" d="M24.54,122.67c-.82,1.75-.88-1.17,0,0Z"/>
  <path class="st0" d="M44.62,174.76c.16-1.32,1.88-1.07,2.72-1.7-.21,1.26-1.05,1.9-2.72,1.7Z"/>
  <path class="st0" d="M41.22,177.82c-5.23.39-9.91,5.81-13.96,3.4,2.76-1.53,5.66-1.83,8.85-3.06,2.02-.78,3.3-2.2,5.79-1.7.25.93-.68.69-.68,1.36Z"/>
  <path class="st0" d="M26.24,181.57c-1.84,3.05-8.55,3-12.6,2.72.36-1.91,2.53-.49,4.08-.68,2.51-1.01,4.68-2.35,8.51-2.04h0Z"/>
  <path class="st0" d="M11.6,184.63c.03,1.16-1.26,1.01-2.38,1.02-.02-1.16,1.26-1.01,2.38-1.02h0Z"/>
  <path class="st0" d="M.46,186.19v.93c.08.01.17,0,.25,0,1.98-.05,3.99-.4,5.1-.79-.03-.07-.07-.13-.12-.19-.02-.03-.04-.06-.07-.09s-.06-.05-.09-.07c-1.02-.83-3.75-.19-4.47.35h-.01c-.11-.02-.22-.05-.34-.08-.08-.02-.16-.04-.25-.06Z"/>
  <path class="st0" d="M89.9,20.55c-1.74-2.01-4.47-3.02-5.45-5.79,3.24-.81,3.86,3.83,5.45,5.79Z"/>
  <path d="M.46,138.23v14.86c.09.26.17.53.25.8.43,1.54.65,3.13,1.36,4.53.92,1.81,3.03,3.89,4.43,5.78,2.62,3.54,4.92,5.85,7.83,8.17,1.37-.21,3.12,2.36,2.04,2.39-4.24-.65-5.74-3.12-8.17-5.45-2.33-2.23-3.88-3.44-5.79-5.79-.61-.75-1.18-1.43-1.7-2.1v3.49c.79.94,1.59,1.83,2.39,2.7,3.02,3.28,6.28,6.25,8.85,7.83,2.08,1.27,5.37,2.87,7.49,3.06,1.79.16,4.72-.01,5.44-1.7-.64-2.89-3.53-2.43-5.44-3.4-1.75-.89-4.06-2.75-6.13-4.43-1.99-1.63-4.15-3.33-5.44-5.11-3.44-4.69-3.76-10.06-3.07-16,.16-1.33-.15-2.72,0-4.08.2-1.73,1.51-2.6,2.39-4.09.69-1.18.96-2.78,1.7-3.74,1.3-1.71,5.01-3.76,7.15-5.11,1.13-.71,2.26-1.66,3.06-2.04,2.16-1.02,8.86-1.98,8.85-4.77-.01-2.06-2.3-1.79-3.74-3.06-.48-.99-3.49.54-3.41-1.02,8.8-.55,17.89-.44,23.83,3.4.62.4.9,1.4,1.7,2.05.75.61,1.88.81,2.39,1.36.51.56.95,1.88,1.7,3.06.57.89,1.58,1.81,2.04,2.72.27.53-.01,1.52.34,2.39.28.68,1.16,1.1,1.36,1.7.27.81.09,2.16.34,3.06.32,1.15.89,1.94,1.02,2.73.61,3.57-.03,7.1-.34,9.53-.58,4.62-.87,7-2.72,10.55-1.85,3.54-3.87,5.63-6.13,7.15-2.04,1.37-3.55,2.69-5.45,4.08-5.37,1.57-12.43,4.61-18.72,6.47-2.24.67-4.87,1.46-7.15,1.7-1.14.13-2.33-.17-3.4,0-1.49.25-2.91,1.18-4.43,1.36-2.06.25-4.27.4-6.47.47v2.52c.12.03.23.06.34.08h.01c.72-.54,3.45-1.18,4.47-.35.03.02.07.04.09.07.03.03.05.06.07.09.05.05.1.12.13.19h-.01c-1.11.39-3.12.74-5.1.79v2.95c.23.01.45.01.67,0,7.55-.21,15.04-3.19,22.47-3.41.71-.76,1.89-1.05,2.72-1.7,4.9-.57,8.95-2.4,12.94-4.08,1.88-.8,3.98-1.22,5.44-2.05,1.85-1.04,3.64-2.94,5.45-4.42,3.46-2.83,5.21-4.4,7.83-8.17.79-1.14,2.06-2.02,2.72-3.06,1.36-2.14,1.48-5.57,4.09-6.81,1.53-15.84-1.9-31.1,8.85-37.79,2.08-1.3,5.77-2.72,8.51-3.4,2.48-.62,4.93-.42,6.81-1.7,2.16-1.48,2.55-4.15,5.45-4.77,1.39-2.77,2.29-5.46,3.4-9.53.86-3.13,1.53-6.64,2.38-10.56.57-2.61.27-5.63,1.02-8.85.22-.96.88-2.09,1.01-3.05.23-1.67-.25-3.44,0-5.1.59-3.97,3.67-6.84,4.77-10.22,2.26-.98,4.98-.48,8.17-.34,8.78.4,20.26-.31,29.27,0,5.79.2,15.17,1.81,18.73,0,2.52-1.28,3.77-5.7,3.06-9.19-.63-3.07-3.41-3.21-4.43-6.46,3.13-1.91,7.75,1.11,10.9-.69,1.39.99,4.59.18,5.78,1.37,2.61-1.03,6.51-1.3,10.56-1.03.99.07,2.08.69,3.06.69,1.31,0,2.74-.61,4.08-.69,3.88-.2,7.84.96,11.92.69,1.6-.11,3.18-.61,4.77-.69,5.44-.25,10.73.77,16,1.03,7.24.34,14.28-1.85,21.1-.69,6.31-5.1,2.37-17.93,4.77-25.87-1.41-2.67-1.86-6.31-3.75-8.51-4.6,1.66-6.38-3.15-10.21-3.74-1.27-.2-2.93.61-4.43.34-3.89-.71-4.77-5.44-7.83-6.13-3.47-.79-7.51.52-9.19,2.38-1.68,1.88-1.68,5.04-3.4,7.15-4.56-1.01-9.76-.15-14.98-.34-2.21-.08-4.4-.68-6.47-.68-7.48-.02-15.67,1.7-23.14-.34-1.21.19-2.39.96-3.75,1.02-1.67.08-3.35-.58-5.11-.68-3.72-.22-7.72.56-12.59.34-11.48-.52-24.98.53-35.4,0-.9-.04-1.87-.18-2.73-.68-4.18,2.04-5.84-1.01-9.87-2.72-2.01-.86-4.78-2.06-6.81-2.39-4.14-.67-7.05.71-9.19-2.38-1.92,1.17-3.43.5-5.45.34-1.2-.1-2.58.73-3.74.68-1.08-.04-2.27-.65-3.41-.68-1.3-.04-2.39.61-3.74.68-1.94.1-4.07-.67-6.13-.68-9.31-.04-20.01,1-30.3.34-1.24-.08-2.55-.67-3.74-.68-3.55-.05-7.03.91-10.21,1.02-3.8.13-7.88-.28-10.22-1.7-.96.76-1.87,1.44-3.06,1.7-1.63.35-3.51.02-5.42-.19v2.23s1.36,0,1.36,0v.68c-.44-.06-1.14.15-1.36-.13v2.77c2.52.06,4.93-.38,6.81-1.28,1.89.78,3.6.79,5.1-.34,1.27.44,2.59.82,3.75,1.36,1.7-1.32,3.87-.27,5.79-.34,1.03-.04,2.02-.62,3.06-.68,9.25-.56,19.44,2.49,27.23-1.36.59.32.56,1.26,1.71,1.02,2.14.1,3.55-.54,5.1-1.02,1.05-.26.65.93,1.7.68,1.42-.97,3.95-.48,5.45-.34,2.4.23,6.02-1.1,6.13,1.02-1.59.5-5.54-.65-6.81,1.02,1.03.33,2.03.69,3.06,1.02,1.79,1.84,3.99,3.27,4.77,6.13,2.04.52,2.35,4.38,4.42,3.74-1.12-1.53-1.95-3.45-3.06-5.1-1.05-1.57-3.45-2.94-2.72-5.11,1.98-.37,2.21,2.02,3.06,3.07.76.93,1.58,1.71,2.38,2.72.77.96,1.62,2.05,2.39,3.06,1.47,1.94,3.18,4.48,5.1,4.77-1.7-4.08-4.49-7.08-7.49-9.87.43-2.03-2.4-2.19-1.36-3.75,2.17-.39,2.84,1.89,3.75,3.07,3.02,3.91,6,7.75,9.53,10.89,1.17-.48-.21-2.22,1.02-2.04.89,1.04,1.9,1.96,3.06,2.72-.71-3.94-3.93-5.37-5.1-8.85,1.27-1.35,1.48,1.67,2.38.68-.58-2.37-1.8-4.1-3.74-5.1v2.04c-1.42-.62-2.58-1.51-3.07-3.06,1.45-1.42,2.03,1.68,3.07.68.32-1.04.68-2.04,1.02-3.06,4.53,1.28,11.72,2.94,12.59,7.14.57,2.7-1.75,7.2,1.37,9.19,1.43-2.06,1.48-5.41,1.02-8.51,2.6-1.61,5.89.04,8.85,0,2.97-.04,5.75-.44,8.85-.34,5.32.19,9.66-.96,13.96,0,2.35-1.71,4.99-.68,7.15-.34,4.08.65,8.01-.68,12.25-.68.83,0,1.55.64,2.38.68.97.05,2.11-.65,3.07-.68.62-.02,1.38.64,2.04.68.96.06,1.72-.45,2.38-.34,1.19.21,2.25.99,3.41,1.02,2.26.06,4.68-1.18,6.81-1.7,2.41,1.03,4.81-.02,6.8,1.36,2.36-1.25,4.05.17,6.47-.34.74.51.8,1.71,2.04,1.7,2.36-1.93,6.56-.57,9.19-1.7,1.83,1.22,3.85.31,5.79.34,1.23.02,2.46.61,3.75.68,2.24.13,4.64-.75,6.81-.68,1.79.07,3.39.98,5.1.68.93-.16,1.38-.59,2.38-1.02,6.7,1.95,16.33.29,25.2.68.69.72,1.14,2.95.68,3.75-9.8-.98-18.72.99-27.92-1.02-4.17,1.57-8.51.09-12.93,0-5.02-.11-10.29.58-15.32.68-2.89.06-5.54-.44-7.83-.68-5.04-.54-11.59.69-17.02.34-2.85-.19-4.6.28-6.81.34-.86.02-1.53-.61-2.39-.68-3.05-.28-6.3.86-8.85.68-.74-.05-1.55-.66-2.38-.68-6.85-.18-14.26.35-21.11.34-5.6-.01-12.28-.75-16.68-.69-1.35.03-3.69-1.04-4.42,1.03-.08.64.38.75.34,1.36,12,1.2,28.47-.61,41.19,1.02-.56.81.52,2.76,2.04,2.04,1.11-.56-.62-1.85.34-2.38,1.28.75,2.88-.24,4.43-.34,4-.27,8.61.53,12.25.68,1.12.04,2.42-1.18,3.06.34-4.6,1.1-8.82-.67-13.27,1.02,1.47,1.52,3.44.41,5.1.34.67-.03,1.55.39,2.39.34.71-.04,1.51-.73,2.04-.68,1.07.1,2.01.98,3.06,1.02,1.12.04,2.33-.67,3.41-.68,1.98-.03,4.01.89,6.12.68,2.38-.24,4.28-1.12,6.13,0,2.33-.94,3.12-.94,5.45,0,.39-.06.37-.54.34-1.02,2.51,1.14,6.98,1.34,9.53,0-.38-1.44-3.77.14-4.09-1.36,7.38-.51,15.36-.25,21.11-.34,1.04.89-1.38,1.14-.34,2.04,3.08,1.67,6.91.16,10.55.34,2.05.1,4.36.79,6.47,1.03h.05c.16.02.31.03.47.04h.01c.65.05,1.27.04,1.85-.05.87-.15,1.34-1.46,2.39-1.02,3.66.97,6.9-.53,11.23-.34-.8,2.02.74,3.41,1.02,5.44.5,3.55-1.13,7.14-.68,9.88h-12.94c-4.3,0-8.83.54-12.25-.69,7.21-2.2,17.69-.02,24.17-1.7.54-6.13-5.55-4.44-9.19-4.08-1.3.12-2.83-.39-4.09-.34-.84.03-1.53.63-2.38.68-2.52.13-4.64-.71-6.81-1.02-7.36,1.24-16.09-1.47-23.15,1.02-1.07.17-1.2-.61-2.38-.34-1.17.19-1.16,1.56-2.38,1.7.41-1.02.36-1.43-.68-1.7-1.89-.42-1.13,1.82-2.73,1.7-1.06.66-.8-.78-1.36-1.02-.41-.18-1.42-.07-2.38-.34-1.6-.46-4.72-1.2-6.47-1.02-.64.06-1.4.67-2.04.68-.68.01-1.31-.63-2.05-.68-4.3-.33-8.93.28-11.23,1.36-2.71-2.26-7.52-.88-10.21,0-.48-.54-1.17-.87-2.04-1.02-1.56.79-4.76-1.39-4.77,1.36.54.84,2.38.14,3.06,0,1.34,1.95,3.9,2.69,6.13,3.74.98-.26.85-1.64,1.36-2.38,1.7-.06,2.44-.33,4.77-.34.87.48.51,2.21,1.7,2.38,4.02-.11,8.06-1.52,10.55.34.82-.76,1.96-1.22,3.41-1.36,1.12.47,2.28.9,3.4,1.36,1.02-.22,1.19-1.31,2.72-1.02,2.21,1.22,5.01.25,7.49.34.64.03,1.53.62,2.04.69,1.92.22,3.53-.65,5.45-.69,2.28-.04,4.48.67,6.47.35.83-.14,1.3-.65,2.04-.69,1.76-.08,3.59.87,5.11,0,.89.48.79,1.93,2.38,1.7,1.3.17.69-1.57,2.38-1.02.5,2.57-2.26,2.23-3.4,1.36-8.16,1.56-18.48.11-27.91.34-3.34.08-6.65,1.62-9.54,0-.43.48-1.6.21-2.04.69-.8-.57-1.98-.75-2.38-1.71-1.13.35-1.07,1.89-2.73,1.71-4.9,0-9.47-1.07-14.29-.69-.65.06-1.32.6-2.04.69-1.2.14-2.16-.33-3.41-.34-3.08-.03-6.47.9-9.53-.69-1.94,1.48-4.27.11-6.13.34-.83.11-1.28.7-2.04.69-1.12-.03-2.19-.63-3.4-.69-5.52-.24-13.99,0-19.07,0-2.77.01-10.95,2.21-10.55-2.04,4.02-.15,9.43-.21,13.96,0,1.39-1.96,5.11.51,5.44-2.38-1.14-2.96-4.19-1.36-6.46-1.36-.7,0-1.66-.6-2.39-.68-2.61-.31-5.62.42-7.83-.69-1.2.16-1.19,1.53-2.72,1.37-.66-1.89.82-5.47-1.7-6.13-2.26,1.71,1.14,7.77-1.02,10.55,1.05,1.36.81,4.43-.34,5.45-9.23-.29-20.04-.4-29.62,0-1.29-.87-1.99-2.32-3.06-3.4.58-1.64-.01-4.36,0-5.79-1.59.04-3.43,1.69-3.75-.68.25-1.23,2.79-.16,3.41-1.02,1.27-6.64.22-14.02,1.02-19.75-3.7-.79-7.54-.14-10.56-1.02-.23,1.24.08,3.02-1.36,3.06-1.31-.27-.95-2.23-2.38-2.38-5.71.09-10.28-1.21-15.66-.34-2.04.33-2.79.15-4.77,0-3.21-.24-6.36.34-8.51.68-3.66-1.76-7.84-.21-11.57,0-4.46.26-8.95-.83-12.93.03v5.86c1.35.28,2.14,2.16,3.74,2.29.49.91-.47,2.56,1.7,2.38,1.21-1.06-.02-.9-.34-2.04.96-.29,1.4-1.1,2.72-1.02,1.19,1.06-1.04,1.8,0,2.72,3.47.58,6.57.29,9.88-.34-1.19-1.02-.94-1.62.34-2.38,1.64-.17.83,2.11,2.04,2.38,1.2-.93,2.12.56,3.4.68,1.33.13,2.68-.53,4.09-.34,1.72.24,3.27,1.85,5.1,1.02.72,2.09,4.99,1.62,5.45-.34-3.04-2.52-9.69-1.44-12.26-4.43-.87.54-3.55.54-4.42,0-.16-1.39,1.56-2.13,2.4-2.38,3.72-1.11,9.84-.01,13.95,0,7.26.02,19.36-.02,25.87,1.36-.33,2.05-1.24,3.53-2.72,4.43-2.18.09-5.02-.48-5.45,1.36,2.05,2.29,7.25,1.08,9.87,1.02.65.84.85,2.33.34,3.4-3.69.4-5.63,2.54-5.44,6.81.06.96,1.61.43,1.36,1.71.04,2.77-.93,4.51-2.72,5.44-3.07-1.22-8.68-.39-11.92.34-4.03-2.08-9.05.09-13.28-.68-1.58,1.03-4.07,1.15-5.44,2.38-.04-.75-1.44-.14-2.04-.34-2.4,1.22-7.8,1.13-10.56,1.37-5.2.43-10.85-.88-14.98.68,5.85,1.48,11.94-.33,18.39,1.02-.7,3.51-1.02,5.83-1.71,8.85-4.02.64-6.97-.62-10.55,0-1.33-.82-3.88-.99-4.42.34.34,1.7,1.02,3.07,1.36,4.77,3.1.59,6.89,1.11,9.87,0,4.07,2.09,12.07-1.82,16.68,1.36-5.72,1.4-12.32-.77-16.68,1.02-.81-.56-2.06-.66-3.06-1.02-1.82,1.71-6.24-1.09-6.81,2.04,1.64.55,3.46.35,4.76-.34,1.98,1.66,4.14.04,6.47,0,.87-.01,1.87.64,2.72.68,1.47.06,2.72-.51,4.09-.34.99.12,1.74.66,2.72.68,1.69.04,3.64-.67,5.45-.68,2.9-.01,5.9.92,8.17.68.72-.07,1.34-.67,2.04-.68,1.22-.01,2.46.64,3.75.68,1.71.06,3.6-1.02,5.44-1.02,2.14,0,4.4.65,6.47.68,1.47.03,3.96-1.46,4.43,1.02-1.62,1.97-4.18.65-6.47.68-4.26.06-8.81.57-12.6.68-4.24.14-8.59-.55-12.25.69,10.35,1.11,20.08-.2,31.32.68-.98,2.56.6,6.95,1.02,10.21-12.93,1.41-25.68-.14-38.82,2.38-.7,2.6-2.58,4.01-3.75,6.13-1.62.08-3.83-.44-4.08,1.02,1.36.84,1.76.92,3.75.68-.1,1.8,1.45,1.96,2.04,3.06-.49.19-.83.53-1.02,1.02-1.53.07-.46-2.48-2.04-2.38-1.44-.19-3.39.84-4.43-1.02-.67-1.28,1.75-1.15.68-1.7-2.17-1.43-5.24-.47-6.8-.34-1.31.1-3.21-1.01-3.41.68.08,1.24,2.47,1.37,1.36,2.72-2.19,1.61-3.23-2.86-4.08-4.76.12-.9,1.73-.31,2.04-1.02-.81-.05-1.74-.17-2.72-.3v12.13c3.64.13,7.24.32,10.88.41,4.5.11,8.67-.52,13.28-.34,5.33.22,12.02-.57,15.32.34.74,4.26.51,8.06,1.36,12.6-.48.55-.97,1.08-1.36,1.7-7.45-.69-15.13.45-21.79,1.02-3.47.3-6.92-.08-10.55,0-.59.02-1.11.62-1.71.69-1.74.18-3.65-.43-5.43-.36v6.26c1.78-.18,3.7-.43,5.11.23,1.19-1.56,3.18-.39,5.79-.68-2.19,2.7-6.98,1.51-10.9,2.04v2.24c3.86-.6,8.29-.03,12.26-.54.71.42,1.32.94,2.04,1.36,2.23.44,4.41-.94,5.45.34-.66,1.98-3.14,1.55-4.43,2.05-.69.26-1.37,1.08-2.04,1.36-.94.38-1.94.26-2.73.68-3.38,1.8-5.44,5.58-8.85,7.15-.54,1.29-1.15,2.62-1.7,4.01-.09.21-.17.43-.25.65ZM15.7,19.53h-.01c-.23,0-.47.02-.72.05-.25.03-.51.07-.77.1-.26.04-.52.07-.78.1-.66.07-1.28.08-1.74-.12-.09-.04-.17-.08-.25-.14s-.15-.14-.22-.22c-.06-.08-.11-.17-.15-.27-.09-.23-.14-.51-.13-.86.26-.14.53-.24.79-.3.09-.02.18-.04.27-.05.21-.02.42-.03.63-.01.08.01.16.01.23.03.09,0,.19.03.28.05.08.01.16.03.24.06.09.02.17.05.26.08.08.03.16.06.24.1.16.06.31.13.45.22.08.04.15.08.22.13h.01c.14.08.27.17.39.28.06.04.12.09.18.15.06.04.11.09.16.15.05.04.1.09.15.15.07.07.13.14.18.21.03.03.06.07.09.11ZM20.13,13.59c.03.37-.02.66-.16.86-.03.05-.06.08-.1.11-.06.06-.14.11-.23.14-.04.03-.1.04-.16.05-.01.01-.02.01-.04.01-.27-.26-.37-.65-.26-.95.03-.08.08-.16.14-.22s.14-.12.24-.15c.15-.05.33-.07.55-.04h.01c.01.07.01.13.01.19ZM25.56,12.72h-1.02c-.06-.75.28-1.09,1.02-1.02v1.02ZM64.03,14.08s-.08-.02-.13-.01c-.17-.02-.37-.01-.58.01-.27.03-.55.05-.75,0-.04-.01-.08-.02-.11-.04-.03,0-.06-.03-.09-.06-.04-.04-.07-.09-.09-.16-.01-.07-.01-.15,0-.25.02-.05.03-.11.05-.17h1.7v.68ZM174.25,20.67c-.05.06-.12.11-.2.15-.07.04-.15.07-.24.1-.09.02-.2.04-.31.05-.2.02-.42.02-.63.01h-.04c-.14-.01-.26-.03-.38-.06h-.03c-.26-.05-.49-.12-.64-.2-.05-.03-.09-.06-.12-.09-.03-.02-.05-.05-.06-.08,1.1.07,1.44-.6,2.72-.34h.01c.06.2.02.35-.08.46ZM189.99,21.23h-.01c-.57.26-1.71.46-2.74.41-.11,0-.21-.01-.31-.02-.21-.02-.41-.06-.59-.1-.09-.03-.17-.05-.25-.08-.05-.02-.09-.03-.12-.05-.04-.02-.08-.03-.12-.05-.07-.04-.14-.08-.2-.12-.06-.05-.12-.1-.17-.15-.04-.04-.07-.07-.1-.11-.06-.08-.1-.17-.13-.26-.01-.05-.02-.1-.03-.15.07-.03.15-.05.23-.07.15-.05.31-.09.48-.12.14-.04.3-.07.45-.09.16-.03.33-.05.5-.06.34-.04.7-.05,1.04-.03.1,0,.2.01.29.02.1.01.2.02.29.04h.01c.08.02.16.03.24.05.03.01.06.02.09.03,0,0,.02,0,.03.01.06.01.13.03.2.06.03.01.05.02.08.03.09.04.18.08.26.13.09.05.17.11.25.18.15.13.27.3.33.5ZM223.34,20.89c-.98.32-2.96.16-4.08-.34.92-.27,3.73-.93,4.08.34ZM231.86,20.89c-2.74-.25-4.58.7-6.46-.34,1.72-.54,5.15-.61,6.46.34ZM88.17,14.29c-.05.09-.13.13-.26.13h-.05c-.09-.25-.22-.46-.34-.68-.12-.22-.25-.43-.34-.68.43-.02.47-.44,1.02-.34-.07.18-.03.47,0,.76.05.32.09.65-.03.81ZM85.4,16.44c-.38-.49-.71-1.04-.94-1.68.34-.09.66-.11.95-.08.08.01.15.02.23.04.04,0,.08.01.12.03.06.01.12.03.17.05.05.01.1.03.15.06.06.02.12.05.18.08.06.03.13.07.19.12.05.02.09.06.14.1.07.05.13.1.2.16l.18.18c.11.1.22.22.32.36.15.19.29.4.42.62.09.14.18.3.26.45.09.16.17.32.25.48.04.08.08.16.12.24.08.16.16.33.23.49.09.19.17.37.26.55.07.14.13.28.2.41.13.28.27.54.42.78.06.11.12.21.19.31.08.13.17.25.26.36-.82-.95-1.85-1.67-2.82-2.46-.16-.13-.32-.26-.47-.4-.16-.14-.31-.28-.46-.42-.18-.17-.36-.35-.51-.54-.08-.1-.16-.19-.24-.29ZM29.3,6.25c-.68.13-4.17.44-4.42-.68,1.39-.21,7.56.06,4.42.68ZM40.2,5.91c-2.13.48-7.42,1.68-8.85-.34,3.25-.61,6.41-.4,8.85.34ZM80.37,6.93c-1.91.14-6.18,1.78-7.15-.34,1.91-.68,5.15,0,7.15.34ZM81.73,10.68h1.02c-.08,1.06,1.47,1.79,1.28,2.62-.02.1-.06.19-.13.29-.03.05-.07.09-.12.14-.02-.07-.05-.14-.1-.2-.03-.06-.06-.12-.1-.17-.04-.07-.09-.13-.15-.19-.09-.1-.2-.19-.31-.28-.06-.05-.12-.09-.18-.13-.06-.04-.11-.08-.17-.12-.17-.13-.35-.25-.51-.39-.12-.11-.23-.23-.31-.37,0,0,0-.01-.01-.01-.05-.08-.09-.17-.13-.27,0,0-.01,0-.01-.02h0c-.02-.07-.04-.13-.05-.2-.04-.2-.05-.43-.02-.7ZM86.84,7.27h-.01c-1.57.31-4.34.45-5.44-.68.28.04.56.06.83.06h.02c.19,0,.38-.01.57-.03.19-.01.39-.04.58-.06.25-.03.5-.07.73-.1.02,0,.03,0,.05-.01.04-.01.08-.01.12-.01.12-.02.24-.03.35-.04.08-.01.17-.02.25-.02.09-.01.17-.01.24-.01.53,0,.99.11,1.36.46.06.06.12.13.18.2.06.07.12.15.17.24ZM238.65,10.67c-7.02.53-12.35.6-19.04,0h-.01c.25-1.04.59-1.99,1.01-2.81.2-.42.42-.81.67-1.16.11-.18.23-.35.36-.51.37-.49.78-.91,1.22-1.24.29-.23.59-.42.9-.58.16-.08.32-.15.48-.21.16-.06.31-.11.47-.15h.03s.05-.02.08-.02c.13-.04.27-.06.4-.08.16-.02.33-.04.5-.04h.14c.16,0,.33.01.47.03h.02s.03,0,.05,0c.11.01.21.03.31.06.09.02.18.04.26.08.02,0,.03.01.05.01.07.02.13.05.19.07.03.01.05.03.08.04.11.05.21.11.31.17.08.04.16.1.23.15.06.05.13.1.19.15.19.15.36.32.53.51.1.1.19.21.29.33.29.34.56.71.86,1.08.2.24.41.49.64.73.34.36.72.7,1.18,1,.75.5,1.6.77,2.46.95.21.05.42.09.63.13.3.05.59.1.88.15.33.05.65.1.96.16.15.02.3.06.45.09.15.04.29.07.43.12.13.04.26.09.39.14.24.1.45.22.64.37.11.08.2.17.29.27ZM245.81,20.89c-3.18.82-6.4-.11-9.87,0,.15-1.29,2.34-.58,3.4-.68,1.88-.19,5.31-.75,6.47.68ZM248.54,21.57c-.9-.23-1.73-.54-2.38-1.02,1.25.22,1.31-.74,2.38-.68.63.64.03.85,0,1.7ZM226.75,39.27c1.24-1.21,2.54-.27,4.08,0h.01c4.54-.91,11.61-.78,17.35-.34v1.02c-5.4.7-12.66.44-17.7-.34-1.6.33-2.81,1.17-3.74-.34ZM224.02,39.27h.01c.39.13,1.1-.08,1.57-.04.05,0,.1.01.15.02.04.01.08.02.11.04.04.01.06.03.09.06.06.06.1.14.11.26-.02.03-.05.05-.09.08-.05.04-.12.08-.19.11-.04.02-.1.04-.16.07-.02.01-.04.01-.06.02-.08.02-.16.04-.24.05-.05.01-.1.02-.15.02-.06,0-.11,0-.17,0-.04,0-.08,0-.11,0-.03,0-.07,0-.11-.01-.06-.01-.11-.02-.16-.03-.06-.02-.11-.03-.16-.05-.09-.04-.18-.09-.25-.16-.04-.03-.08-.07-.1-.12-.06-.09-.09-.19-.09-.32ZM219.6,38.93c1.16-.02,2.38-.11,2.72.68-.79.25-2.9.93-2.72-.68ZM214.15,38.93c.13-.01.25-.02.36-.02.09,0,.17.01.24.02.08.01.15.02.21.04.02,0,.03,0,.03.01.06.02.12.04.17.07.02.02.05.04.08.06.02.01.04.03.07.06.04.03.07.07.09.12,0,.01.02.03.02.04.03.03.04.05.04.08.02.03.03.05.02.08,0,.01.01.01.01.02.01.03.02.07.03.1h-.01c-.07-.01-.14-.01-.21-.01-.25,0-.54.04-.77.02-.08,0-.14-.01-.2-.03-.22-.06-.32-.24-.18-.66ZM190.75,39.19c-.02-.08-.05-.17-.08-.26,4.51-.62,12.53-.48,15.99,0h.01s.02.08.03.12c.01.02.01.03.01.04.03.07.06.13.08.18.02.03.03.06.04.09.02.06.04.11.01.14,0,.01,0,.02-.01.03-.06.06-.21.09-.5.08-1.75.69-3.6-.01-5.11,0-.67.01-1.27.64-2.04.68-.13.01-.25.01-.38.01-.16,0-.31-.01-.46-.02-.06-.01-.11-.01-.17-.02-.33-.02-.66-.07-1-.12l-.15-.03c-.31-.05-.63-.12-.94-.18-.3-.06-.6-.12-.89-.17-.19-.03-.38-.07-.57-.09-.19-.03-.37-.05-.55-.06-.34-.02-.72.07-1.11.15-.1.03-.2.05-.3.06-.14.03-.27.06-.4.07-.12.02-.25.03-.37.03-.03,0-.07,0-.11-.01-.04,0-.08,0-.12,0-.06,0-.11-.01-.16-.03-.05-.01-.09-.03-.14-.05-.04-.01-.08-.03-.12-.06-.04-.02-.08-.04-.12-.08-.04-.02-.08-.06-.12-.1-.09-.1-.17-.23-.24-.38,0-.01-.01-.01-.01-.01ZM178.07,39.27c3.02-.12,7.99-1.05,10.89.34-4.46.28-8.31,2.44-10.89-.34ZM174.73,39.36s-.05-.06-.06-.09c.84-.05,1.65-.06,1.7.68-.08-.02-.16-.04-.24-.06-.08-.02-.16-.04-.24-.05-.13-.03-.25-.05-.37-.08-.04-.01-.08-.02-.12-.03-.07-.02-.15-.04-.21-.06-.15-.06-.29-.13-.39-.23-.02-.02-.05-.05-.07-.08ZM171.6,38.93h1.36c.1.89-.12,1.46-1.02,1.36-.11-.46-.48-.65-.34-1.36ZM167.3,39.4c-.04-.05-.08-.09-.12-.13.5-.18,1.06-.33,1.53-.26.08.01.16.03.23.05.08.03.15.07.22.11.07.04.13.09.19.15.08.07.15.17.21.29-.57.58-1.72.24-2.26-.21ZM116.81,39.46s0,.1-.01.15h-.69c-.2-.02-.4-.05-.34-.34.11,0,.18-.03.24-.09.03-.03.06-.07.08-.1.02-.04.04-.08.05-.12.02-.05.04-.1.06-.15.03-.04.05-.08.08-.11,0-.01.02-.02.03-.03s.02-.02.03-.03c.03-.02.07-.04.11-.05h.01s0,.09.02.14c.01.04.02.07.04.11.03.07.08.12.12.18.09.12.17.24.17.44ZM139.26,39.61c-6.41-.08-14.25,1.66-20.42.34.08-.16.18-.31.29-.44.06-.07.12-.13.19-.19.1-.09.22-.18.34-.27.01,0,.02-.01.04-.02.06-.04.12-.08.19-.11.07-.04.14-.07.21-.1.3-.14.64-.25,1-.33.12-.03.25-.06.38-.08.04,0,.08,0,.12-.02.16-.02.32-.04.48-.06.22-.02.45-.04.68-.05.13-.01.26-.01.4-.01.44-.01.89-.01,1.35.01.28,0,.57.03.86.05.2.02.41.03.61.06.2.01.4.04.61.06.2.02.4.04.6.07.41.05.82.11,1.21.16.37.06.73.11,1.08.17.27.04.53.09.77.13.14.02.27.04.39.06.19.03.37.06.54.09.21.04.41.07.59.09.12.02.23.04.34.05,2.68.35,5.41-1.08,7.15.34ZM127.69,42.33s-.1.08-.15.11c-.1.06-.22.11-.35.15-.04.02-.1.03-.15.05-.02,0-.03.01-.05.01-.07.02-.14.03-.22.04-.05.01-.1.01-.16.01-.1.01-.2.02-.31.02-.08.01-.17.01-.26.01-.37,0-.78-.02-1.18-.05h-.02c-.68-.05-1.36-.09-1.92-.01-.23-1.58,4.53-1.44,4.77-.34ZM130.66,45.2c-.08-.06-.14-.13-.18-.23-.02-.03-.03-.06-.04-.1-.02-.04-.02-.09-.03-.15,1.08-.51,2.33-.07,3.06.68-.13-.02-.28-.03-.43-.03-.22,0-.46.02-.7.03-.24,0-.47.03-.69.03-.12,0-.22-.01-.32-.02-.08,0-.16,0-.23-.03-.18-.03-.32-.09-.44-.18ZM149.47,44.72c.97-2.05,7.34-2.11,7.49.68-1.92.35-6.57,1.04-7.49-.68ZM152.19,51.53c-.06-.01-.12-.02-.19-.03s-.13-.02-.2-.03c-.34-.05-.69-.09-1.01-.16-.12-.03-.24-.07-.34-.12-.06-.02-.11-.05-.16-.08-.05-.03-.1-.06-.14-.1-.05-.04-.09-.08-.13-.13-.03-.03-.05-.06-.07-.1-.04-.07-.07-.14-.09-.22-.02-.05-.03-.1-.03-.15-.02-.08-.02-.16-.02-.25.76-.26,1.33-.71,2.38-.68v2.05ZM149.13,49.48c-1.6-.1-2.51-.89-3.06-2.04,1.25.11,3.01-.29,3.74.34.29,1.09-.53,1.05-.68,1.7ZM133.82,44.72c4.32-1.36,9.36.35,13.27-.34v1.02c-4.25-.52-9.73,1.1-13.27-.68ZM158.33,38.93c-.02.11-.06.22-.11.31-.04.1-.09.18-.16.26-.05.08-.12.15-.2.21-.07.06-.15.12-.24.17-.08.06-.17.1-.26.14-.09.05-.19.09-.29.13-.15.06-.3.11-.45.17-.15.05-.3.1-.45.16-.19.08-.38.17-.55.27-.08.05-.16.11-.23.18-.06.05-.12.11-.17.18-.05.06-.09.12-.13.2-.01.02-.02.04-.03.06-.01.03-.03.06-.04.1-.03.06-.05.12-.06.19-.01.03-.02.06-.02.09s-.01.02-.01.03c-.01.09-.02.19-.02.3,0,.08,0,.16.01.25-.14-.03-.29-.04-.46-.04-.03,0-.06,0-.1,0-.09,0-.19,0-.29.02h-.11c-.15.01-.3.02-.45.04-.15,0-.31.02-.45.03-.22.01-.42.02-.62.01-.06,0-.12,0-.17-.01-.02,0-.04,0-.05-.01-.07,0-.13-.01-.19-.03-.08-.02-.16-.04-.22-.08-.01-.01-.02-.01-.03-.02-.07-.03-.13-.08-.18-.13-.03-.04-.06-.07-.08-.11.03,0,.06,0,.08-.01.02-.01.04-.02.05-.03.02-.01.04-.03.06-.05.04-.03.07-.08.08-.13.01-.02.02-.05.03-.08.01-.03.02-.06.01-.09.02-.06.02-.12,0-.18.01-.03,0-.06-.01-.09-.01-.03-.02-.06-.03-.09,0-.03,0-.06-.03-.08-.02-.02-.03-.04-.05-.06-.02-.03-.03-.05-.06-.06-.04-.04-.08-.06-.13-.07-.83.84-1.48-.25-2.72,0-.07,0-.13.01-.18.02-.04.01-.08.02-.12.03-.03.01-.07.02-.1.04-.03.02-.06.04-.09.07-.04.03-.07.07-.11.11h0c-.16.24-.22.57-.33.85-.04.11-.09.22-.16.31-.02.04-.05.08-.1.11-.04.04-.08.07-.13.09-.1.06-.22.09-.38.08-.1-.01-.19-.02-.27-.05-.16-.04-.29-.11-.39-.2-.12-.11-.21-.24-.29-.38-.13-.25-.22-.53-.33-.79-.02-.08-.05-.15-.09-.21-.03-.06-.06-.13-.1-.19-.03-.07-.07-.13-.11-.18-.09-.11-.2-.2-.33-.27-.13-.07-.29-.11-.48-.12-.79.02-1.65.08-2.3-.05-.11-.02-.21-.05-.3-.08-.05,0-.1-.03-.15-.06-.06-.02-.12-.05-.17-.09-.09-.05-.16-.12-.23-.19-.13-.14-.21-.32-.25-.55,5.06-1.16,10.84.03,17.01-.34h.01ZM159.22,44.99c.1-.05.18-.11.27-.17.03-.02.06-.04.09-.05h.01s.04-.04.07-.04c.04-.03.09-.04.14-.05.14-.04.32-.04.57.04v.68s-.02.1-.04.14c-.02.04-.05.07-.09.09-.03.03-.07.05-.11.05-.04.02-.08.02-.13.02-.09,0-.18-.01-.28-.04-.05,0-.1-.03-.15-.05-.08-.03-.17-.06-.25-.1h-.01c-.06-.03-.12-.07-.18-.1-.16-.09-.3-.19-.39-.27-.03-.03-.05-.06-.07-.08.25.04.42,0,.55-.07ZM161.97,39.81c-.42.1-.92.18-1.38.2-.16,0-.31,0-.45-.01-.07,0-.14-.01-.2-.02-.32-.05-.58-.16-.75-.35-.09-.1-.15-.22-.18-.36,1.82.16,2.6-.62,3.74.34-.19.06-.46.13-.78.2ZM157.98,51.53h1.02v1.7h-1.36c-.11-.79.06-1.31.34-1.7ZM144.15,50.97c.06-.15.15-.28.25-.38.07-.07.15-.14.23-.2.06-.05.13-.09.21-.13.11-.06.23-.12.37-.16.05-.02.11-.04.16-.05.06-.02.11-.03.17-.05.08-.02.15-.03.23-.05.06-.01.12-.02.17-.02.18-.03.37-.05.56-.07.19-.02.39-.03.59-.04.31,1.05.59,2.14,2.38,1.71.01.07.01.13.01.19.01.15.01.3,0,.44,0,.04-.01.07,0,.09-.02.09-.03.17-.05.26-.04.17-.09.35-.16.51h0c-.1.23-.22.44-.34.64t0,.01c-.2.29-.43.56-.65.82-.15.17-.31.34-.45.5-.14.16-.28.32-.39.47-.11.16-.21.31-.28.47-.09.22-.13.46-.07.7.14-.13.28-.24.44-.35.09-.07.19-.14.29-.2.18-.12.37-.23.57-.34.17-.09.34-.18.51-.27.47-.25.94-.48,1.39-.75.13-.08.27-.16.39-.24.11-.07.22-.15.32-.23.11-.08.21-.16.3-.25.06-.04.13-.1.18-.16l.02-.02.03-.03s.03-.03.04-.05c.09-.08.17-.18.24-.27.01,0,.02-.02.03-.03,0-.02.02-.03.03-.05.05-.06.1-.12.14-.19.05-.07.09-.14.13-.22.04-.07.08-.15.12-.23.06-.12.11-.25.15-.38.05-.16.09-.33.12-.51h0c.12-.01.23-.03.34-.05.09-.01.17-.03.26-.05h.01c.22-.05.43-.11.63-.19.12-.06.22-.11.32-.18.09-.05.17-.11.24-.18.03-.02.06-.04.08-.07.08-.07.15-.16.21-.25.14-.2.23-.44.29-.73-.17-.12-.36-.21-.55-.3-.2-.09-.4-.17-.61-.24-.18-.07-.36-.13-.54-.2-.23-.08-.46-.17-.68-.28h0c-.2-.6-.16-1.1.03-1.48.05-.11.12-.21.19-.3.03-.04.08-.09.12-.12.09-.09.19-.17.3-.24.11-.07.23-.13.35-.17.1-.04.21-.07.32-.09.03-.01.06-.02.1-.02.12-.02.24-.03.36-.03.23,0,.46.03.68.1.22.07.43.17.62.31-.04.02-.07.04-.1.07-.06.07-.11.17-.16.29-.02.06-.04.12-.06.19-.05.21-.08.46-.09.72-.02.18-.02.35,0,.53,0,.09.01.17.02.25,0,.09.02.17.03.24.01.08.02.16.04.23.02.07.04.13.06.19.05.12.1.21.16.28.03.03.06.05.1.07,1.9-.02,2-1.86,2.38-3.4,1.94.1,2.29,1.8,4.09,2.04.96,2.2,2.49,9.97-2.04,8.17.07-.31.14-.63.2-.96s.12-.67.18-1.01c.02-.17.05-.34.07-.51.11-.9.15-1.81.03-2.61-.06-.34-.14-.67-.25-.97-.04-.1-.09-.19-.13-.29-.06-.13-.14-.25-.22-.37,0-.01-.03-.03-.04-.05-.04-.06-.09-.11-.13-.16-.05-.06-.1-.11-.16-.16s-.12-.1-.18-.15c-.04-.03-.09-.07-.14-.1l-.03-.03s-.03-.02-.04-.02c-.09-.06-.19-.11-.29-.15-.06-.03-.12-.05-.18-.07-.06-.03-.13-.05-.2-.07-.08-.03-.16-.05-.24-.06-.01-.01-.03-.01-.05-.01-.09-.02-.18-.04-.27-.05-.1-.01-.2-.02-.31-.03h-.01c0,.11.01.21.02.32.01.31.01.61-.02.88-.01.09-.03.17-.04.25-.02.06-.04.13-.06.19-.02.08-.06.16-.1.22-.04.07-.08.14-.14.19-1.04.13-1.73-.9-2.04.34-.17,1.07.61,1.2.34,2.38h1.7c.1.36.04.56-.1.69s-.34.19-.53.27c-.04.02-.09.04-.13.07-.13.07-.23.17-.26.33-1.28.26-.23-1.81-1.7-1.36-1.95.09-2.23,1.85-2.72,3.4-1.97-.26-2.91.5-4.77.34-.31-.93-1.5-.99-2.38-1.36,0-.1.03-.19.05-.27.02-.06.04-.12.07-.17.01-.04.02-.07.04-.09.02-.05.05-.1.08-.14t.02-.02c.05-.07.11-.13.17-.18.06-.07.14-.12.21-.18.08-.06.17-.12.25-.17.14-.09.28-.17.41-.26.12-.08.24-.17.34-.26.06-.05.11-.1.16-.16.01-.02.02-.04.03-.05.06-.08.11-.16.15-.24.04-.09.07-.18.09-.29.04-.18.04-.38.02-.62-.02-.09-.03-.19-.05-.3-.07-.09-.15-.15-.25-.19-.11-.05-.22-.08-.35-.1-.05,0-.1-.02-.15-.02-.04-.01-.08-.01-.13-.01-.06-.01-.12-.01-.19-.01-.19-.01-.39-.01-.58-.02-.06,0-.13,0-.19,0-.1-.01-.2-.01-.29-.03-.09-.01-.18-.03-.25-.06-.03-.01-.07-.02-.1-.04-.05-.02-.09-.04-.13-.08h-.01s-.08-.07-.11-.11c-.07-.52-.02-.93.13-1.24ZM138.58,47.78c1.92-.52,2.03,1.08,4.42,0,.04.05.08.11.11.17.01.02.02.03.03.05.04.08.07.16.1.24.03.09.06.18.08.27.02.1.04.2.05.3.02.23.02.47.01.7-.01.1-.02.21-.04.31,0,.02-.01.05-.01.07s-.01.03-.01.05c-.03.14-.07.27-.1.4-.04.11-.08.22-.13.31-.04.09-.09.17-.14.24-.04.06-.08.11-.13.16s-.1.1-.16.13c-1.9-.59-1.97-3.02-4.08-3.4ZM140.28,51.87c-.01,1.23-1,1.49-2.38,1.36-.75-2.16,2.18-3.11,2.38-1.36ZM133.48,57.31c.11-.04.22-.08.32-.13.2-.09.38-.22.53-.37.04-.04.08-.08.12-.13.04-.05.08-.1.12-.16.04-.07.08-.15.12-.23.01,0,.01-.02.02-.04.04-.1.08-.2.1-.31.03-.08.04-.16.06-.25,0-.02.01-.04.01-.06v-.02s.01-.09.01-.13c.03-.24.03-.5,0-.78-.01-.14-.03-.29-.05-.45.13-.01.25-.01.37-.01h.02c.15,0,.3.01.43.03.14.01.27.03.39.07.11.02.22.05.31.09.06.03.11.05.16.08.06.02.11.06.16.09h.01s.09.07.13.11c.04.03.08.07.12.11s.08.09.11.14c.03.03.06.06.07.1.21.32.25.71.15,1.09-.01.06-.03.12-.05.18-.03.12-.09.24-.15.35,0,.01-.01.01-.01.01-.06.11-.13.22-.22.32,0,.01-.01.01-.01.01-.04.06-.08.11-.13.15-.69.69-1.87.99-3.22.14ZM130.76,57.65c-.07-.53,0-.94.24-1.16.05-.05.11-.09.18-.12.01-.01.02-.01.03-.01.02-.01.04-.03.07-.03.05-.02.1-.03.15-.04h.01c.04.05.08.11.13.16l.15.15c.1.09.21.18.31.28.1.1.2.21.27.33.04.06.07.13.09.2.04.07.06.15.07.24h-1.7ZM120.2,53.91c.59-.03,1.06.08,1.36.34.05.2.05.35.01.46-.09.21-.33.28-.57.34-.04.01-.07.02-.11.03-.03.01-.07.02-.1.04-.04.01-.09.03-.12.05-.05.03-.09.06-.13.1,0-.05-.02-.09-.04-.14-.05-.13-.12-.24-.18-.35h0c-.02-.05-.04-.09-.06-.14-.02-.04-.03-.08-.04-.13-.05-.15-.07-.34-.02-.6ZM119.18,47.78c.54-.11,1.07-.23,1.6-.34.11-.02.22-.05.34-.07.46-.1.93-.2,1.41-.29.4-.07.81-.14,1.23-.2.53-.07,1.08-.13,1.65-.16.08,0,.17,0,.26,0,.3-.02.6-.03.91-.03.57,0,1.17.03,1.79.08-.02,1.04.31,1.74,1.02,2.04,1.04-.24,1.24.35,2.04.34-.08-.82.09-1.38.45-1.76l.06-.06c.06-.06.12-.12.19-.16.11-.07.22-.14.35-.19.08-.04.17-.07.26-.1.12-.05.25-.08.39-.11,1.78,1.06,4.57,1.11,4.43,4.08-.76.27-1.33.72-2.39.69.17-1.3-.14-2.13-1.02-2.39-.23.11-.49.19-.74.27-.15.06-.3.11-.43.18-.04.02-.09.05-.13.07-.04.03-.08.06-.12.09-.03.03-.07.06-.1.1-.04.04-.08.09-.12.14,0,.01-.01.02-.01.03-.02.04-.04.08-.06.13-.09.23-.1.55,0,.98,0,.02,0,.04.01.06.01.12.04.23.09.31.03.04.06.08.09.12.07.07.15.12.24.17.26.13.59.18.85.3.06.03.11.06.16.1t.02.01s.09.07.13.12c0,0,0,.01,0,.01.01.03.02.05.03.07.01.02.02.04.03.06.02.03.03.06.04.1.02.1.02.2.01.33-.25,1.22-.67,2.27-2.38,2.04.97-1.63-.42-3.59-2.04-2.38-.03.15-.04.28-.04.4,0,.11.01.21.04.3-.01.01,0,.02.01.04.01.06.03.12.06.17.02.04.04.08.06.11.04.06.08.11.13.16.05.05.11.1.17.14.09.07.19.12.29.18.05.03.1.06.15.08.1.05.2.11.29.17.1.06.19.12.27.2.07.07.13.14.17.22.04.06.07.13.1.21-.18.13-.38.25-.58.38-.07.04-.15.09-.22.13-.08.05-.16.1-.24.16-.11.07-.21.16-.31.24-.03.02-.06.05-.08.07-.02.02-.04.05-.07.07-.09.09-.18.2-.25.31-.04.07-.08.14-.12.21,0,.01-.01.02-.01.03-.02.05-.04.1-.06.15-.03.1-.06.21-.08.33,0,.06-.02.12-.02.18-.01.07-.01.13-.01.2,0,.08,0,.17.01.26h0c-.14,0-.29-.01-.44-.02-1.6-.06-3.55.23-4.93-.06-.18-.04-.36-.09-.52-.15-.04-.02-.08-.03-.12-.05-.04-.01-.08-.03-.12-.05h0c0-.13.02-.24.04-.34.01-.05.02-.1.04-.14.02-.04.04-.08.06-.12.08-.17.2-.3.32-.42.01-.02.03-.04.06-.06.02-.02.04-.04.07-.06.05-.04.1-.09.15-.13.1-.08.2-.16.29-.26.13-.13.24-.28.31-.46.02-.05.03-.1.04-.15.01-.04.02-.09.03-.14.01-.07.02-.14.02-.22,0-.16-.02-.35-.07-.57-.08-.03-.15-.06-.22-.1-.05-.03-.09-.06-.13-.09-.11-.07-.21-.16-.29-.25-.04-.04-.08-.08-.11-.12l-.06-.06s-.03-.05-.05-.07c-.1-.15-.18-.31-.26-.48-.08-.18-.15-.36-.22-.55-.04-.09-.07-.18-.1-.28-.02-.03-.03-.07-.04-.11-.07-.17-.13-.35-.2-.52-.06-.16-.13-.31-.21-.46-.01,0-.01-.02-.02-.03-.08-.15-.17-.3-.28-.43-.06-.07-.12-.13-.19-.19-.09.01-.18.01-.27.01-.12.01-.24.01-.35.01-.17,0-.34-.01-.49-.04-.02.01-.04,0-.06-.01-.16-.01-.31-.05-.45-.09-.08-.03-.16-.06-.23-.09-.15-.06-.29-.13-.41-.22-.06-.05-.11-.09-.16-.14-.06-.05-.11-.1-.15-.15-.07-.09-.13-.18-.19-.28-.03-.05-.06-.1-.08-.16-.02-.05-.04-.11-.07-.16-.14-.38-.19-.85-.15-1.41ZM116.79,51.53c.45-.49,1.93-.49,2.38,0,.06,1.41-.62,2.09-2.04,2.04-.39-.4-.38-1.21-.34-2.04ZM113.39,50.5c-.09-2.09,2.9-2.19,2.38.34-1.48-.01-1.56.52-2.38-.34ZM112.03,44.72c4.72-.35,10.92-1.12,16.68-.68-.08.64.38.75.34,1.36-4.2.89-10.09-.15-14.3-.34-.17-.01-.34.02-.51.06-.13.03-.27.06-.4.11-.07.02-.13.04-.2.05-.04.02-.09.03-.13.04-.1.03-.2.06-.3.07-.15.03-.3.04-.45.02-.08,0-.15-.04-.22-.06,0,0,0,0,0,0-.07-.03-.14-.08-.21-.16-.04-.04-.07-.08-.11-.12-.06-.09-.13-.2-.18-.34ZM110.02,39.48s-.04-.06-.01-.09c.04-.04.14-.08.32-.12.99.09,1.04-.77,2.04-.68,1.14-.01,1.8.47,2.38,1.02-.21.47-1.31.05-1.36.68-.12-.07-.34-.14-.62-.2-.06-.02-.12-.03-.18-.04-.6-.13-1.39-.25-1.93-.36-.08-.02-.16-.04-.23-.05-.07-.02-.13-.04-.18-.05-.11-.04-.18-.08-.23-.11ZM105.22,39.27c.07,1.12-1.6,1.34-1.36,0h1.36ZM103.52,45.06v-1.36c1-.76,2.67.1,2.72,1.36-.67.67-1.94.22-2.72,0ZM11.61,184.63c.01.25-.05.44-.16.58-.04.07-.09.12-.16.17h0c-.06.05-.14.09-.22.12s-.16.06-.25.07c-.04.02-.09.03-.13.03-.14.02-.28.04-.44.04-.32.02-.67.01-1.01.01-.01-.25.05-.44.15-.58.04-.06.1-.12.17-.17h.01c.06-.05.13-.09.21-.12.01,0,.01-.01.02-.01.08-.03.16-.05.25-.07.06-.01.12-.02.19-.03.03-.01.07-.01.11-.01.1-.02.21-.02.32-.02.3-.02.63-.01.94-.01h.01ZM26.24,181.57c-1.83,3.05-8.54,3-12.59,2.72,0-.07.03-.14.05-.21.02-.06.04-.12.07-.18.02-.05.05-.1.08-.15.03-.05.06-.09.09-.13.06-.07.13-.13.21-.17.06-.04.12-.07.19-.09.08-.03.16-.05.24-.06.09-.01.18-.02.27-.02.84,0,1.96.44,2.88.33,2.51-1.01,4.68-2.35,8.51-2.04ZM41.83,177.08c-.14.17-.36.25-.49.41-.06.08-.11.18-.11.33h-.01c-.54.04-1.07.14-1.59.27-.39.1-.78.22-1.17.36-.26.09-.51.19-.77.29-.26.11-.51.22-.76.33-.13.06-.25.11-.37.17-.25.12-.5.23-.75.35-.37.18-.74.37-1.1.54-.12.06-.24.12-.36.18-.37.18-.73.35-1.08.51-.24.11-.47.21-.7.3-.12.05-.24.1-.35.14-.23.09-.46.17-.68.24-.47.14-.93.25-1.38.3-.09.01-.18.02-.26.03-.36.02-.72.01-1.08-.05-.24-.03-.48-.09-.71-.17-.19-.06-.38-.14-.56-.24-.1-.04-.19-.09-.28-.15,2.76-1.52,5.66-1.82,8.85-3.06,2.02-.78,3.3-2.19,5.78-1.7h0c.08.32.03.5-.08.62ZM47.35,173.06c-.02.14-.05.27-.09.39-.08.25-.2.47-.34.65-.07.09-.15.17-.24.24-.08.07-.16.13-.25.18-.01.01-.03.01-.04.02-.05.03-.11.05-.17.07,0,0-.03.01-.04.01-.06.03-.12.05-.19.07-.11.03-.23.06-.36.07-.14.02-.28.03-.44.03-.18,0-.36,0-.56-.03.01-.08.02-.16.04-.23.02-.05.03-.1.06-.14.01-.03.03-.07.05-.1.06-.11.13-.19.22-.27.06-.05.12-.09.19-.13.08-.05.17-.09.26-.13.04-.02.08-.04.12-.06.01,0,.02-.01.03-.01.47-.17,1.02-.25,1.46-.46.11-.05.2-.1.29-.17ZM26.29,92.55s-.03-.11-.04-.17c.03-.04.07-.07.11-.11.11-.1.25-.21.41-.3.1-.05.2-.11.32-.15.05-.03.11-.04.16-.06.05-.01.09-.02.14-.03.06-.01.13-.02.19-.02.16,0,.31.05.43.15.03.01.06.04.09.09.03.03.05.06.07.11.03.04.05.09.06.15.03.05.05.11.06.17-.03.04-.07.07-.11.11-.09.08-.19.16-.31.23-.05.04-.11.07-.17.1-.09.05-.18.09-.27.12-.05.03-.1.05-.16.06-.04.01-.09.02-.14.03-.06,0-.13.02-.19.02-.04,0-.08,0-.12-.01-.06,0-.13-.03-.18-.06-.05-.02-.09-.05-.13-.08-.06-.05-.12-.12-.16-.21-.02-.04-.04-.09-.06-.14ZM23.68,89.38s.08.03.11.05c.04.01.07.03.1.06.06.03.13.09.18.15.04.05.08.1.11.16.03.06.06.12.07.19.05.18.04.41-.04.68h-.01c-.15-.03-.3-.06-.44-.09t-.02-.01c-.06-.01-.11-.03-.17-.05-.14-.04-.28-.09-.4-.15-.14-.06-.27-.12-.39-.2-.03-.01-.05-.03-.07-.05-.13-.08-.25-.17-.36-.27-.07-.07-.13-.13-.19-.2.06-.06.13-.11.21-.15.06-.03.12-.06.18-.09.07-.02.13-.04.2-.06.07-.02.14-.03.21-.04.25-.03.5-.01.72.07ZM62.32,83.19h.01c.05,2.08-.11,3.97-1.02,5.1h-.01c-.17-.03-.34-.06-.52-.07-.03,0-.05,0-.08,0-.07-.01-.15-.02-.23-.03h-.07c-.14-.02-.29-.03-.43-.03-.03-.01-.06-.01-.09-.01-.42-.02-.83-.01-1.25.01h-.06c-.2,0-.4.03-.6.05h-.06c-.31.02-.62.06-.93.1h-.01c-.15.02-.3.04-.45.07-.31.04-.6.09-.89.14-.14.02-.28.04-.42.07-.42.07-.81.14-1.17.21-.47.08-.9.15-1.24.18-3.56.31-7.23-.59-10.21-.68-2.05-.06-4.19.72-6.13.68-1-.02-1.98-.63-3.06-.68-.29,0-.58-.02-.87-.03-.23,0-.46-.01-.69-.01-.25-.01-.5-.01-.75-.01-.33-.01-.65-.01-.97-.02-.35,0-.69-.02-1.03-.04-.06,0-.12-.01-.18-.01-.27-.02-.54-.04-.81-.07-.19-.02-.37-.04-.55-.07-.14-.02-.27-.05-.4-.07-.16-.03-.31-.06-.46-.1-.14-.03-.28-.07-.41-.11-.31-.09-.6-.2-.88-.33-.18-.08-.36-.18-.54-.29s-.36-.23-.53-.35c-.16-.13-.32-.27-.47-.43h-.01c-.24-.23-.45-.49-.66-.78,3.29-.49,7.73-1.55,10.2,0h.01c.09-.11.18-.21.27-.3.08-.07.15-.14.23-.2.06-.05.13-.1.19-.13.06-.04.11-.07.17-.09.06-.03.12-.06.18-.08.09-.03.18-.06.28-.08.08-.02.16-.03.25-.05.23-.03.5-.06.81-.09,4.03-.4,9,.55,13.62.34,3.1-.15,6.85-1.55,10.21-.68.98-.27,1.8-.69,2.71-1.02ZM44.62,106.67c-2.04-2.38-1.56-7.28-2.04-11.23.19.05.37.11.54.19.33.14.62.33.89.55.13.11.25.22.37.35.12.11.24.24.35.38.32.39.61.83.91,1.25h0c.1.04.2.07.29.1.18.07.35.16.5.27.11.08.22.16.32.25.15.14.29.28.43.43.08.08.16.16.24.24l.19.19c.06.07.13.13.2.19.13.12.28.23.43.33.32.2.68.34,1.15.39.78.82,1.63,3.35,3.4,2.04-1.6-2.96-6.98-3.89-6.47-7.83,2.61-1.14,2.89,2.4,5.45,2.38.07.11.14.22.22.33.07.11.15.22.24.32.07.09.15.18.23.26.08.08.16.16.24.23.12.11.25.21.38.31.13.1.26.18.4.26.08.05.16.1.25.14.04.03.09.05.13.06.09.06.19.1.29.14.33.69.7,1.35,1.02,2.04,1.54.5,2.03,2.05,3.75,2.38.79,1.15,1.91,3.42,3.51,3.23.12-.02.25-.05.38-.09.06-.02.12-.04.19-.07h0c-.03-.13-.07-.24-.11-.35-.01-.02-.02-.04-.03-.06-.04-.09-.09-.19-.14-.27-.06-.1-.12-.2-.19-.29-.07-.09-.14-.18-.22-.26-.06-.07-.12-.13-.19-.19-.2-.18-.42-.35-.66-.49-.12-.07-.24-.14-.37-.21l-.39-.18c-.35-.16-.72-.3-1.1-.43-.56-1.17-1.08-2.07-2.04-3.06-.11-.11-.22-.22-.34-.33-.12-.1-.25-.21-.38-.31-.19-.15-.39-.3-.6-.44-.21-.15-.42-.29-.63-.43-.29-.19-.57-.38-.85-.57-.14-.09-.28-.19-.41-.29-.4-.29-.77-.59-1.07-.92h-.01c-.1-.11-.19-.22-.27-.33l-.02-.02c-.07-.1-.14-.21-.2-.31-.01-.02-.02-.04-.03-.06-.05-.08-.1-.17-.13-.26-.02-.05-.04-.1-.05-.16h-.01c-.04-.12-.07-.22-.08-.33-.03-.14-.04-.28-.04-.43,0-.08,0-.17.01-.26,1.05-1.02,2.79.15,3.74.34,3.14-2.51,10.14,4.08,7.83,5.79-.1-.03-.18-.07-.27-.11-.09-.04-.17-.08-.26-.12-.18-.09-.36-.19-.53-.3-.01,0-.03-.02-.05-.03-.16-.11-.31-.22-.46-.33-.34-.27-.65-.55-.96-.83-.15-.14-.3-.28-.46-.41-.08-.07-.16-.14-.25-.21-.14-.12-.29-.24-.45-.35-.41-.3-.87-.54-1.41-.71h0v.03s0,.02.01.03c-.01.04,0,.08.02.11.01.04.03.08.06.12.05.07.11.14.17.21.03.05.06.1.08.17.62,1.77,2.13,2.64,3.74,3.41.06.15.13.29.2.43.03.06.07.13.1.19.02.03.03.05.04.07.11.19.23.36.35.53.07.09.13.17.2.26.06.08.13.16.2.24.16.18.32.35.49.52.13.13.26.25.4.37.36.34.74.66,1.12,1,.17.15.34.3.5.46.13.12.25.25.38.38.08.09.17.18.25.28.09.09.17.19.24.29.13.15.25.32.36.49.03.05.06.1.09.15.03.05.06.09.09.15.06.1.11.2.16.31.04.08.08.16.11.25,0,.01.02.02.02.03.05.13.1.26.15.4h0c-.64.03-1.28.06-1.93.1-.65.05-1.3.1-1.96.15-.03,0-.06.01-.09.01-.6.05-1.21.11-1.82.17-.84.08-1.68.17-2.53.26-.42.04-.84.08-1.27.12-.77.08-1.55.15-2.33.2-.19.01-.39.03-.59.04-.29.02-.59.04-.89.05-.42.02-.84.04-1.26.05-.36.01-.72.02-1.08.02h-.12c-.29,0-.58,0-.86,0-.2,0-.4-.01-.6-.01-.6-.03-1.2-.06-1.8-.12-.34-.03-.69-.07-1.03-.12-.34-.04-.68-.09-1.02-.16-.34-.05-.68-.12-1.01-.2-.34-.07-.67-.16-1-.25-.33-.08-.66-.18-.98-.29h0c0-.91-.13-1.94.34-2.39ZM69.33,102.14c-.07-.03-.14-.06-.21-.1-.07-.04-.14-.08-.21-.13-.06-.04-.12-.09-.17-.12-.1-.07-.19-.14-.28-.22-.01-.11,0-.22,0-.31,0-.04,0-.07.01-.1.01-.03.02-.06.03-.08.02-.05.04-.1.06-.15s.05-.09.08-.13c.02-.03.04-.06.07-.08.02-.02.04-.04.07-.07l.06-.06c.08-.06.17-.12.26-.17.12-.08.24-.14.36-.21h.01s.02.03.03.05.02.03.03.04c.02.03.04.06.06.08.05.05.1.09.16.13.11.08.24.14.36.22.06.03.12.07.17.12.06.05.11.1.14.16t.01.02s.01.02.02.03c.03.04.05.08.06.13.07.17.07.4-.02.72h-.01c-.06.06-.12.11-.17.15-.04.03-.09.06-.14.08-.04.03-.08.04-.13.06-.05.01-.09.02-.13.03-.2.03-.4-.01-.59-.09ZM45.65,91.01c1.45-.2,2.25.25,3.4.35h.01v1.36h-.01c-.26-.06-.51-.13-.76-.2s-.49-.14-.73-.23c-.31-.11-.6-.24-.87-.4-.27-.15-.52-.33-.74-.54-.11-.11-.21-.22-.3-.34ZM50.42,60.04c1.63-1.23,6.1-.51,7.82.34-3.14-.32-5.62.84-7.82-.34ZM36.8,60.04c1.31-.95,3.72-.75,5.11,0,1.34-.57,4.22-1.1,5.78-.34.11.03.2.08.26.17.09.11.12.27.09.51h0c-3.76.48-8.27.42-11.23-.34ZM33.71,60.1c-.02-.1-.01-.23.03-.4h2.04v.68h-.01c-.44-.13-1.24.11-1.7.02-.06-.01-.12-.03-.17-.06-.04-.02-.07-.04-.1-.07-.02-.02-.04-.04-.05-.07-.02-.03-.03-.06-.04-.1ZM22.5,57.65c-.31.13-.66.19-1.02.19-.14,0-.28-.01-.43-.03-.14-.01-.29-.04-.44-.07-.14-.04-.29-.08-.43-.13-.29-.09-.57-.21-.84-.36-.11-.06-.22-.13-.32-.19-.1-.07-.2-.14-.3-.22-.04-.03-.08-.06-.11-.09-.11-.09-.21-.19-.31-.29-.13-.13-.24-.27-.34-.41-.09-.14-.17-.29-.23-.44,1.13-.11,3.8.89,4.77,2.04ZM63.35,56.29c-5.36,1.93-15.44.69-23.83,1.02-2.69.11-5.65.33-7.83,0-.49-.07-1.22-.78-2.04-1.02-.14-.04-.28-.08-.42-.12-.26-.07-.52-.15-.77-.22-.15-.04-.3-.09-.45-.13-.27-.07-.54-.15-.8-.24-.66-.2-1.29-.41-1.87-.63-.18-.08-.36-.15-.53-.23-.16-.07-.32-.14-.47-.22-.11-.05-.22-.1-.32-.16-.07-.04-.15-.08-.22-.12-.13-.07-.25-.14-.37-.22-.09-.06-.18-.12-.27-.19-.09-.05-.17-.12-.25-.18,0-.01-.02-.02-.03-.03-.16-.13-.31-.26-.45-.4-.22-.23-.42-.47-.59-.73-.05-.08-.11-.17-.16-.26-.36-.66-.55-1.44-.54-2.39.02-.02.03-.05.04-.07.02-.02.03-.05.05-.07.01-.01.02-.03.02-.04.06-.1.13-.19.2-.28.12-.14.25-.28.39-.4.11-.1.23-.19.36-.28.06-.05.13-.09.2-.13.09-.06.18-.11.27-.15.06-.04.13-.07.2-.1.15-.07.3-.13.46-.18.19-.07.39-.12.6-.16.15-.04.32-.06.48-.08h.02c.07-.01.15-.02.23-.03.82-.07,1.71.02,2.6.27.76-.72-.82-2.11,1.36-1.7,1.02.08-1.36,1.27,0,1.7.13.1.28.16.44.2s.33.06.51.06c.91.01,2-.46,2.46-.94,0-.04-.01-.07-.02-.1-.01-.01-.01-.03-.02-.04-.01-.05-.04-.09-.07-.12-.02-.02-.04-.04-.07-.05-.05-.03-.1-.05-.16-.08-.03-.01-.06-.02-.1-.03-.15-.05-.32-.09-.43-.17-.03-.02-.05-.04-.07-.06-.03-.03-.05-.07-.07-.11-.02-.07-.02-.15-.01-.26,1.28-.22,3.59-.75,4.76,0,.25,1.16-1.25.56-1.36,1.36,1.83.71,5.47.56,6.13-1.02,4.57.73,6.39-2.83,9.53-.68,4.3-.12,8.84-.6,11.91,0,.22.52.35,1.13.45,1.77.05.32.09.65.13.98.01.16.03.33.05.49.02.17.04.34.06.5h-.01c-.07.03-.14.05-.22.07-.08.02-.17.03-.26.05-.41.05-.9.04-1.44,0-.29-.02-.59-.05-.9-.08-.16-.01-.32-.03-.48-.04-.31-.02-.62-.05-.93-.06-1.21-.05-2.33.06-2.91.74,2.54,1.75,6.35-.93,8.17,1.03-.04,1.66.18,3.58-.34,4.76ZM65.5,95.54c.12.07.23.15.34.23.23.17.44.36.63.56.1.1.19.2.27.31.08.09.15.18.21.27.15.2.29.41.4.62.06.11.12.21.16.32.06.11.11.21.15.32.05.11.09.22.12.33h-.01c-1.41.51-2.73.02-3.69-.91-.09-.09-.17-.17-.25-.26-.08-.1-.16-.19-.24-.29-.11-.14-.21-.3-.31-.45-.09-.15-.18-.31-.26-.48-.15-.33-.27-.67-.35-1.01.02,0,.03,0,.05,0,.02-.01.05-.02.07-.02.07-.03.14-.04.21-.05.02-.01.04-.01.06-.01.03-.01.07-.02.1-.02.02,0,.04-.01.06-.01.11-.02.23-.03.34-.03h.08s.06,0,.09.01c.05,0,.09,0,.14,0,.05,0,.09,0,.14.01.23.03.46.09.68.16.07.02.13.05.2.08.09.04.18.08.26.12.12.06.24.12.35.2ZM97.73,46.76h-.68v-.68h.68v.68ZM99.43,46.08c.3-.26.97.21,1.02.34.49,1.3-1.69.25-1.02-.34ZM89.89,95.51c-.11.06-.23.1-.35.14-.2.07-.42.11-.66.14h0c-.08-.11-.15-.22-.22-.32-.14-.22-.26-.44-.37-.66-.06-.12-.11-.23-.16-.35-.07-.18-.15-.38-.21-.57-.01-.02-.01-.03-.02-.05-.02-.06-.04-.12-.05-.18-.05-.15-.09-.3-.13-.45-.03-.16-.07-.32-.1-.49-.06-.32-.11-.65-.15-.98-.03-.34-.06-.68-.08-1.02-.03-.65-.03-1.31-.01-1.98.01-.31.02-.64.04-.96.03-.64.08-1.28.12-1.92.03-.32.05-.64.07-.95.04-.63.07-1.26.09-1.88.02-.57.03-1.12.01-1.66-.01-.15-.02-.3-.02-.45-.02-.25-.04-.49-.07-.73-.02-.21-.05-.41-.09-.61-.03-.2-.07-.39-.12-.58-.04-.2-.09-.38-.15-.56-.06-.19-.12-.36-.19-.54-.07-.17-.14-.34-.23-.5.11-.19.21-.39.3-.59t.01-.01c.08-.2.17-.4.24-.61.16-.42.27-.85.36-1.3.25-1.23.28-2.56.21-3.92-.01-.3-.03-.59-.05-.89-.04-.6-.09-1.21-.14-1.82-.03-.36-.06-.72-.09-1.08-.02-.25-.04-.49-.06-.74-.01-.24-.03-.49-.04-.73-.01-.24-.02-.49-.03-.73-.05-1.77.07-3.46.65-4.94,1.75-.74,4.84-.15,5.78-1.7h-.01c-.29-.02-.57-.04-.86-.07-.58-.04-1.16-.08-1.73-.14-1.13-.11-2.22-.27-3.18-.57-.23-.07-.46-.15-.68-.24h0c-.08-2.39,1.71-2.27,3.56-2.13.08.01.17.01.25.02h.02c.13,0,.26.02.39.03,1.24.07,2.41,0,2.92-.99-.09-.03-.18-.07-.28-.09-.09-.03-.19-.05-.29-.07-.15-.03-.31-.06-.48-.07-.04-.01-.09-.02-.13-.02-1.35-.08-2.92.27-4.17.17-.08,0-.15-.01-.22-.02-.14-.01-.27-.03-.41-.07h-.01c-.06-.02-.12-.03-.18-.06-.06-.01-.11-.03-.16-.05-.19-.08-.37-.18-.52-.31-.07-.06-.14-.14-.2-.21-.13-.16-.23-.34-.32-.55-.04-.11-.08-.22-.11-.35.18-.21.4-.37.65-.51.13-.07.27-.13.42-.18.1-.03.19-.06.3-.1.02,0,.04-.01.06-.01.07-.02.14-.03.22-.05.09-.02.18-.04.28-.05.09-.02.19-.03.3-.04.01-.01.03-.01.04-.01h.02c.22-.02.45-.04.68-.05.76-.03,1.6,0,2.43.03,1.42.05,2.85.1,3.95-.17.17-.04.32-.09.47-.15.15-.05.29-.12.41-.19.13-.08.25-.16.36-.25.11-.09.21-.19.3-.31h-.01c-.11-.07-.23-.13-.35-.19-.09-.04-.19-.08-.29-.11-.11-.03-.21-.06-.32-.09-.1-.03-.21-.05-.33-.08-.11-.02-.22-.04-.34-.06-.16-.02-.32-.04-.49-.05-.13-.01-.27-.02-.4-.03-.2-.01-.41-.02-.62-.02-.55-.01-1.12-.01-1.68,0-.64.01-1.28.02-1.89,0-.18-.01-.36-.01-.54-.03-.21,0-.42-.02-.63-.05-.19-.03-.37-.06-.55-.1-.19-.03-.37-.08-.53-.14-.17-.05-.32-.11-.47-.18-.01,0-.01-.01-.01-.01-.29-.14-.55-.32-.75-.56.06-.02.13-.04.19-.05t.02-.01c.1-.02.2-.04.3-.06.17-.04.34-.07.52-.1.09-.01.18-.03.27-.05.09-.02.18-.03.27-.04.18-.03.36-.06.55-.08h.01c.75-.08,1.52-.14,2.31-.17.52-.02,1.06-.03,1.58-.03.92,0,1.82.03,2.69.06,1.15.04,2.24.1,3.18.15.24.01.47.02.69.03.06.02.11.04.15.07.05.03.08.06.11.11.09.11.11.27.08.5-.31,1.83.4,5.99-.34,8.85h0s-.11.08-.18.1c-.05.02-.1.04-.16.05-.05.01-.09.02-.14.03-.07.01-.13.02-.21.02-.83.06-2.06-.25-3.02-.19-.19.02-.37.05-.54.1h-.01c-.16.06-.31.13-.43.23-.05.04-.1.08-.14.13-.04.05-.08.1-.11.16-.03.05-.06.11-.09.18-.02.03-.03.06-.04.1-.01.04-.02.08-.03.11h0c.95.08,1.59.06,2.11.08.17,0,.33.02.48.04.12.02.25.04.37.07.11.03.22.07.33.11.1.04.2.08.31.13.15.07.31.16.48.26-.01,1.12-.11,1.9-.33,2.55-.21.66-.54,1.2-1.03,1.87h0c-.12.17-.22.33-.32.48-.2.31-.36.6-.5.89-.07.14-.13.29-.19.44-.11.28-.2.57-.28.85-.04.18-.08.36-.12.55-.03.18-.07.37-.09.57-.03.19-.05.39-.08.59-.02.21-.05.42-.07.64h0c-.02.23-.04.46-.07.7-.04.36-.08.74-.13,1.15-.02.18-.05.38-.08.58-.03.23-.07.48-.11.74-.01.04-.01.08-.03.12-.05.31-.13.63-.21.95,0,.05-.03.11-.04.16-.12.41-.25.83-.38,1.25-.13.43-.27.87-.39,1.3-.12.44-.23.88-.31,1.32-.36,1.99-.23,4.27-.68,6.13-.03.1-.06.2-.1.29-.26.71-.79,1.33-.93,2.09-.04.26-.09.52-.12.78-.02.15-.04.3-.06.45-.05.39-.1.78-.14,1.17-.03.27-.06.54-.09.81-.05.46-.1.91-.17,1.35-.02.17-.05.35-.08.52-.03.17-.05.33-.08.5-.04.21-.08.42-.13.63-.03.15-.07.3-.11.45-.03.11-.06.23-.1.34-.07.23-.15.44-.23.64-.09.21-.19.4-.29.58-.08.13-.15.25-.24.37-.09.13-.19.25-.3.36-.13.15-.28.28-.45.39-.09.06-.18.12-.28.16-.06.05-.13.08-.2.1ZM89.57,100.21h-.01c-.1,0-.2,0-.3-.01-.15-.02-.28-.05-.4-.09-.18-.06-.34-.15-.48-.27-.09-.07-.17-.15-.24-.25-.03-.05-.07-.1-.1-.14-.05-.08-.09-.15-.13-.23h0s-.02-.06-.03-.08c-.03-.08-.05-.15-.07-.23-.02-.07-.03-.14-.05-.22-.01-.08-.01-.15-.02-.23-.01-.06-.01-.11-.01-.17,0-.14.01-.29.03-.43.02-.13.06-.26.1-.38.78-.21,1.34.01,1.68.42.07.08.13.16.17.25.33.6.29,1.45-.14,2.06ZM86.17,105.94c0-.09.01-.18.02-.28.02-.17.05-.35.08-.52.05-.2.1-.41.16-.62.06-.2.13-.41.2-.62.04-.1.08-.2.11-.3.08-.2.16-.4.23-.59.08-.19.15-.37.22-.55.07-.17.14-.33.19-.48,0,0,.01,0,.01-.01.06-.15.11-.28.14-.4.16-.02.31-.03.44-.03.07,0,.13,0,.19.01.06,0,.12.01.18.02h.04c.09.02.17.04.24.07.13.03.24.09.34.16.04.02.07.04.1.07.06.04.12.09.17.15.08.09.16.18.22.29.07.1.12.21.17.33.03.06.05.12.07.18.05.12.09.24.12.38.02.06.04.13.05.2.02.07.04.14.05.21h0c-.06.06-.13.11-.21.15-.03.02-.07.04-.11.06-.11.06-.23.1-.36.15-.03.01-.05.02-.08.03-.18.06-.37.12-.54.18-.07.02-.14.04-.2.07-.01.01-.02.01-.03.02-.05.03-.11.06-.16.09-.05.02-.1.05-.15.09-.07.05-.13.11-.19.18.01.11.02.22.03.32.03.19.07.37.11.53.03.08.05.16.07.23.02.07.05.14.07.21.08.2.14.38.17.56.02.11.03.22.01.33,0,.04,0,.08-.01.12s-.02.07-.04.11c0,.04-.02.08-.04.12-.07.16-.19.34-.37.54h-.01c-.16-.01-.3-.03-.43-.06h-.01c-.13-.03-.25-.07-.36-.12-.1-.04-.2-.1-.29-.16h-.01s-.08-.06-.12-.1c-.04-.03-.07-.06-.1-.1-.06-.08-.12-.16-.17-.24-.03-.06-.07-.14-.09-.21-.02-.07-.04-.15-.06-.22,0-.07-.02-.14-.03-.21-.01-.09-.02-.2-.02-.3v-.04ZM83.77,63.78c-.05-.06-.09-.11-.13-.17-.04-.05-.08-.11-.11-.17-.01,0-.01-.01-.01-.01-.02-.02-.03-.04-.03-.06-.05-.07-.09-.15-.12-.23-.03-.06-.06-.13-.08-.19-.06-.14-.12-.3-.16-.46-.01-.02-.01-.05-.02-.07-.05-.15-.08-.3-.12-.45-.04-.19-.08-.37-.12-.56-.02-.1-.04-.2-.06-.3-.07-.3-.14-.61-.22-.9-.04-.13-.08-.25-.12-.37-.03-.1-.07-.2-.11-.3-.08-.19-.18-.36-.29-.52,1.66-1.95-.33-4.31-.34-6.47-.01-1.21.95-2.18,1.02-3.41.07-1.17-1.42-2.09-.34-3.06,1.21.04,2.74-.25,2.72,1.02.96,1.75-.21,4.51,1.36,6.13-1.62,2.8,1.25,10.1-2.72,10.55ZM83.84,82.5c-.07.01-.14.02-.21.02-.31,0-.62-.1-.87-.36-.04-.14-.05-.26-.03-.37,0-.06.02-.12.05-.18.02-.04.04-.08.07-.12.02-.03.05-.07.09-.1.09-.09.2-.15.33-.2.05-.01.09-.03.15-.04.05-.02.1-.03.16-.04.05-.01.1-.02.16-.02.06-.01.12-.01.17-.01.09,0,.19.01.28.02.06.01.13.02.19.04.07.01.13.03.18.05.07.02.13.05.18.08.06.03.11.06.16.1.05.03.09.07.13.13.07.09.11.2.11.32-.04.04-.08.09-.13.13-.05.04-.1.09-.16.12-.06.05-.12.09-.18.12-.06.04-.12.08-.19.11-.1.05-.2.09-.31.12-.05.02-.11.04-.17.05-.05.01-.1.02-.16.03ZM84.21,65.24c.34,0,.68.11.93.33.36.31.54.84.34,1.62h-.01c-.06.07-.13.12-.23.16-.02.01-.03.01-.05.02h-.01c-.06.03-.11.05-.18.07-.09.03-.18.05-.28.07-.7.13-1.62.03-1.96-.32-.15-.72.06-1.24.43-1.57.07-.06.15-.12.23-.16.08-.05.17-.09.26-.12.16-.06.35-.1.53-.1ZM85.48,70.25h-.01c-.35.28-.89.4-1.38.34-.07-.01-.13-.02-.2-.03-.08-.01-.16-.03-.24-.06-.02,0-.04-.01-.06-.02-.11-.04-.21-.09-.3-.14-.05-.03-.09-.06-.13-.09-.04-.03-.08-.07-.12-.11-.04-.04-.07-.08-.09-.12-.02-.01-.03-.03-.04-.04-.03-.05-.05-.1-.07-.15-.01-.01-.01-.02-.02-.04-.02-.05-.04-.11-.05-.16v-.04c-.02-.11-.03-.23-.01-.36.34-.35,1.26-.45,1.96-.32.1.02.19.04.28.07.04.01.06.02.09.03.03.01.06.03.09.04h.01s.03.01.05.02c.1.04.17.09.23.16h.01v1.02ZM84.45,75.02h.01v1.02h-.01c-.11.06-.2.08-.29.08-.03,0-.06,0-.08-.01-.02,0-.04-.01-.07-.02-.04-.02-.08-.05-.11-.08-.06-.06-.1-.13-.14-.22-.01-.04-.02-.08-.03-.13-.02-.04-.02-.09-.02-.14,0-.02,0-.04,0-.06v-.02s0-.03.01-.05c.01-.05.02-.09.03-.13,0-.02.01-.04.02-.06,0-.02.02-.04.03-.05.02-.04.05-.07.08-.1.1-.1.23-.14.41-.09.05,0,.1.03.15.06ZM84.79,78.76h.01c.07.31.01.56-.14.73-.03.04-.07.08-.12.11-.04.03-.08.06-.12.08-.08.04-.16.07-.25.08-.07.02-.15.03-.23.03-.07,0-.14,0-.2-.02-.04-.01-.09-.02-.13-.03-.04-.02-.08-.03-.11-.05-.11-.05-.2-.11-.27-.2-.02-.03-.04-.05-.05-.08-.03-.04-.05-.09-.07-.14-.01-.04-.02-.08-.03-.12-.02-.12-.02-.25.02-.39,1.05-.24.65-.24,1.69,0ZM85.68,85.95s-.04.06-.06.09c-.01.03-.04.06-.07.08-.12.12-.3.23-.51.31-.07.03-.14.05-.22.07-.1.03-.22.06-.34.08-.01,0-.02,0-.03.01-.1,0-.19.03-.29.03-.06.01-.12.01-.18.01-.16.01-.33,0-.49-.01-.05,0-.1,0-.15-.01-.04-.01-.09-.01-.14-.02-.12-.03-.24-.06-.35-.1h0c-.08-.03-.16-.07-.23-.11s-.13-.08-.19-.13c-.02-.14-.02-.27.01-.39-.01-.01,0-.03,0-.04h0s.02-.07.04-.11c.01-.06.04-.11.07-.16.02-.05.05-.1.1-.14.02-.04.05-.07.08-.1.04-.04.09-.08.14-.12.01,0,.01-.01.02-.01.04-.03.08-.05.12-.07.1-.06.2-.1.31-.14.02,0,.04,0,.06-.02.01,0,.02-.01.03-.01s.02,0,.03-.01c.08-.01.17-.03.26-.04.25-.04.52-.04.78-.01.03,0,.06.01.09.01.23.03.44.09.63.18.1.05.2.1.28.16h.01c.04.05.08.09.1.14.04.05.06.09.08.13.04.09.06.17.06.25s0,.14-.04.2ZM85.19,95.81c-.03.14-.08.27-.13.4-.04.13-.09.26-.15.38-.05.12-.11.24-.18.36-.05.12-.12.24-.21.35-.06.11-.13.22-.23.33-.07.11-.15.21-.25.31-.08.1-.18.2-.28.29h-.01c-.1.1-.2.19-.31.27h0c-1.72-2.29-2.87-5.16-.68-7.48-.08-.14-.16-.27-.23-.4-.05-.09-.1-.18-.14-.27-.03-.05-.05-.09-.06-.13-.02-.04-.03-.08-.05-.13-.04-.12-.07-.24-.09-.36-.01-.06-.01-.12-.01-.18,0-.09.01-.19.03-.29.02-.12.05-.24.1-.37.03-.08.07-.17.11-.26.03-.03.07-.06.12-.09.08-.06.19-.1.31-.14.1-.03.2-.06.31-.08h.01c.08-.02.16-.03.24-.04.06-.01.11-.01.17-.01.01-.01.03-.01.04-.01.34-.03.69-.01,1.01.04.14.02.28.06.4.1.18.06.33.13.44.23h.01c.1,1.58.19,3.11.12,4.52,0,.13,0,.26-.02.38-.01.19-.03.37-.05.55-.03.31-.07.6-.13.89,0,.04-.01.07-.02.11-.05.25-.11.5-.19.73ZM82.08,111.44c-.49-1.1-.32-2.85-.34-4.43,1.07-.53,1.49.19,2.71.35h.01c.16,1.2.76,1.96.68,3.4h-.01c-.19.08-.38.17-.57.25-.14.06-.28.12-.43.17-.07.03-.15.06-.23.08-.07.02-.15.04-.23.07-.45.11-.96.17-1.59.11ZM79.82,53.35c-.2.04-.4.09-.62.14-.14.03-.29.06-.44.09-.07.01-.14.03-.22.04-.23.04-.47.09-.71.13-.41.07-.83.14-1.27.21-.22.03-.44.06-.66.09-.21.03-.42.05-.64.08-.33.04-.66.07-.99.09-.21.01-.41.03-.62.04-.35.02-.7.03-1.05.03-.22,0-.45,0-.67,0-.45-.02-.88-.06-1.28-.12-.41-.06-.79-.14-1.15-.25h-.01c-.13-.04-.27-.09-.39-.14-.12-.05-.24-.1-.36-.16-.11-.05-.21-.11-.31-.17-.03-.02-.06-.04-.08-.05,0-.01-.03-.02-.04-.03-.07-.05-.13-.09-.2-.14,1.11-3.56-.97-6.66,0-9.86h0c.15.02.28.07.41.12.13.05.26.11.37.18.12.06.22.13.32.21.1.07.2.16.29.24.13.12.25.25.37.39.36.4.67.85,1.05,1.24.08.08.17.17.26.25.09.07.18.15.28.22.07.06.14.1.21.14.11.06.22.12.34.18.12.05.26.09.4.13.08.03.17.05.26.06l.21.03c.21.02.43.02.68.01-.6.64-1.65-.05-2.25.16-.08.03-.16.08-.22.14-.13.14-.22.36-.25.72,1.81.72,6.5-.12,8.16,1.7-.15.14-.34.25-.56.33-.15.05-.31.08-.49.11-.07.01-.13.02-.2.03s-.15.01-.22.01c-.52.03-1.11,0-1.73-.04-.45-.04-.92-.08-1.38-.12-.19-.02-.38-.03-.57-.04-.16-.01-.32-.02-.48-.03-.55-.02-1.07-.01-1.55.04-.16.02-.31.05-.45.08-.14.03-.28.06-.41.11-.07.02-.15.05-.21.08-.07.03-.14.06-.2.1-.1.05-.19.11-.28.18-.08.06-.16.14-.23.22-.03.03-.04.04-.06.07h-.01s-.07.09-.09.14c-.03.03-.04.06-.06.09.14.12.29.23.46.32.16.08.34.16.54.21.03.01.07.02.1.02.1.03.2.05.31.07.14.03.29.05.45.06h.03c.37.03.77.02,1.18,0,.38-.01.77-.05,1.16-.09.24-.02.49-.05.74-.08.38-.04.75-.08,1.12-.11h.09s.07-.01.11-.01c.35-.03.69-.04,1.02-.04.31,0,.61.01.88.05.09.01.18.02.27.04.08,0,.16.02.23.04.1.02.19.05.28.08.08.02.16.05.23.09.08.03.15.06.22.11.07.02.14.06.2.12.07.04.13.09.19.14.07.05.13.11.17.17.07.06.11.12.16.18.19.27.33.6.41,1.01-.11.03-.24.05-.36.09-.06.01-.13.02-.19.04ZM78.33,101.57c-.01.08,0,.15.01.21,0,.04,0,.08.02.11v.02s.01.01.01.02c.05.13.13.23.22.32.05.04.11.08.17.12h.01c.11.07.24.13.37.2h.01c.13.06.25.14.34.24.07.07.13.14.16.23.04.09.06.2.06.32,0,.07,0,.16-.02.25v4.08c-1.94,2.31-7.17,1.74-10.21.68v-1.7s.04-.11.07-.15c.03-.04.06-.08.1-.12,0-.03.03-.05.06-.07.02-.03.06-.05.09-.08.01-.01.02-.01.03-.02,0,0,.01,0,.01-.01.07-.04.13-.08.21-.11.08-.03.16-.06.25-.08.06-.02.13-.03.2-.04.02-.01.05-.01.08-.01.07-.01.15-.02.23-.02.32-.02.67-.01,1.05.03.08-.03.14-.08.2-.13s.12-.11.16-.17c.07-.09.12-.18.17-.28.05-.09.09-.19.13-.29,0-.01.01-.02.01-.04.04-.11.08-.22.12-.34.06-.19.13-.38.22-.54.03-.06.06-.11.1-.16.02-.04.05-.08.08-.11.05-.07.1-.12.16-.16.1-.07.21-.13.35-.16.26-.54.61-.51.95-.33.07.03.14.07.21.12.06.04.13.09.2.14.06.04.13.09.19.13.05.03.09.06.14.09.03.02.07.04.1.06.06.03.12.06.18.07.07.01.13.01.19-.01.03,0,.06-.02.08-.04.06-.04.11-.11.15-.23-.07-.15-.15-.3-.24-.44-.09-.16-.18-.31-.28-.46-.16-.26-.34-.51-.52-.75-.1-.13-.2-.25-.3-.37-.1-.13-.21-.26-.34-.39-.1-.11-.2-.21-.3-.32-.11-.12-.22-.22-.33-.33-.23-.22-.46-.43-.7-.64-.24-.21-.49-.42-.74-.61-.25-.2-.49-.4-.75-.58-.25-.21-.5-.4-.76-.58-.25-.2-.51-.39-.76-.58-.51-.38-1.01-.77-1.49-1.19-.6-.51-1.18-1.06-1.69-1.66-.13-.15-.26-.31-.38-.46-.12-.16-.24-.32-.35-.49-.1-.13-.18-.27-.27-.41,0,0-.01,0-.01-.02-.12-.2-.24-.41-.35-.62.01-.03.03-.05.05-.08.02-.06.06-.12.1-.17.05-.08.11-.15.17-.21.06-.07.13-.13.2-.19.13-.12.28-.24.43-.34.1-.08.21-.16.32-.23.07-.05.15-.1.22-.15.03-.03.07-.06.1-.08.08-.07.16-.14.24-.22.11-.11.21-.22.29-.35,0,0,.01,0,.01-.01.12-.19.22-.42.26-.69-.03-.11-.06-.23-.09-.34-.05-.23-.08-.45-.11-.67-.01-.1-.02-.21-.03-.32-.01-.15-.01-.3-.01-.45,0-.21.01-.42.03-.63.02-.26.05-.52.09-.78.04-.24.08-.48.13-.71.07-.36.15-.72.23-1.08.03-.15.07-.31.1-.46.02-.07.03-.14.05-.21.14-.6.25-1.21.29-1.84.02-.31.04-.62.06-.94.03-.32.05-.64.07-.95,0-.09,0-.18.02-.27.04-.42.07-.84.11-1.26.04-.44.07-.88.1-1.29.03-.31.06-.62.08-.91.02-.14.03-.28.04-.42.04-.4.08-.76.11-1.09.01-.02.01-.04.01-.06.03-.23.06-.45.08-.64.1-.76.15-1.51.17-2.25.01-.3.01-.6.01-.9v-.1c0-.18,0-.34-.01-.51,0-.17-.01-.33-.02-.5,0-.1,0-.19,0-.29-.02-.38-.04-.76-.08-1.13,0-.07-.01-.13-.02-.2-.01-.19-.03-.37-.05-.54-.02-.27-.05-.52-.08-.77-.08-.75-.17-1.42-.25-2-.17-1.3-.2-2.63-.1-3.93v-.04c.02-.22.04-.44.06-.65.02-.08.03-.17.04-.25.04-.44.11-.87.2-1.29.04-.22.08-.44.14-.66.01-.03.02-.06.02-.1.01-.03.02-.07.03-.1.04-.18.08-.37.14-.54.06-.23.13-.45.2-.67.09-.29.19-.57.3-.85.05-.14.1-.27.16-.4.03-.08.06-.16.09-.23.01-.02.02-.03.02-.05.01,0,.01-.02.02-.03.01-.03.03-.06.04-.08.03-.01.06-.02.1-.02.04-.01.07-.02.11-.02.04-.01.07-.01.11-.02.04,0,.08-.01.11-.02.02,0,.03,0,.05-.01.01,0,.02-.01.02-.01.04-.02.08-.03.1-.06.05-.03.08-.09.08-.18,2.8.48,4.91.16,7.83,0,.05.12.1.24.17.34.05.07.1.15.16.21.02.03.05.05.07.07.17.17.37.31.62.4.13,11.3-.17,26.28-.34,37.79-.61.53-1.33.93-2.04,1.36.03.04.05.08.08.11.02.03.05.06.08.09.03.03.07.06.1.09.03.03.07.05.11.08h.01c.1.06.2.12.31.18.06.02.12.05.18.08.11.05.23.1.34.16.06.02.11.05.16.08.12.06.22.13.3.21.05.04.1.08.12.13.08.09.14.19.18.31.06.14.08.31.07.52.07,1.07-.23,2.5.34,3.06h0c-.03.06-.08.11-.13.15-.06.03-.12.06-.19.08-.05.02-.11.03-.16.03-.01.01-.02.01-.03.01h-.05c-.08.01-.16.02-.23.03-.05,0-.1,0-.14.02-.07.01-.14.02-.2.05-.03.01-.06.02-.09.04-.03.02-.06.04-.08.06-.01.01-.02.02-.02.03-.04.03-.06.08-.07.13-.02.1-.02.23.03.4ZM71.87,113.82c-.07-.37-.09-.7-.07-.97,0-.04,0-.08.01-.11.01-.04.01-.08.03-.11.02-.07.04-.14.06-.2.02-.07.05-.13.08-.18,0,0,.01,0,.01-.01.04-.07.09-.13.15-.19.34-.34.93-.43,1.76-.27h0c-.05.2-.09.39-.16.58-.02.06-.03.12-.06.18-.03.12-.07.22-.13.32-.01.05-.04.1-.07.15-.03.07-.07.13-.11.19-.03.05-.06.1-.11.14-.07.09-.15.16-.25.23-.04.03-.09.06-.14.09h-.01s-.11.06-.17.07c-.06.02-.12.04-.18.05-.06.02-.12.03-.19.04-.14.01-.29.02-.46,0ZM13.66,116.89c.93-1.93,2.36-.9,4.42-.68h.01c4.89-.53,10.66-1.49,15.65-1.37,4.33.11,8.8-.04,12.25-.34,3.76-.31,7.73.09,11.24-.34,3.38-.41,8.89-.98,12.93.34-3.27,2.15-5.93,4-7.48,7.15-2.51,5.11-1.79,16.13-1.03,21.79.22,1.57.17,3.86,0,5.79-.33,3.83-1.1,8.71-2.04,10.55-.56,1.11-1.97,1.94-2.72,3.06-2.65,3.94-3.39,6.88-7.49,8.86.96-3.41,4.02-4.42,5.45-6.81,1.53-2.58,1.86-6.56,2.38-9.53.31-1.78,1.27-3.2,1.36-4.43.35-4.75-.1-12.11-2.38-17.02-.29-.62-1-1.36-1.36-2.04-1.29-2.41-1.68-3.24-3.07-5.11-1.85-2.5-2.88-3.67-5.44-5.1-.67-.38-1.34-.97-2.05-1.37-4.5-2.54-8.63-1.94-14.63-2.72-2.63-.34-4.97-1.65-7.83-1.02-1.78,1.02-6.93,2.92-8.17.34ZM.71,19.12v1.84c.13,0,.25-.03.34-.07.25-.96.02-1.43-.34-1.77Z"/>
  <path d="M.71,5.78v-.55c-.1.28-.08.45,0,.55Z"/>
  <path d="M.47,64.4c.2-1.04.22-2.22,0-3.27.22,1.04.21,2.22,0,3.27Z"/>
  <path d="M.02,65.82h.01c.05-.1.09-.21.13-.32-.05.11-.09.22-.14.32Z"/>
  <path d="M.46,16.54v2.38c.09.06.17.13.25.2v-2.56c-.08-.01-.16-.02-.25-.02Z"/>
  <path d="M.46,138.23v14.86c.09.26.17.53.25.8v-16.31c-.09.21-.17.43-.25.65Z"/>
  <path d="M.46,186.19v.93c.08.01.17,0,.25,0v-.87c-.08-.02-.16-.04-.25-.06Z"/>
  <path d="M.22,100.48c.08-.01.16-.02.24-.02v6.24c.08.01.17.01.25.01v-8.44c-.09-.1-.18-.2-.25-.31v2.49c-.08,0-.16.01-.24.03Z"/>
  <path d="M.02,65.82h.01c.05-.1.09-.21.13-.32-.05.11-.09.22-.14.32Z"/>
  <path d="M.22,100.48c.08-.01.16-.02.24-.02H.46c-.08-.01-.16,0-.24.02Z"/>
</svg>